Coconat-Regular.ufo
<glyph name="exclam" format="2">
  <advance width="280"/>
  <unicode hex="0021"/>
  <outline>
    <contour>
      <point x="119" y="193" type="curve"/>
      <point x="161" y="193" type="line"/>
      <point x="164" y="373"/>
      <point x="190" y="530"/>
      <point x="207" y="701" type="curve"/>
      <point x="73" y="701" type="line"/>
      <point x="90" y="530"/>
      <point x="116" y="373"/>
    </contour>
    <component base="period" xOffset="43"/>
  </outline>
</glyph>
<glyph name="quotedbl" format="2">
  <advance width="317"/>
  <unicode hex="0022"/>
  <outline>
    <contour>
      <point x="71" y="466" type="curve"/>
      <point x="135" y="466" type="line"/>
      <point x="135" y="524"/>
      <point x="136" y="623"/>
      <point x="143" y="699" type="curve"/>
      <point x="60" y="699" type="line"/>
      <point x="67" y="623"/>
      <point x="71" y="524"/>
    </contour>
    <contour>
      <point x="186" y="466" type="curve"/>
      <point x="249" y="466" type="line"/>
      <point x="250" y="523"/>
      <point x="252" y="622"/>
      <point x="257" y="699" type="curve"/>
      <point x="174" y="699" type="line"/>
      <point x="181" y="623"/>
      <point x="186" y="524"/>
    </contour>
  </outline>
</glyph>
<glyph name="numbersign" format="2">
  <advance width="642"/>
  <unicode hex="0023"/>
  <outline>
    <contour>
      <point x="243" y="700" type="line"/>
      <point x="238" y="654"/>
      <point x="233" y="608"/>
      <point x="228" y="561" type="curve"/>
      <point x="182" y="205" type="line"/>
      <point x="173" y="137"/>
      <point x="165" y="68"/>
      <point x="153" y="0" type="curve"/>
      <point x="222" y="0" type="line"/>
      <point x="223" y="46"/>
      <point x="228" y="91"/>
      <point x="233" y="138" type="curve"/>
      <point x="282" y="496" type="line"/>
      <point x="289" y="545"/>
      <point x="302" y="641"/>
      <point x="313" y="700" type="curve"/>
    </contour>
    <contour>
      <point x="397" y="449" type="line" smooth="yes"/>
      <point x="460" y="449"/>
      <point x="511" y="449"/>
      <point x="572" y="444" type="curve"/>
      <point x="582" y="511" type="line"/>
      <point x="521" y="507"/>
      <point x="460" y="507"/>
      <point x="397" y="507" type="curve" smooth="yes"/>
      <point x="302" y="507" type="line" smooth="yes"/>
      <point x="239" y="507"/>
      <point x="178" y="507"/>
      <point x="117" y="511" type="curve"/>
      <point x="107" y="444" type="line"/>
      <point x="168" y="449"/>
      <point x="239" y="449"/>
      <point x="302" y="449" type="curve" smooth="yes"/>
    </contour>
    <contour>
      <point x="446" y="700" type="line"/>
      <point x="441" y="654"/>
      <point x="436" y="608"/>
      <point x="431" y="561" type="curve"/>
      <point x="385" y="205" type="line"/>
      <point x="376" y="137"/>
      <point x="368" y="68"/>
      <point x="356" y="0" type="curve"/>
      <point x="425" y="0" type="line"/>
      <point x="426" y="46"/>
      <point x="431" y="91"/>
      <point x="436" y="138" type="curve"/>
      <point x="485" y="496" type="line"/>
      <point x="492" y="545"/>
      <point x="505" y="641"/>
      <point x="516" y="700" type="curve"/>
    </contour>
    <contour>
      <point x="355" y="179" type="line" smooth="yes"/>
      <point x="418" y="179"/>
      <point x="469" y="179"/>
      <point x="530" y="174" type="curve"/>
      <point x="540" y="241" type="line"/>
      <point x="479" y="237"/>
      <point x="418" y="237"/>
      <point x="355" y="237" type="curve" smooth="yes"/>
      <point x="260" y="237" type="line" smooth="yes"/>
      <point x="197" y="237"/>
      <point x="136" y="237"/>
      <point x="75" y="241" type="curve"/>
      <point x="65" y="174" type="line"/>
      <point x="126" y="179"/>
      <point x="197" y="179"/>
      <point x="260" y="179" type="curve" smooth="yes"/>
    </contour>
  </outline>
</glyph>
<glyph name="percent" format="2">
  <advance width="679"/>
  <unicode hex="0025"/>
  <outline>
    <contour>
      <point x="175" y="0" type="line"/>
      <point x="187" y="26"/>
      <point x="208" y="67"/>
      <point x="225" y="97" type="qcurve" smooth="yes"/>
      <point x="492" y="574" type="line" smooth="yes"/>
      <point x="509" y="604"/>
      <point x="537" y="650"/>
      <point x="553" y="676" type="qcurve"/>
      <point x="499" y="676" type="line"/>
      <point x="488" y="650"/>
      <point x="463" y="604"/>
      <point x="446" y="574" type="qcurve" smooth="yes"/>
      <point x="179" y="97" type="line" smooth="yes"/>
      <point x="162" y="67"/>
      <point x="137" y="26"/>
      <point x="120" y="0" type="qcurve"/>
    </contour>
    <component base="degree" xOffset="352" yOffset="-316"/>
    <component base="degree" xOffset="4" yOffset="-70"/>
  </outline>
</glyph>
<glyph name="ampersand" format="2">
  <advance width="693"/>
  <unicode hex="0026"/>
  <outline>
    <contour>
      <point x="703" y="0" type="line"/>
      <point x="674" y="18"/>
      <point x="620" y="72"/>
      <point x="558" y="138" type="curve" smooth="yes"/>
      <point x="473" y="228"/>
      <point x="369" y="328"/>
      <point x="298" y="409" type="curve" smooth="yes"/>
      <point x="239" y="476"/>
      <point x="208" y="524"/>
      <point x="208" y="575" type="curve" smooth="yes"/>
      <point x="208" y="645"/>
      <point x="251" y="679"/>
      <point x="306" y="679" type="curve" smooth="yes"/>
      <point x="362" y="679"/>
      <point x="393" y="634"/>
      <point x="419" y="545" type="curve"/>
      <point x="481" y="629" type="line"/>
      <point x="456" y="670"/>
      <point x="404" y="711"/>
      <point x="320" y="711" type="curve" smooth="yes"/>
      <point x="205" y="711"/>
      <point x="117" y="641"/>
      <point x="117" y="550" type="curve" smooth="yes"/>
      <point x="117" y="479"/>
      <point x="159" y="442"/>
      <point x="215" y="390" type="curve"/>
      <point x="133" y="360"/>
      <point x="45" y="289"/>
      <point x="45" y="179" type="curve" smooth="yes"/>
      <point x="45" y="81"/>
      <point x="131" y="-11"/>
      <point x="294" y="-11" type="curve" smooth="yes"/>
      <point x="488" y="-11"/>
      <point x="640" y="154"/>
      <point x="634" y="361" type="curve"/>
      <point x="538" y="318" type="line"/>
      <point x="555" y="157"/>
      <point x="468" y="34"/>
      <point x="312" y="34" type="curve" smooth="yes"/>
      <point x="194" y="34"/>
      <point x="134" y="109"/>
      <point x="134" y="192" type="curve" smooth="yes"/>
      <point x="134" y="303"/>
      <point x="201" y="346"/>
      <point x="238" y="364" type="curve"/>
      <point x="509" y="82" type="line"/>
      <point x="534" y="55"/>
      <point x="557" y="34"/>
      <point x="571" y="2" type="curve"/>
    </contour>
  </outline>
</glyph>
<glyph name="quotesingle" format="2">
  <advance width="203"/>
  <unicode hex="0027"/>
  <outline>
    <contour>
      <point x="72" y="466" type="curve"/>
      <point x="135" y="466" type="line"/>
      <point x="136" y="523"/>
      <point x="138" y="622"/>
      <point x="143" y="699" type="curve"/>
      <point x="60" y="699" type="line"/>
      <point x="67" y="623"/>
      <point x="72" y="524"/>
    </contour>
  </outline>
</glyph>
<glyph name="parenleft" format="2">
  <advance width="382"/>
  <unicode hex="0028"/>
  <outline>
    <contour>
      <point x="81" y="262" type="curve" smooth="yes"/>
      <point x="81" y="38"/>
      <point x="199" y="-139"/>
      <point x="360" y="-220" type="curve"/>
      <point x="379" y="-197" type="line"/>
      <point x="247" y="-89"/>
      <point x="185" y="64"/>
      <point x="185" y="262" type="curve" smooth="yes"/>
      <point x="185" y="460"/>
      <point x="247" y="613"/>
      <point x="379" y="721" type="curve"/>
      <point x="360" y="744" type="line"/>
      <point x="199" y="663"/>
      <point x="81" y="486"/>
    </contour>
  </outline>
</glyph>
<glyph name="asterisk" format="2">
  <advance width="477"/>
  <unicode hex="002A"/>
  <outline>
    <contour>
      <point x="60" y="540" type="line"/>
      <point x="110" y="540"/>
      <point x="154" y="532"/>
      <point x="213" y="518" type="curve"/>
      <point x="175" y="471"/>
      <point x="143" y="439"/>
      <point x="103" y="409" type="curve"/>
      <point x="169" y="362" type="line"/>
      <point x="185" y="409"/>
      <point x="205" y="449"/>
      <point x="238" y="500" type="curve"/>
      <point x="271" y="449"/>
      <point x="290" y="409"/>
      <point x="308" y="362" type="curve"/>
      <point x="373" y="410" type="line"/>
      <point x="332" y="439"/>
      <point x="301" y="472"/>
      <point x="263" y="518" type="curve"/>
      <point x="322" y="532"/>
      <point x="367" y="540"/>
      <point x="417" y="542" type="curve"/>
      <point x="391" y="618" type="line"/>
      <point x="350" y="589"/>
      <point x="309" y="570"/>
      <point x="255" y="547" type="curve"/>
      <point x="258" y="607"/>
      <point x="264" y="652"/>
      <point x="279" y="700" type="curve"/>
      <point x="198" y="700" type="line"/>
      <point x="213" y="652"/>
      <point x="219" y="607"/>
      <point x="223" y="547" type="curve"/>
      <point x="168" y="570"/>
      <point x="126" y="589"/>
      <point x="84" y="617" type="curve"/>
    </contour>
  </outline>
</glyph>
<glyph name="plus" format="2">
  <advance width="632"/>
  <unicode hex="002B"/>
  <outline>
    <contour>
      <point x="293" y="526" type="line"/>
      <point x="293" y="34" type="line"/>
      <point x="339" y="34" type="line"/>
      <point x="339" y="526" type="line"/>
    </contour>
    <contour>
      <point x="562" y="303" type="line"/>
      <point x="70" y="303" type="line"/>
      <point x="70" y="257" type="line"/>
      <point x="562" y="257" type="line"/>
    </contour>
  </outline>
</glyph>
<glyph name="comma" format="2">
  <advance width="180"/>
  <unicode hex="002C"/>
  <outline>
    <contour>
      <point x="10" y="-135" type="curve"/>
      <point x="14" y="-140" type="line"/>
      <point x="69" y="-109"/>
      <point x="147" y="-58"/>
      <point x="147" y="21" type="curve" smooth="yes"/>
      <point x="147" y="69"/>
      <point x="120" y="98"/>
      <point x="101" y="115" type="curve"/>
      <point x="24" y="63" type="line"/>
      <point x="56" y="36"/>
      <point x="67" y="4"/>
      <point x="67" y="-24" type="curve" smooth="yes"/>
      <point x="67" y="-69"/>
      <point x="43" y="-106"/>
    </contour>
  </outline>
</glyph>
<glyph name="hyphen" format="2">
  <advance width="373"/>
  <unicode hex="002D"/>
  <outline>
    <contour>
      <point x="45" y="311" type="line"/>
      <point x="45" y="265" type="line"/>
      <point x="328" y="265" type="line"/>
      <point x="328" y="311" type="line"/>
    </contour>
  </outline>
</glyph>
<glyph name="period" format="2">
  <advance width="192"/>
  <unicode hex="002E"/>
  <outline>
    <contour>
      <point x="97" y="-5" type="curve" smooth="yes"/>
      <point x="128" y="-5"/>
      <point x="154" y="20"/>
      <point x="154" y="52" type="curve" smooth="yes"/>
      <point x="154" y="83"/>
      <point x="128" y="108"/>
      <point x="97" y="108" type="curve" smooth="yes"/>
      <point x="66" y="108"/>
      <point x="40" y="83"/>
      <point x="40" y="52" type="curve" smooth="yes"/>
      <point x="40" y="20"/>
      <point x="66" y="-5"/>
    </contour>
  </outline>
</glyph>
<glyph name="slash" format="2">
  <advance width="422"/>
  <unicode hex="002F"/>
  <outline>
    <contour>
      <point x="68" y="-224" type="line"/>
      <point x="72" y="-204"/>
      <point x="85" y="-163"/>
      <point x="96" y="-133" type="qcurve" smooth="yes"/>
      <point x="385" y="656" type="line" smooth="yes"/>
      <point x="396" y="686"/>
      <point x="412" y="724"/>
      <point x="422" y="744" type="qcurve"/>
      <point x="353" y="744" type="line"/>
      <point x="350" y="724"/>
      <point x="338" y="686"/>
      <point x="327" y="656" type="qcurve" smooth="yes"/>
      <point x="134" y="130"/>
      <point x="231" y="393"/>
      <point x="38" y="-133" type="curve" smooth="yes"/>
      <point x="27" y="-163"/>
      <point x="10" y="-204"/>
      <point x="0" y="-224" type="qcurve"/>
    </contour>
  </outline>
</glyph>
<glyph name="zero" format="2">
  <advance width="638"/>
  <unicode hex="0030"/>
  <outline>
    <contour>
      <point x="299" y="-15" type="curve" smooth="yes"/>
      <point x="458" y="-15"/>
      <point x="593" y="138"/>
      <point x="593" y="359" type="curve" smooth="yes"/>
      <point x="593" y="579"/>
      <point x="464" y="712"/>
      <point x="339" y="712" type="curve" smooth="yes"/>
      <point x="188" y="712"/>
      <point x="45" y="567"/>
      <point x="45" y="319" type="curve" smooth="yes"/>
      <point x="45" y="118"/>
      <point x="164" y="-15"/>
    </contour>
    <contour>
      <point x="345" y="41" type="curve" smooth="yes"/>
      <point x="228" y="41"/>
      <point x="144" y="149"/>
      <point x="144" y="379" type="curve" smooth="yes"/>
      <point x="144" y="591"/>
      <point x="238" y="658"/>
      <point x="306" y="658" type="curve" smooth="yes"/>
      <point x="409" y="658"/>
      <point x="494" y="532"/>
      <point x="494" y="308" type="curve" smooth="yes"/>
      <point x="494" y="118"/>
      <point x="426" y="41"/>
    </contour>
  </outline>
</glyph>
<glyph name="one" format="2">
  <advance width="328"/>
  <unicode hex="0031"/>
  <outline>
    <contour>
      <point x="111" y="0" type="curve"/>
      <point x="259" y="0" type="line"/>
      <point x="259" y="0"/>
      <point x="229" y="38"/>
      <point x="229" y="169" type="curve"/>
      <point x="228" y="496" type="line" smooth="yes"/>
      <point x="228" y="623"/>
      <point x="232" y="671"/>
      <point x="240" y="720" type="curve"/>
      <point x="227" y="720" type="line"/>
      <point x="178" y="657"/>
      <point x="87" y="549"/>
      <point x="15" y="504" type="curve"/>
      <point x="15" y="498" type="line"/>
      <point x="28" y="501"/>
      <point x="105" y="521"/>
      <point x="144" y="553" type="curve"/>
      <point x="141" y="526" type="line"/>
      <point x="140" y="169" type="line"/>
      <point x="140" y="38"/>
      <point x="111" y="0"/>
    </contour>
  </outline>
</glyph>
<glyph name="two" format="2">
  <advance width="584"/>
  <unicode hex="0032"/>
  <outline>
    <contour>
      <point x="40" y="-1" type="curve"/>
      <point x="510" y="-4" type="line"/>
      <point x="554" y="139" type="line"/>
      <point x="547" y="143" type="line"/>
      <point x="469" y="59"/>
      <point x="281" y="59"/>
      <point x="156" y="61" type="curve"/>
      <point x="175" y="94"/>
      <point x="199" y="118"/>
      <point x="239" y="162" type="curve"/>
      <point x="378" y="305" type="line" smooth="yes"/>
      <point x="463" y="393"/>
      <point x="522" y="462"/>
      <point x="522" y="546" type="curve" smooth="yes"/>
      <point x="522" y="629"/>
      <point x="443" y="712"/>
      <point x="299" y="712" type="curve" smooth="yes"/>
      <point x="208" y="712"/>
      <point x="129" y="686"/>
      <point x="55" y="630" type="curve"/>
      <point x="81" y="493" type="line"/>
      <point x="87" y="491" type="line"/>
      <point x="132" y="646"/>
      <point x="207" y="671"/>
      <point x="274" y="671" type="curve" smooth="yes"/>
      <point x="353" y="671"/>
      <point x="406" y="610"/>
      <point x="406" y="518" type="curve" smooth="yes"/>
      <point x="406" y="370"/>
      <point x="275" y="292"/>
    </contour>
  </outline>
</glyph>
<glyph name="three" format="2">
  <advance width="603"/>
  <unicode hex="0033"/>
  <outline>
    <contour>
      <point x="68" y="576" type="line"/>
      <point x="73" y="574" type="line"/>
      <point x="149" y="644"/>
      <point x="296" y="649"/>
      <point x="410" y="645" type="curve"/>
      <point x="196" y="375" type="line"/>
      <point x="213" y="376" type="line"/>
      <point x="308" y="376"/>
      <point x="441" y="337"/>
      <point x="441" y="211" type="curve" smooth="yes"/>
      <point x="441" y="71"/>
      <point x="339" y="32"/>
      <point x="274" y="32" type="curve" smooth="yes"/>
      <point x="187" y="32"/>
      <point x="113" y="106"/>
      <point x="93" y="203" type="curve"/>
      <point x="86" y="204" type="line"/>
      <point x="60" y="58" type="line"/>
      <point x="108" y="19"/>
      <point x="182" y="-14"/>
      <point x="274" y="-14" type="curve" smooth="yes"/>
      <point x="397" y="-14"/>
      <point x="543" y="63"/>
      <point x="543" y="217" type="curve" smooth="yes"/>
      <point x="543" y="349"/>
      <point x="437" y="414"/>
      <point x="291" y="419" type="curve"/>
      <point x="515" y="700" type="line"/>
      <point x="102" y="704" type="line"/>
    </contour>
  </outline>
</glyph>
<glyph name="four" format="2">
  <advance width="616"/>
  <unicode hex="0034"/>
  <outline>
    <contour>
      <point x="372" y="707" type="line"/>
      <point x="30" y="182" type="line"/>
      <point x="386" y="182" type="line"/>
      <point x="386" y="169" type="line" smooth="yes"/>
      <point x="386" y="38"/>
      <point x="360" y="0"/>
      <point x="360" y="0" type="curve"/>
      <point x="512" y="0" type="line"/>
      <point x="510" y="0"/>
      <point x="480" y="38"/>
      <point x="480" y="169" type="curve" smooth="yes"/>
      <point x="480" y="180" type="line"/>
      <point x="509" y="179"/>
      <point x="541" y="177"/>
      <point x="571" y="172" type="curve"/>
      <point x="571" y="239" type="line"/>
      <point x="541" y="234"/>
      <point x="509" y="232"/>
      <point x="480" y="231" type="curve"/>
      <point x="479" y="528" type="line" smooth="yes"/>
      <point x="479" y="592"/>
      <point x="480" y="656"/>
      <point x="490" y="721" type="curve"/>
    </contour>
    <contour>
      <point x="118" y="229" type="line"/>
      <point x="385" y="641" type="line"/>
      <point x="388" y="606"/>
      <point x="388" y="565"/>
      <point x="388" y="529" type="curve" smooth="yes"/>
      <point x="386" y="229" type="line"/>
    </contour>
  </outline>
</glyph>
<glyph name="five" format="2">
  <advance width="633"/>
  <unicode hex="0035"/>
  <outline>
    <contour>
      <point x="60" y="68" type="line"/>
      <point x="101" y="34"/>
      <point x="175" y="-14"/>
      <point x="283" y="-14" type="curve" smooth="yes"/>
      <point x="432" y="-14"/>
      <point x="548" y="83"/>
      <point x="548" y="227" type="curve" smooth="yes"/>
      <point x="548" y="356"/>
      <point x="440" y="440"/>
      <point x="300" y="440" type="curve" smooth="yes"/>
      <point x="233" y="440"/>
      <point x="179" y="423"/>
      <point x="156" y="410" type="curve"/>
      <point x="171" y="646" type="line"/>
      <point x="482" y="619" type="line"/>
      <point x="516" y="720" type="line"/>
      <point x="512" y="723" type="line"/>
      <point x="460" y="700"/>
      <point x="283" y="704"/>
      <point x="124" y="704" type="curve"/>
      <point x="102" y="349" type="line"/>
      <point x="127" y="349" type="line"/>
      <point x="262" y="436"/>
      <point x="451" y="380"/>
      <point x="451" y="201" type="curve" smooth="yes"/>
      <point x="451" y="93"/>
      <point x="386" y="32"/>
      <point x="294" y="32" type="curve" smooth="yes"/>
      <point x="190" y="32"/>
      <point x="112" y="121"/>
      <point x="89" y="216" type="curve"/>
      <point x="86" y="215" type="line"/>
    </contour>
  </outline>
</glyph>
<glyph name="six" format="2">
  <advance width="625"/>
  <unicode hex="0036"/>
  <outline>
    <contour>
      <point x="311" y="-15" type="curve" smooth="yes"/>
      <point x="446" y="-15"/>
      <point x="565" y="84"/>
      <point x="565" y="220" type="curve" smooth="yes"/>
      <point x="565" y="356"/>
      <point x="467" y="440"/>
      <point x="349" y="440" type="curve" smooth="yes"/>
      <point x="256" y="440"/>
      <point x="193" y="382"/>
      <point x="165" y="334" type="curve"/>
      <point x="191" y="532"/>
      <point x="312" y="647"/>
      <point x="463" y="709" type="curve"/>
      <point x="459" y="715" type="line"/>
      <point x="186" y="651"/>
      <point x="55" y="467"/>
      <point x="55" y="257" type="curve" smooth="yes"/>
      <point x="55" y="99"/>
      <point x="157" y="-15"/>
    </contour>
    <contour>
      <point x="311" y="18" type="curve" smooth="yes"/>
      <point x="231" y="18"/>
      <point x="156" y="93"/>
      <point x="161" y="257" type="curve"/>
      <point x="176" y="328"/>
      <point x="243" y="390"/>
      <point x="326" y="390" type="curve" smooth="yes"/>
      <point x="397" y="390"/>
      <point x="460" y="335"/>
      <point x="460" y="205" type="curve" smooth="yes"/>
      <point x="460" y="68"/>
      <point x="390" y="18"/>
    </contour>
  </outline>
</glyph>
<glyph name="seven" format="2">
  <advance width="536"/>
  <unicode hex="0037"/>
  <outline>
    <contour>
      <point x="24" y="613" type="line"/>
      <point x="28" y="611" type="line"/>
      <point x="121" y="628"/>
      <point x="281" y="641"/>
      <point x="422" y="634" type="curve"/>
      <point x="264" y="320" type="line" smooth="yes"/>
      <point x="197" y="188"/>
      <point x="144" y="87"/>
      <point x="74" y="0" type="curve"/>
      <point x="191" y="0" type="line"/>
      <point x="204" y="50"/>
      <point x="241" y="138"/>
      <point x="266" y="187" type="curve" smooth="yes"/>
      <point x="523" y="700" type="line"/>
      <point x="370" y="703"/>
      <point x="90" y="707"/>
      <point x="41" y="711" type="curve"/>
    </contour>
  </outline>
</glyph>
<glyph name="eight" format="2">
  <advance width="613"/>
  <unicode hex="0038"/>
  <outline>
    <contour>
      <point x="321" y="343" type="line"/>
      <point x="434" y="299"/>
      <point x="471" y="245"/>
      <point x="471" y="177" type="curve" smooth="yes"/>
      <point x="471" y="93"/>
      <point x="409" y="30"/>
      <point x="312" y="30" type="curve" smooth="yes"/>
      <point x="212" y="30"/>
      <point x="123" y="94"/>
      <point x="124" y="192" type="curve" smooth="yes"/>
      <point x="125" y="303"/>
      <point x="202" y="336"/>
      <point x="255" y="362" type="curve"/>
    </contour>
    <contour>
      <point x="45" y="179" type="curve" smooth="yes"/>
      <point x="45" y="93"/>
      <point x="125" y="-15"/>
      <point x="303" y="-15" type="curve" smooth="yes"/>
      <point x="473" y="-15"/>
      <point x="568" y="95"/>
      <point x="568" y="198" type="curve" smooth="yes"/>
      <point x="568" y="297"/>
      <point x="505" y="356"/>
      <point x="386" y="401" type="curve"/>
      <point x="413" y="407"/>
      <point x="518" y="461"/>
      <point x="518" y="559" type="curve" smooth="yes"/>
      <point x="518" y="642"/>
      <point x="428" y="712"/>
      <point x="322" y="712" type="curve" smooth="yes"/>
      <point x="163" y="712"/>
      <point x="95" y="627"/>
      <point x="95" y="544" type="curve" smooth="yes"/>
      <point x="95" y="468"/>
      <point x="134" y="428"/>
      <point x="226" y="381" type="curve"/>
      <point x="144" y="362"/>
      <point x="45" y="299"/>
    </contour>
    <contour>
      <point x="185" y="556" type="curve" smooth="yes"/>
      <point x="185" y="633"/>
      <point x="233" y="678"/>
      <point x="301" y="678" type="curve" smooth="yes"/>
      <point x="380" y="678"/>
      <point x="439" y="622"/>
      <point x="439" y="544" type="curve" smooth="yes"/>
      <point x="439" y="475"/>
      <point x="382" y="436"/>
      <point x="346" y="415" type="curve"/>
      <point x="324" y="421"/>
      <point x="286" y="434"/>
      <point x="260" y="449" type="curve" smooth="yes"/>
      <point x="205" y="481"/>
      <point x="185" y="517"/>
    </contour>
  </outline>
</glyph>
<glyph name="nine" format="2">
  <advance width="580"/>
  <unicode hex="0039"/>
  <outline>
    <contour>
      <point x="141" y="-15" type="line"/>
      <point x="414" y="49"/>
      <point x="545" y="233"/>
      <point x="545" y="443" type="curve" smooth="yes"/>
      <point x="545" y="601"/>
      <point x="443" y="715"/>
      <point x="289" y="715" type="curve" smooth="yes"/>
      <point x="154" y="715"/>
      <point x="35" y="616"/>
      <point x="35" y="480" type="curve" smooth="yes"/>
      <point x="35" y="344"/>
      <point x="133" y="260"/>
      <point x="251" y="260" type="curve" smooth="yes"/>
      <point x="344" y="260"/>
      <point x="407" y="318"/>
      <point x="435" y="366" type="curve"/>
      <point x="409" y="168"/>
      <point x="288" y="53"/>
      <point x="137" y="-9" type="curve"/>
    </contour>
    <contour>
      <point x="274" y="310" type="curve" smooth="yes"/>
      <point x="203" y="310"/>
      <point x="140" y="365"/>
      <point x="140" y="495" type="curve" smooth="yes"/>
      <point x="140" y="632"/>
      <point x="210" y="682"/>
      <point x="289" y="682" type="curve" smooth="yes"/>
      <point x="369" y="682"/>
      <point x="444" y="607"/>
      <point x="439" y="443" type="curve"/>
      <point x="424" y="372"/>
      <point x="357" y="310"/>
    </contour>
  </outline>
</glyph>
<glyph name="less" format="2">
  <advance width="517"/>
  <unicode hex="003C"/>
  <outline>
    <contour>
      <point x="477" y="467" type="line"/>
      <point x="86" y="285" type="line"/>
      <point x="477" y="101" type="line"/>
      <point x="477" y="55" type="line"/>
      <point x="40" y="262" type="line"/>
      <point x="40" y="308" type="line"/>
      <point x="477" y="513" type="line"/>
    </contour>
  </outline>
</glyph>
<glyph name="equal" format="2">
  <advance width="600"/>
  <unicode hex="003D"/>
  <outline>
    <contour>
      <point x="526" y="380" type="line"/>
      <point x="76" y="380" type="line"/>
      <point x="76" y="334" type="line"/>
      <point x="526" y="334" type="line"/>
    </contour>
    <contour>
      <point x="526" y="205" type="line"/>
      <point x="76" y="205" type="line"/>
      <point x="76" y="159" type="line"/>
      <point x="526" y="159" type="line"/>
    </contour>
  </outline>
</glyph>
<glyph name="greater" format="2">
  <advance width="517"/>
  <unicode hex="003E"/>
  <outline>
    <contour>
      <point x="40" y="467" type="line"/>
      <point x="40" y="513" type="line"/>
      <point x="477" y="308" type="line"/>
      <point x="477" y="262" type="line"/>
      <point x="40" y="55" type="line"/>
      <point x="40" y="101" type="line"/>
      <point x="431" y="285" type="line"/>
    </contour>
  </outline>
</glyph>
<glyph name="question" format="2">
  <advance width="575"/>
  <unicode hex="003F"/>
  <outline>
    <contour>
      <point x="230" y="193" type="line"/>
      <point x="215" y="321" type="line"/>
      <point x="234" y="341"/>
      <point x="260" y="358"/>
      <point x="299" y="398" type="curve" smooth="yes"/>
      <point x="340" y="440"/>
      <point x="391" y="479"/>
      <point x="391" y="559" type="curve" smooth="yes"/>
      <point x="391" y="638"/>
      <point x="339" y="676"/>
      <point x="267" y="676" type="curve" smooth="yes"/>
      <point x="226" y="676"/>
      <point x="139" y="656"/>
      <point x="75" y="499" type="curve"/>
      <point x="45" y="634" type="line"/>
      <point x="127" y="696"/>
      <point x="201" y="720"/>
      <point x="277" y="720" type="curve" smooth="yes"/>
      <point x="415" y="720"/>
      <point x="505" y="652"/>
      <point x="505" y="548" type="curve" smooth="yes"/>
      <point x="505" y="447"/>
      <point x="396" y="394"/>
      <point x="326" y="340" type="curve" smooth="yes"/>
      <point x="304" y="323"/>
      <point x="300" y="319"/>
      <point x="285" y="305" type="curve"/>
      <point x="272" y="193" type="line"/>
    </contour>
    <component base="period" xOffset="156"/>
  </outline>
</glyph>
<glyph name="at" format="2">
  <advance width="922"/>
  <unicode hex="0040"/>
  <outline>
    <contour>
      <point x="672" y="73" type="curve" smooth="yes"/>
      <point x="831" y="73"/>
      <point x="872" y="249"/>
      <point x="872" y="320" type="curve" smooth="yes"/>
      <point x="872" y="605"/>
      <point x="640" y="705"/>
      <point x="461" y="705" type="curve"/>
      <point x="279" y="705"/>
      <point x="50" y="558"/>
      <point x="50" y="297" type="curve"/>
      <point x="50" y="7"/>
      <point x="283" y="-94"/>
      <point x="443" y="-94" type="curve"/>
      <point x="544" y="-94"/>
      <point x="645" y="-61"/>
      <point x="693" y="-26" type="curve"/>
      <point x="687" y="7" type="line"/>
      <point x="642" y="-29"/>
      <point x="551" y="-65"/>
      <point x="444" y="-65" type="curve"/>
      <point x="280" y="-65"/>
      <point x="87" y="56"/>
      <point x="87" y="298" type="curve"/>
      <point x="87" y="527"/>
      <point x="284" y="675"/>
      <point x="460" y="675" type="curve"/>
      <point x="574" y="675"/>
      <point x="838" y="615"/>
      <point x="838" y="321" type="curve" smooth="yes"/>
      <point x="838" y="195"/>
      <point x="764" y="119"/>
      <point x="703" y="119" type="curve" smooth="yes"/>
      <point x="655" y="119"/>
      <point x="621" y="161"/>
      <point x="620" y="215" type="curve"/>
      <point x="620" y="309"/>
      <point x="618" y="460"/>
      <point x="629" y="496" type="curve"/>
      <point x="545" y="453" type="line"/>
      <point x="545" y="187" type="line"/>
      <point x="557" y="101"/>
      <point x="610" y="73"/>
    </contour>
    <contour>
      <point x="596" y="418" type="line"/>
      <point x="579" y="478"/>
      <point x="515" y="513"/>
      <point x="449" y="513" type="curve" smooth="yes"/>
      <point x="332" y="513"/>
      <point x="254" y="425"/>
      <point x="254" y="294" type="curve" smooth="yes"/>
      <point x="254" y="136"/>
      <point x="342" y="74"/>
      <point x="417" y="74" type="curve" smooth="yes"/>
      <point x="523" y="74"/>
      <point x="594" y="173"/>
      <point x="562" y="269" type="curve" smooth="yes"/>
      <point x="548" y="311" type="line"/>
      <point x="552" y="211"/>
      <point x="522" y="134"/>
      <point x="448" y="134" type="curve" smooth="yes"/>
      <point x="391" y="134"/>
      <point x="338" y="189"/>
      <point x="338" y="322" type="curve" smooth="yes"/>
      <point x="338" y="426"/>
      <point x="390" y="487"/>
      <point x="436" y="487" type="curve" smooth="yes"/>
      <point x="534" y="487"/>
      <point x="545" y="364"/>
      <point x="545" y="283" type="curve"/>
    </contour>
  </outline>
</glyph>
<glyph name="A" format="2">
  <advance width="730"/>
  <unicode hex="0041"/>
  <anchor x="314" y="0" name="bottom"/>
  <anchor x="676" y="0" name="ogonek"/>
  <anchor x="321" y="700" name="top"/>
  <outline>
    <contour>
      <point x="10" y="0" type="curve"/>
      <point x="123" y="0" type="line"/>
      <point x="123" y="59"/>
      <point x="152" y="133"/>
      <point x="152" y="133" type="curve"/>
      <point x="186" y="214" type="line"/>
      <point x="234" y="216"/>
      <point x="279" y="217"/>
      <point x="321" y="217" type="curve" smooth="yes"/>
      <point x="381" y="217"/>
      <point x="436" y="216"/>
      <point x="490" y="214" type="curve"/>
      <point x="514" y="158" type="line" smooth="yes"/>
      <point x="545" y="85"/>
      <point x="557" y="42"/>
      <point x="558" y="0" type="curve"/>
      <point x="702" y="0" type="line"/>
      <point x="656" y="70"/>
      <point x="633" y="121"/>
      <point x="600" y="189" type="curve" smooth="yes"/>
      <point x="426" y="594" type="line"/>
      <point x="404" y="642"/>
      <point x="391" y="671"/>
      <point x="381" y="699" type="curve"/>
      <point x="229" y="700" type="line"/>
      <point x="229" y="698" type="line"/>
      <point x="267" y="674"/>
      <point x="294" y="649"/>
      <point x="312" y="622" type="curve"/>
      <point x="97" y="164" type="line"/>
      <point x="83" y="127"/>
      <point x="53" y="68"/>
    </contour>
    <contour>
      <point x="206" y="263" type="curve"/>
      <point x="337" y="569" type="line"/>
      <point x="346" y="547"/>
      <point x="356" y="526"/>
      <point x="365" y="504" type="curve"/>
      <point x="468" y="263" type="line"/>
      <point x="423" y="261"/>
      <point x="380" y="261"/>
      <point x="341" y="261" type="curve" smooth="yes"/>
      <point x="294" y="261"/>
      <point x="249" y="262"/>
    </contour>
  </outline>
</glyph>
<glyph name="B" format="2">
  <advance width="652"/>
  <unicode hex="0042"/>
  <outline>
    <contour>
      <point x="317" y="700" type="curve" smooth="yes"/>
      <point x="60" y="700" type="line"/>
      <point x="60" y="700"/>
      <point x="86" y="662"/>
      <point x="86" y="530" type="curve" smooth="yes"/>
      <point x="81" y="169" type="line" smooth="yes"/>
      <point x="81" y="38"/>
      <point x="55" y="0"/>
      <point x="55" y="0" type="curve"/>
      <point x="137" y="0" type="line" smooth="yes"/>
      <point x="217" y="0"/>
      <point x="264" y="-1"/>
      <point x="328" y="0" type="curve" smooth="yes"/>
      <point x="513" y="0"/>
      <point x="612" y="83"/>
      <point x="612" y="199" type="curve" smooth="yes"/>
      <point x="612" y="280"/>
      <point x="559" y="360"/>
      <point x="408" y="378" type="curve"/>
      <point x="484" y="395"/>
      <point x="558" y="438"/>
      <point x="558" y="542" type="curve" smooth="yes"/>
      <point x="558" y="640"/>
      <point x="466" y="700"/>
    </contour>
    <contour>
      <point x="169" y="530" type="line" smooth="yes"/>
      <point x="169" y="589"/>
      <point x="174" y="630"/>
      <point x="180" y="656" type="curve"/>
      <point x="209" y="661"/>
      <point x="244" y="663"/>
      <point x="284" y="663" type="curve" smooth="yes"/>
      <point x="384" y="663"/>
      <point x="462" y="600"/>
      <point x="462" y="533" type="curve" smooth="yes"/>
      <point x="462" y="434"/>
      <point x="392" y="391"/>
      <point x="294" y="391" type="curve" smooth="yes"/>
      <point x="258" y="391"/>
      <point x="212" y="393"/>
      <point x="170" y="401" type="curve"/>
    </contour>
    <contour>
      <point x="170" y="341" type="line"/>
      <point x="212" y="346"/>
      <point x="260" y="346"/>
      <point x="295" y="346" type="curve" smooth="yes"/>
      <point x="414" y="345"/>
      <point x="509" y="303"/>
      <point x="509" y="200" type="curve" smooth="yes"/>
      <point x="509" y="86"/>
      <point x="445" y="44"/>
      <point x="302" y="44" type="curve" smooth="yes"/>
      <point x="271" y="44"/>
      <point x="217" y="49"/>
      <point x="179" y="64" type="curve"/>
      <point x="175" y="90"/>
      <point x="171" y="124"/>
      <point x="171" y="169" type="curve" smooth="yes"/>
    </contour>
  </outline>
</glyph>
<glyph name="C" format="2">
  <advance width="687"/>
  <unicode hex="0043"/>
  <anchor x="393" y="0" name="bottom"/>
  <anchor x="402" y="700" name="top"/>
  <outline>
    <contour>
      <point x="667" y="182" type="curve"/>
      <point x="663" y="186" type="line"/>
      <point x="592" y="90"/>
      <point x="510" y="51"/>
      <point x="428" y="51" type="curve" smooth="yes"/>
      <point x="257" y="51"/>
      <point x="152" y="193"/>
      <point x="152" y="365" type="curve" smooth="yes"/>
      <point x="152" y="569"/>
      <point x="241" y="648"/>
      <point x="375" y="648" type="curve" smooth="yes"/>
      <point x="457" y="648"/>
      <point x="566" y="601"/>
      <point x="606" y="523" type="curve"/>
      <point x="613" y="525" type="line"/>
      <point x="623" y="660" type="line"/>
      <point x="564" y="691"/>
      <point x="504" y="712"/>
      <point x="418" y="712" type="curve" smooth="yes"/>
      <point x="239" y="712"/>
      <point x="50" y="575"/>
      <point x="50" y="325" type="curve" smooth="yes"/>
      <point x="50" y="124"/>
      <point x="203" y="-15"/>
      <point x="385" y="-15" type="curve" smooth="yes"/>
      <point x="564" y="-15"/>
      <point x="638" y="109"/>
    </contour>
  </outline>
</glyph>
<glyph name="D" format="2">
  <advance width="703"/>
  <unicode hex="0044"/>
  <anchor x="298" y="0" name="bottom"/>
  <anchor x="298" y="350" name="center"/>
  <anchor x="284" y="700" name="top"/>
  <outline>
    <contour>
      <point x="188" y="700" type="curve" smooth="yes"/>
      <point x="55" y="700" type="line"/>
      <point x="55" y="700"/>
      <point x="76" y="662"/>
      <point x="76" y="530" type="curve" smooth="yes"/>
      <point x="76" y="169" type="line" smooth="yes"/>
      <point x="76" y="38"/>
      <point x="55" y="0"/>
      <point x="55" y="0" type="curve"/>
      <point x="230" y="0" type="line" smooth="yes"/>
      <point x="530" y="0"/>
      <point x="653" y="167"/>
      <point x="653" y="365" type="curve" smooth="yes"/>
      <point x="653" y="579"/>
      <point x="492" y="699"/>
      <point x="278" y="701" type="curve" smooth="yes"/>
      <point x="233" y="700"/>
      <point x="207" y="700"/>
    </contour>
    <contour>
      <point x="167" y="169" type="curve" smooth="yes"/>
      <point x="167" y="530" type="line" smooth="yes"/>
      <point x="167" y="585"/>
      <point x="171" y="623"/>
      <point x="175" y="650" type="curve"/>
      <point x="212" y="656"/>
      <point x="252" y="655"/>
      <point x="278" y="654" type="curve" smooth="yes"/>
      <point x="417" y="652"/>
      <point x="546" y="555"/>
      <point x="546" y="333" type="curve" smooth="yes"/>
      <point x="546" y="132"/>
      <point x="417" y="50"/>
      <point x="298" y="50" type="curve" smooth="yes"/>
      <point x="250" y="50"/>
      <point x="210" y="55"/>
      <point x="172" y="68" type="curve"/>
      <point x="169" y="93"/>
      <point x="167" y="126"/>
    </contour>
  </outline>
</glyph>
<glyph name="E" format="2">
  <advance width="643"/>
  <unicode hex="0045"/>
  <anchor x="265" y="0" name="bottom"/>
  <anchor x="536" y="-3" name="ogonek"/>
  <anchor x="309" y="700" name="top"/>
  <anchor x="109" y="700" name="topleft"/>
  <anchor x="201" y="508" name="topright"/>
  <outline>
    <contour>
      <point x="55" y="0" type="curve"/>
      <point x="559" y="-4" type="line"/>
      <point x="603" y="131" type="line"/>
      <point x="596" y="135" type="line"/>
      <point x="513" y="47"/>
      <point x="292" y="48"/>
      <point x="173" y="50" type="curve"/>
      <point x="169" y="76"/>
      <point x="166" y="120"/>
      <point x="166" y="169" type="curve" smooth="yes"/>
      <point x="166" y="334" type="line"/>
      <point x="326" y="334" type="line" smooth="yes"/>
      <point x="389" y="334"/>
      <point x="450" y="334"/>
      <point x="511" y="324" type="curve"/>
      <point x="511" y="391" type="line"/>
      <point x="450" y="381"/>
      <point x="389" y="381"/>
      <point x="326" y="381" type="curve" smooth="yes"/>
      <point x="166" y="381" type="line"/>
      <point x="166" y="530" type="line" smooth="yes"/>
      <point x="166" y="587"/>
      <point x="170" y="627"/>
      <point x="174" y="653" type="curve"/>
      <point x="292" y="654"/>
      <point x="504" y="653"/>
      <point x="556" y="559" type="curve"/>
      <point x="563" y="563" type="line"/>
      <point x="529" y="703" type="line"/>
      <point x="55" y="700" type="line"/>
      <point x="55" y="700"/>
      <point x="76" y="662"/>
      <point x="76" y="530" type="curve" smooth="yes"/>
      <point x="76" y="169" type="line" smooth="yes"/>
      <point x="76" y="38"/>
      <point x="55" y="0"/>
    </contour>
  </outline>
</glyph>
<glyph name="F" format="2">
  <advance width="603"/>
  <unicode hex="0046"/>
  <outline>
    <contour>
      <point x="76" y="530" type="curve" smooth="yes"/>
      <point x="76" y="169" type="line" smooth="yes"/>
      <point x="76" y="38"/>
      <point x="55" y="0"/>
      <point x="55" y="0" type="curve"/>
      <point x="187" y="0" type="line"/>
      <point x="187" y="0"/>
      <point x="166" y="38"/>
      <point x="166" y="169" type="curve" smooth="yes"/>
      <point x="166" y="322" type="line"/>
      <point x="309" y="322" type="line" smooth="yes"/>
      <point x="372" y="322"/>
      <point x="433" y="322"/>
      <point x="494" y="312" type="curve"/>
      <point x="494" y="379" type="line"/>
      <point x="433" y="369"/>
      <point x="372" y="369"/>
      <point x="309" y="369" type="curve" smooth="yes"/>
      <point x="166" y="369" type="line"/>
      <point x="166" y="530" type="line" smooth="yes"/>
      <point x="166" y="587"/>
      <point x="170" y="627"/>
      <point x="174" y="653" type="curve"/>
      <point x="293" y="654"/>
      <point x="507" y="653"/>
      <point x="566" y="559" type="curve"/>
      <point x="573" y="563" type="line"/>
      <point x="529" y="703" type="line"/>
      <point x="55" y="700" type="line"/>
      <point x="55" y="700"/>
      <point x="76" y="662"/>
    </contour>
  </outline>
</glyph>
<glyph name="G" format="2">
  <advance width="752"/>
  <unicode hex="0047"/>
  <anchor x="365" y="0" name="bottom"/>
  <anchor x="401" y="700" name="top"/>
  <outline>
    <contour>
      <point x="385" y="-14" type="curve" smooth="yes"/>
      <point x="573" y="-14"/>
      <point x="643" y="103"/>
      <point x="678" y="134" type="curve"/>
      <point x="678" y="188"/>
      <point x="676" y="275"/>
      <point x="692" y="322" type="curve"/>
      <point x="569" y="322" type="line"/>
      <point x="595" y="277"/>
      <point x="595" y="206"/>
      <point x="595" y="110" type="curve"/>
      <point x="549" y="69"/>
      <point x="477" y="52"/>
      <point x="423" y="52" type="curve" smooth="yes"/>
      <point x="253" y="52"/>
      <point x="152" y="192"/>
      <point x="152" y="365" type="curve" smooth="yes"/>
      <point x="152" y="559"/>
      <point x="231" y="649"/>
      <point x="375" y="649" type="curve" smooth="yes"/>
      <point x="457" y="649"/>
      <point x="571" y="602"/>
      <point x="611" y="524" type="curve"/>
      <point x="618" y="526" type="line"/>
      <point x="628" y="660" type="line"/>
      <point x="569" y="692"/>
      <point x="504" y="713"/>
      <point x="418" y="713" type="curve" smooth="yes"/>
      <point x="229" y="713"/>
      <point x="50" y="565"/>
      <point x="50" y="325" type="curve" smooth="yes"/>
      <point x="50" y="124"/>
      <point x="203" y="-14"/>
    </contour>
  </outline>
</glyph>
<glyph name="H" format="2">
  <advance width="732"/>
  <unicode hex="0048"/>
  <outline>
    <contour>
      <point x="55" y="700" type="line"/>
      <point x="67" y="686"/>
      <point x="76" y="625"/>
      <point x="76" y="530" type="curve" smooth="yes"/>
      <point x="76" y="169" type="line" smooth="yes"/>
      <point x="76" y="38"/>
      <point x="55" y="0"/>
      <point x="55" y="0" type="curve"/>
      <point x="185" y="0" type="line"/>
      <point x="185" y="0"/>
      <point x="166" y="38"/>
      <point x="166" y="169" type="curve" smooth="yes"/>
      <point x="166" y="530" type="line" smooth="yes"/>
      <point x="166" y="662"/>
      <point x="185" y="700"/>
      <point x="185" y="700" type="curve"/>
    </contour>
    <contour>
      <point x="134" y="394" type="curve"/>
      <point x="134" y="334" type="line"/>
      <point x="208" y="341"/>
      <point x="282" y="342"/>
      <point x="346" y="342" type="curve" smooth="yes"/>
      <point x="437" y="342"/>
      <point x="517" y="340"/>
      <point x="598" y="334" type="curve"/>
      <point x="598" y="394" type="line"/>
      <point x="517" y="388"/>
      <point x="435" y="386"/>
      <point x="366" y="386" type="curve" smooth="yes"/>
      <point x="282" y="386"/>
      <point x="208" y="388"/>
    </contour>
    <contour>
      <point x="547" y="700" type="line"/>
      <point x="547" y="700"/>
      <point x="566" y="662"/>
      <point x="566" y="530" type="curve" smooth="yes"/>
      <point x="566" y="169" type="line" smooth="yes"/>
      <point x="566" y="38"/>
      <point x="547" y="0"/>
      <point x="547" y="0" type="curve"/>
      <point x="677" y="0" type="line"/>
      <point x="677" y="0"/>
      <point x="656" y="38"/>
      <point x="656" y="169" type="curve" smooth="yes"/>
      <point x="656" y="530" type="line" smooth="yes"/>
      <point x="656" y="662"/>
      <point x="677" y="700"/>
      <point x="677" y="700" type="curve"/>
    </contour>
  </outline>
</glyph>
<glyph name="I" format="2">
  <advance width="240"/>
  <unicode hex="0049"/>
  <anchor x="124" y="0" name="bottom"/>
  <anchor x="190" y="0" name="ogonek"/>
  <anchor x="123" y="700" name="top"/>
  <anchor x="34" y="700" name="topleft"/>
  <outline>
    <contour>
      <point x="55" y="700" type="line"/>
      <point x="55" y="700"/>
      <point x="76" y="662"/>
      <point x="76" y="530" type="curve" smooth="yes"/>
      <point x="76" y="169" type="line" smooth="yes"/>
      <point x="76" y="38"/>
      <point x="55" y="0"/>
      <point x="55" y="0" type="curve"/>
      <point x="185" y="0" type="line"/>
      <point x="185" y="0"/>
      <point x="164" y="38"/>
      <point x="164" y="169" type="curve" smooth="yes"/>
      <point x="164" y="530" type="line" smooth="yes"/>
      <point x="164" y="662"/>
      <point x="185" y="700"/>
      <point x="185" y="700" type="curve"/>
    </contour>
  </outline>
</glyph>
<glyph name="J" format="2">
  <advance width="244"/>
  <unicode hex="004A"/>
  <outline>
    <contour>
      <point x="59" y="700" type="curve"/>
      <point x="189" y="700" type="line"/>
      <point x="189" y="700"/>
      <point x="168" y="662"/>
      <point x="168" y="530" type="curve" smooth="yes"/>
      <point x="168" y="142" type="line" smooth="yes"/>
      <point x="168" y="-56"/>
      <point x="51" y="-102"/>
      <point x="-39" y="-118" type="curve"/>
      <point x="-40" y="-108" type="line"/>
      <point x="33" y="-94"/>
      <point x="80" y="-18"/>
      <point x="80" y="159" type="curve" smooth="yes"/>
      <point x="80" y="530" type="line" smooth="yes"/>
      <point x="80" y="662"/>
      <point x="59" y="700"/>
    </contour>
  </outline>
</glyph>
<glyph name="K" format="2">
  <advance width="675"/>
  <unicode hex="004B"/>
  <anchor x="267" y="0" name="bottom"/>
  <anchor x="263" y="700" name="top"/>
  <outline>
    <contour>
      <point x="55" y="700" type="line"/>
      <point x="55" y="700"/>
      <point x="76" y="662"/>
      <point x="76" y="530" type="curve" smooth="yes"/>
      <point x="76" y="169" type="line" smooth="yes"/>
      <point x="76" y="38"/>
      <point x="55" y="0"/>
      <point x="55" y="0" type="curve"/>
      <point x="187" y="0" type="line"/>
      <point x="187" y="0"/>
      <point x="166" y="38"/>
      <point x="166" y="169" type="curve" smooth="yes"/>
      <point x="166" y="271" type="line"/>
      <point x="253" y="360" type="line"/>
      <point x="385" y="175" type="line" smooth="yes"/>
      <point x="429" y="113"/>
      <point x="484" y="44"/>
      <point x="495" y="0" type="curve"/>
      <point x="646" y="0" type="line"/>
      <point x="599" y="44"/>
      <point x="571" y="74"/>
      <point x="543" y="113" type="curve" smooth="yes"/>
      <point x="319" y="421" type="line"/>
      <point x="486" y="592" type="line" smooth="yes"/>
      <point x="524" y="631"/>
      <point x="574" y="672"/>
      <point x="610" y="701" type="curve"/>
      <point x="503" y="700" type="line"/>
      <point x="493" y="678"/>
      <point x="465" y="644"/>
      <point x="443" y="622" type="curve" smooth="yes"/>
      <point x="166" y="347" type="line"/>
      <point x="166" y="530" type="line" smooth="yes"/>
      <point x="166" y="662"/>
      <point x="187" y="700"/>
      <point x="187" y="700" type="curve"/>
    </contour>
  </outline>
</glyph>
<glyph name="L" format="2">
  <advance width="576"/>
  <unicode hex="004C"/>
  <anchor x="265" y="0" name="bottom"/>
  <anchor x="117" y="700" name="top"/>
  <anchor x="261" y="468" name="topright"/>
  <outline>
    <contour>
      <point x="55" y="700" type="line"/>
      <point x="55" y="700"/>
      <point x="76" y="662"/>
      <point x="76" y="530" type="curve" smooth="yes"/>
      <point x="76" y="169" type="line" smooth="yes"/>
      <point x="76" y="38"/>
      <point x="55" y="0"/>
      <point x="55" y="0" type="curve"/>
      <point x="507" y="-4" type="line"/>
      <point x="551" y="136" type="line"/>
      <point x="544" y="140" type="line"/>
      <point x="461" y="52"/>
      <point x="272" y="53"/>
      <point x="173" y="55" type="curve"/>
      <point x="169" y="81"/>
      <point x="166" y="120"/>
      <point x="166" y="169" type="curve" smooth="yes"/>
      <point x="166" y="530" type="line" smooth="yes"/>
      <point x="166" y="662"/>
      <point x="187" y="700"/>
      <point x="187" y="700" type="curve"/>
    </contour>
  </outline>
</glyph>
<glyph name="M" format="2">
  <advance width="943"/>
  <unicode hex="004D"/>
  <outline>
    <contour>
      <point x="40" y="0" type="curve"/>
      <point x="128" y="0" type="line"/>
      <point x="123" y="36"/>
      <point x="128" y="103"/>
      <point x="133" y="139" type="curve" smooth="yes"/>
      <point x="197" y="597" type="line"/>
      <point x="447" y="1" type="line"/>
      <point x="476" y="1" type="line"/>
      <point x="695" y="611" type="line"/>
      <point x="698" y="598"/>
      <point x="701" y="583"/>
      <point x="704" y="564" type="curve" smooth="yes"/>
      <point x="771" y="138" type="line"/>
      <point x="776" y="90"/>
      <point x="779" y="31"/>
      <point x="776" y="0" type="curve"/>
      <point x="903" y="0" type="line"/>
      <point x="875" y="90"/>
      <point x="862" y="164"/>
      <point x="851" y="217" type="curve" smooth="yes"/>
      <point x="821" y="397" type="line" smooth="yes"/>
      <point x="801" y="538"/>
      <point x="778" y="649"/>
      <point x="784" y="702" type="curve"/>
      <point x="665" y="701" type="line"/>
      <point x="665" y="675"/>
      <point x="664" y="663"/>
      <point x="651" y="627" type="curve" smooth="yes"/>
      <point x="480" y="156" type="line"/>
      <point x="347" y="474" type="line" smooth="yes"/>
      <point x="316" y="549"/>
      <point x="285" y="622"/>
      <point x="264" y="700" type="curve"/>
      <point x="125" y="700" type="line"/>
      <point x="138" y="685"/>
      <point x="149" y="671"/>
      <point x="160" y="656" type="curve"/>
      <point x="80" y="161" type="line" smooth="yes"/>
      <point x="74" y="124"/>
      <point x="58" y="40"/>
    </contour>
  </outline>
</glyph>
<glyph name="N" format="2">
  <advance width="759"/>
  <unicode hex="004E"/>
  <anchor x="397" y="0" name="bottom"/>
  <anchor x="380" y="700" name="top"/>
  <outline>
    <contour>
      <point x="55" y="700" type="line"/>
      <point x="81" y="666" type="line"/>
      <point x="87" y="640"/>
      <point x="92" y="597"/>
      <point x="92" y="530" type="curve" smooth="yes"/>
      <point x="92" y="169" type="line" smooth="yes"/>
      <point x="92" y="38"/>
      <point x="71" y="0"/>
      <point x="71" y="0" type="curve"/>
      <point x="173" y="0" type="line"/>
      <point x="173" y="0"/>
      <point x="152" y="38"/>
      <point x="152" y="169" type="curve" smooth="yes"/>
      <point x="152" y="530" type="line" smooth="yes"/>
      <point x="152" y="546"/>
      <point x="152" y="560"/>
      <point x="153" y="573" type="curve"/>
      <point x="593" y="0" type="line"/>
      <point x="704" y="0" type="line"/>
      <point x="683" y="32" type="line"/>
      <point x="678" y="58"/>
      <point x="672" y="101"/>
      <point x="672" y="169" type="curve" smooth="yes"/>
      <point x="672" y="530" type="line" smooth="yes"/>
      <point x="672" y="662"/>
      <point x="693" y="700"/>
      <point x="693" y="700" type="curve"/>
      <point x="591" y="700" type="line"/>
      <point x="591" y="700"/>
      <point x="612" y="662"/>
      <point x="612" y="530" type="curve" smooth="yes"/>
      <point x="612" y="169" type="line" smooth="yes"/>
      <point x="612" y="153"/>
      <point x="612" y="139"/>
      <point x="611" y="126" type="curve"/>
      <point x="171" y="700" type="line"/>
    </contour>
  </outline>
</glyph>
<glyph name="O" format="2">
  <advance width="790"/>
  <unicode hex="004F"/>
  <anchor x="349" y="0" name="bottom"/>
  <anchor x="381" y="700" name="top"/>
  <outline>
    <contour>
      <point x="381" y="-12" type="curve" smooth="yes"/>
      <point x="582" y="-12"/>
      <point x="740" y="152"/>
      <point x="740" y="371" type="curve" smooth="yes"/>
      <point x="740" y="567"/>
      <point x="602" y="712"/>
      <point x="418" y="712" type="curve" smooth="yes"/>
      <point x="209" y="712"/>
      <point x="50" y="544"/>
      <point x="50" y="324" type="curve" smooth="yes"/>
      <point x="50" y="133"/>
      <point x="186" y="-12"/>
    </contour>
    <contour>
      <point x="415" y="52" type="curve" smooth="yes"/>
      <point x="256" y="52"/>
      <point x="149" y="189"/>
      <point x="149" y="373" type="curve" smooth="yes"/>
      <point x="149" y="540"/>
      <point x="240" y="650"/>
      <point x="377" y="650" type="curve" smooth="yes"/>
      <point x="533" y="650"/>
      <point x="641" y="516"/>
      <point x="641" y="322" type="curve" smooth="yes"/>
      <point x="641" y="159"/>
      <point x="551" y="52"/>
    </contour>
  </outline>
</glyph>
<glyph name="P" format="2">
  <advance width="609"/>
  <unicode hex="0050"/>
  <outline>
    <contour>
      <point x="201" y="700" type="line"/>
      <point x="60" y="700" type="line"/>
      <point x="60" y="700"/>
      <point x="88" y="662"/>
      <point x="86" y="530" type="curve" smooth="yes"/>
      <point x="81" y="169" type="line" smooth="yes"/>
      <point x="79" y="38"/>
      <point x="55" y="0"/>
      <point x="55" y="0" type="curve"/>
      <point x="207" y="0" type="line"/>
      <point x="207" y="0"/>
      <point x="178" y="38"/>
      <point x="177" y="169" type="curve" smooth="yes"/>
      <point x="176" y="317" type="line"/>
      <point x="217" y="313"/>
      <point x="258" y="313"/>
      <point x="294" y="313" type="curve" smooth="yes"/>
      <point x="395" y="313"/>
      <point x="564" y="360"/>
      <point x="564" y="512" type="curve" smooth="yes"/>
      <point x="564" y="640"/>
      <point x="472" y="700"/>
      <point x="323" y="700" type="curve" smooth="yes"/>
    </contour>
    <contour>
      <point x="175" y="530" type="line" smooth="yes"/>
      <point x="175" y="589"/>
      <point x="180" y="630"/>
      <point x="186" y="656" type="curve"/>
      <point x="215" y="661"/>
      <point x="250" y="663"/>
      <point x="290" y="663" type="curve" smooth="yes"/>
      <point x="390" y="663"/>
      <point x="468" y="600"/>
      <point x="468" y="503" type="curve" smooth="yes"/>
      <point x="468" y="394"/>
      <point x="388" y="359"/>
      <point x="290" y="359" type="curve" smooth="yes"/>
      <point x="238" y="359"/>
      <point x="212" y="363"/>
      <point x="176" y="371" type="curve"/>
    </contour>
  </outline>
</glyph>
<glyph name="Q" format="2">
  <advance width="790"/>
  <unicode hex="0051"/>
  <outline>
    <contour>
      <point x="381" y="-12" type="line" smooth="yes"/>
      <point x="582" y="-17"/>
      <point x="740" y="152"/>
      <point x="740" y="371" type="curve" smooth="yes"/>
      <point x="740" y="567"/>
      <point x="602" y="712"/>
      <point x="418" y="712" type="curve" smooth="yes"/>
      <point x="209" y="712"/>
      <point x="50" y="544"/>
      <point x="50" y="324" type="curve" smooth="yes"/>
      <point x="50" y="153"/>
      <point x="159" y="19"/>
      <point x="321" y="-7" type="curve"/>
      <point x="129" y="-176" type="line"/>
      <point x="139" y="-183" type="line"/>
      <point x="300" y="-131"/>
      <point x="459" y="-201"/>
      <point x="536" y="-201" type="curve" smooth="yes"/>
      <point x="583" y="-201"/>
      <point x="616" y="-193"/>
      <point x="696" y="-95" type="curve"/>
      <point x="689" y="-89" type="line"/>
      <point x="550" y="-193"/>
      <point x="415" y="-52"/>
      <point x="256" y="-102" type="curve"/>
      <point x="363" y="-12" type="line"/>
    </contour>
    <contour>
      <point x="151" y="373" type="curve" smooth="yes"/>
      <point x="151" y="540"/>
      <point x="240" y="648"/>
      <point x="377" y="648" type="curve" smooth="yes"/>
      <point x="533" y="648"/>
      <point x="639" y="516"/>
      <point x="639" y="322" type="curve" smooth="yes"/>
      <point x="639" y="159"/>
      <point x="551" y="54"/>
      <point x="415" y="54" type="curve" smooth="yes"/>
      <point x="256" y="54"/>
      <point x="151" y="189"/>
    </contour>
  </outline>
</glyph>
<glyph name="R" format="2">
  <advance width="667"/>
  <unicode hex="0052"/>
  <anchor x="345" y="0" name="bottom"/>
  <anchor x="278" y="710" name="top"/>
  <outline>
    <contour>
      <point x="323" y="700" type="curve" smooth="yes"/>
      <point x="60" y="700" type="line"/>
      <point x="60" y="700"/>
      <point x="88" y="662"/>
      <point x="86" y="530" type="curve" smooth="yes"/>
      <point x="81" y="169" type="line" smooth="yes"/>
      <point x="79" y="38"/>
      <point x="55" y="0"/>
      <point x="55" y="0" type="curve"/>
      <point x="207" y="0" type="line"/>
      <point x="207" y="0"/>
      <point x="178" y="38"/>
      <point x="177" y="169" type="curve" smooth="yes"/>
      <point x="176" y="326" type="line"/>
      <point x="216" y="322"/>
      <point x="255" y="322"/>
      <point x="290" y="322" type="curve"/>
      <point x="407" y="143" type="line" smooth="yes"/>
      <point x="436" y="98"/>
      <point x="484" y="20"/>
      <point x="485" y="0" type="curve"/>
      <point x="638" y="0" type="line"/>
      <point x="638" y="4" type="line"/>
      <point x="593" y="28"/>
      <point x="561" y="73"/>
      <point x="534" y="113" type="curve" smooth="yes"/>
      <point x="387" y="333" type="line"/>
      <point x="475" y="355"/>
      <point x="564" y="408"/>
      <point x="564" y="512" type="curve" smooth="yes"/>
      <point x="564" y="640"/>
      <point x="472" y="700"/>
    </contour>
    <contour>
      <point x="175" y="530" type="line" smooth="yes"/>
      <point x="175" y="589"/>
      <point x="180" y="630"/>
      <point x="186" y="656" type="curve"/>
      <point x="215" y="661"/>
      <point x="250" y="663"/>
      <point x="290" y="663" type="curve" smooth="yes"/>
      <point x="390" y="663"/>
      <point x="468" y="600"/>
      <point x="468" y="503" type="curve" smooth="yes"/>
      <point x="468" y="406"/>
      <point x="378" y="368"/>
      <point x="280" y="368" type="curve" smooth="yes"/>
      <point x="228" y="368"/>
      <point x="212" y="372"/>
      <point x="176" y="380" type="curve"/>
    </contour>
  </outline>
</glyph>
<glyph name="S" format="2">
  <advance width="646"/>
  <unicode hex="0053"/>
  <anchor x="337" y="0" name="bottom"/>
  <anchor x="323" y="700" name="top"/>
  <outline>
    <contour>
      <point x="74" y="515" type="curve" smooth="yes"/>
      <point x="74" y="440"/>
      <point x="137" y="373"/>
      <point x="270" y="331" type="curve" smooth="yes"/>
      <point x="365" y="301" type="line" smooth="yes"/>
      <point x="484" y="263"/>
      <point x="508" y="218"/>
      <point x="508" y="167" type="curve" smooth="yes"/>
      <point x="508" y="93"/>
      <point x="451" y="42"/>
      <point x="360" y="42" type="curve" smooth="yes"/>
      <point x="249" y="42"/>
      <point x="127" y="121"/>
      <point x="67" y="245" type="curve"/>
      <point x="60" y="244" type="line"/>
      <point x="90" y="61" type="line"/>
      <point x="165" y="19"/>
      <point x="250" y="-10"/>
      <point x="332" y="-10" type="curve" smooth="yes"/>
      <point x="471" y="-10"/>
      <point x="600" y="80"/>
      <point x="600" y="200" type="curve" smooth="yes"/>
      <point x="600" y="291"/>
      <point x="534" y="347"/>
      <point x="409" y="386" type="curve" smooth="yes"/>
      <point x="323" y="413" type="line" smooth="yes"/>
      <point x="212" y="448"/>
      <point x="155" y="494"/>
      <point x="155" y="549" type="curve" smooth="yes"/>
      <point x="155" y="603"/>
      <point x="189" y="660"/>
      <point x="295" y="660" type="curve" smooth="yes"/>
      <point x="345" y="660"/>
      <point x="465" y="633"/>
      <point x="548" y="499" type="curve"/>
      <point x="554" y="501" type="line"/>
      <point x="533" y="664" type="line"/>
      <point x="465" y="690"/>
      <point x="397" y="710"/>
      <point x="314" y="710" type="curve" smooth="yes"/>
      <point x="131" y="710"/>
      <point x="74" y="593"/>
    </contour>
  </outline>
</glyph>
<glyph name="T" format="2">
  <advance width="764"/>
  <unicode hex="0054"/>
  <anchor x="382" y="0" name="bottom"/>
  <anchor x="368" y="350" name="center"/>
  <anchor x="382" y="700" name="top"/>
  <outline>
    <contour>
      <point x="383" y="699" type="curve" smooth="yes"/>
      <point x="259" y="700"/>
      <point x="173" y="697"/>
      <point x="69" y="704" type="curve"/>
      <point x="45" y="564" type="line"/>
      <point x="51" y="562" type="line"/>
      <point x="88" y="634"/>
      <point x="205" y="651"/>
      <point x="328" y="656" type="curve"/>
      <point x="333" y="630"/>
      <point x="337" y="590"/>
      <point x="337" y="530" type="curve" smooth="yes"/>
      <point x="337" y="169" type="line" smooth="yes"/>
      <point x="337" y="38"/>
      <point x="316" y="0"/>
      <point x="316" y="0" type="curve"/>
      <point x="448" y="0" type="line"/>
      <point x="448" y="0"/>
      <point x="427" y="38"/>
      <point x="427" y="169" type="curve" smooth="yes"/>
      <point x="427" y="530" type="line" smooth="yes"/>
      <point x="427" y="590"/>
      <point x="431" y="630"/>
      <point x="436" y="656" type="curve"/>
      <point x="559" y="651"/>
      <point x="676" y="634"/>
      <point x="713" y="562" type="curve"/>
      <point x="719" y="564" type="line"/>
      <point x="695" y="704" type="line"/>
      <point x="591" y="697"/>
      <point x="507" y="700"/>
    </contour>
  </outline>
</glyph>
<glyph name="U" format="2">
  <advance width="728"/>
  <unicode hex="0055"/>
  <anchor x="385" y="0" name="bottom"/>
  <anchor x="579" y="55" name="ogonek"/>
  <anchor x="384" y="700" name="top"/>
  <anchor x="636" y="700" name="topright"/>
  <outline>
    <contour>
      <point x="76" y="530" type="curve" smooth="yes"/>
      <point x="76" y="287" type="line" smooth="yes"/>
      <point x="76" y="118"/>
      <point x="167" y="-15"/>
      <point x="357" y="-15" type="curve" smooth="yes"/>
      <point x="602" y="-15"/>
      <point x="657" y="146"/>
      <point x="657" y="293" type="curve" smooth="yes"/>
      <point x="657" y="530" type="line" smooth="yes"/>
      <point x="657" y="662"/>
      <point x="673" y="700"/>
      <point x="673" y="700" type="curve"/>
      <point x="581" y="700" type="line"/>
      <point x="581" y="700"/>
      <point x="597" y="662"/>
      <point x="597" y="530" type="curve" smooth="yes"/>
      <point x="597" y="288" type="line" smooth="yes"/>
      <point x="597" y="148"/>
      <point x="539" y="51"/>
      <point x="387" y="51" type="curve" smooth="yes"/>
      <point x="211" y="51"/>
      <point x="167" y="205"/>
      <point x="167" y="307" type="curve" smooth="yes"/>
      <point x="167" y="530" type="line" smooth="yes"/>
      <point x="167" y="660"/>
      <point x="188" y="684"/>
      <point x="188" y="700" type="curve"/>
      <point x="55" y="700" type="line"/>
      <point x="55" y="700"/>
      <point x="76" y="662"/>
    </contour>
  </outline>
</glyph>
<glyph name="V" format="2">
  <advance width="677"/>
  <unicode hex="0056"/>
  <outline>
    <contour>
      <point x="163" y="700" type="curve"/>
      <point x="20" y="700" type="line"/>
      <point x="72" y="619"/>
      <point x="142" y="456"/>
      <point x="142" y="456" type="curve"/>
      <point x="332" y="1" type="line"/>
      <point x="387" y="15" type="line"/>
      <point x="592" y="535" type="line" smooth="yes"/>
      <point x="616" y="595"/>
      <point x="631" y="640"/>
      <point x="667" y="700" type="curve"/>
      <point x="577" y="700" type="line"/>
      <point x="577" y="675"/>
      <point x="558" y="613"/>
      <point x="549" y="583" type="curve"/>
      <point x="376" y="129" type="line"/>
      <point x="201" y="552" type="line" smooth="yes"/>
      <point x="178" y="609"/>
      <point x="167" y="663"/>
    </contour>
  </outline>
</glyph>
<glyph name="W" format="2">
  <advance width="991"/>
  <unicode hex="0057"/>
  <outline>
    <contour>
      <point x="272" y="1" type="line"/>
      <point x="316" y="15" type="line"/>
      <point x="502" y="599" type="line"/>
      <point x="532" y="527"/>
      <point x="557" y="455"/>
      <point x="555" y="456" type="curve"/>
      <point x="710" y="1" type="line"/>
      <point x="754" y="15" type="line"/>
      <point x="920" y="535" type="line" smooth="yes"/>
      <point x="939" y="595"/>
      <point x="952" y="640"/>
      <point x="981" y="700" type="curve"/>
      <point x="900" y="700" type="line"/>
      <point x="900" y="675"/>
      <point x="885" y="613"/>
      <point x="878" y="583" type="curve"/>
      <point x="748" y="172" type="line"/>
      <point x="620" y="552" type="line" smooth="yes"/>
      <point x="601" y="609"/>
      <point x="593" y="663"/>
      <point x="589" y="700" type="curve"/>
      <point x="455" y="700" type="line"/>
      <point x="458" y="661"/>
      <point x="452" y="622"/>
      <point x="440" y="583" type="curve" smooth="yes"/>
      <point x="310" y="172" type="line"/>
      <point x="182" y="552" type="line" smooth="yes"/>
      <point x="163" y="609"/>
      <point x="155" y="663"/>
      <point x="151" y="700" type="curve"/>
      <point x="20" y="700" type="line"/>
      <point x="62" y="619"/>
      <point x="119" y="456"/>
      <point x="119" y="456" type="curve"/>
    </contour>
  </outline>
</glyph>
<glyph name="X" format="2">
  <advance width="673"/>
  <unicode hex="0058"/>
  <outline>
    <contour>
      <point x="157" y="700" type="curve"/>
      <point x="22" y="700" type="line"/>
      <point x="55" y="667"/>
      <point x="106" y="601"/>
      <point x="122" y="578" type="curve" smooth="yes"/>
      <point x="284" y="353" type="line"/>
      <point x="90" y="96" type="line" smooth="yes"/>
      <point x="66" y="64"/>
      <point x="35" y="28"/>
      <point x="5" y="0" type="curve"/>
      <point x="116" y="0" type="line"/>
      <point x="116" y="23"/>
      <point x="133" y="62"/>
      <point x="172" y="114" type="curve" smooth="yes"/>
      <point x="318" y="308" type="line"/>
      <point x="461" y="112" type="line" smooth="yes"/>
      <point x="481" y="84"/>
      <point x="516" y="35"/>
      <point x="519" y="0" type="curve"/>
      <point x="668" y="0" type="line"/>
      <point x="625" y="44"/>
      <point x="582" y="95"/>
      <point x="550" y="139" type="curve" smooth="yes"/>
      <point x="382" y="368" type="line"/>
      <point x="546" y="579" type="line" smooth="yes"/>
      <point x="580" y="623"/>
      <point x="615" y="667"/>
      <point x="650" y="700" type="curve"/>
      <point x="550" y="700" type="line"/>
      <point x="542" y="677"/>
      <point x="523" y="639"/>
      <point x="484" y="588" type="curve" smooth="yes"/>
      <point x="349" y="413" type="line"/>
      <point x="228" y="581" type="line" smooth="yes"/>
      <point x="194" y="628"/>
      <point x="164" y="669"/>
    </contour>
  </outline>
</glyph>
<glyph name="Y" format="2">
  <advance width="624"/>
  <unicode hex="0059"/>
  <anchor x="459" y="0" name="bottom"/>
  <anchor x="327" y="700" name="top"/>
  <anchor x="93" y="700" name="topleft"/>
  <outline>
    <contour>
      <point x="5" y="701" type="line"/>
      <point x="44" y="664"/>
      <point x="99" y="589"/>
      <point x="112" y="567" type="curve" smooth="yes"/>
      <point x="273" y="304" type="line"/>
      <point x="273" y="98" type="line" smooth="yes"/>
      <point x="273" y="22"/>
      <point x="252" y="0"/>
      <point x="252" y="0" type="curve"/>
      <point x="385" y="0" type="line"/>
      <point x="385" y="0"/>
      <point x="364" y="22"/>
      <point x="364" y="98" type="curve" smooth="yes"/>
      <point x="364" y="308" type="line"/>
      <point x="507" y="550" type="line" smooth="yes"/>
      <point x="531" y="590"/>
      <point x="572" y="651"/>
      <point x="619" y="701" type="curve"/>
      <point x="520" y="701" type="line"/>
      <point x="510" y="664"/>
      <point x="495" y="627"/>
      <point x="461" y="570" type="curve" smooth="yes"/>
      <point x="338" y="362" type="line"/>
      <point x="198" y="592" type="line" smooth="yes"/>
      <point x="183" y="617"/>
      <point x="157" y="662"/>
      <point x="150" y="701" type="curve"/>
    </contour>
  </outline>
</glyph>
<glyph name="Z" format="2">
  <advance width="652"/>
  <unicode hex="005A"/>
  <anchor x="349" y="0" name="bottom"/>
  <anchor x="331" y="350" name="center"/>
  <anchor x="350" y="700" name="top"/>
  <outline>
    <contour>
      <point x="30" y="1" type="line"/>
      <point x="598" y="-3" type="line"/>
      <point x="622" y="128" type="line"/>
      <point x="617" y="131" type="line"/>
      <point x="559" y="46"/>
      <point x="333" y="40"/>
      <point x="175" y="43" type="curve"/>
      <point x="208" y="100"/>
      <point x="243" y="157"/>
      <point x="284" y="216" type="curve" smooth="yes"/>
      <point x="622" y="700" type="line"/>
      <point x="90" y="703" type="line"/>
      <point x="65" y="568" type="line"/>
      <point x="71" y="565" type="line"/>
      <point x="128" y="655"/>
      <point x="326" y="659"/>
      <point x="481" y="658" type="curve"/>
      <point x="457" y="615"/>
      <point x="425" y="573"/>
      <point x="394" y="529" type="curve" smooth="yes"/>
    </contour>
  </outline>
</glyph>
<glyph name="bracketleft" format="2">
  <advance width="387"/>
  <unicode hex="005B"/>
  <outline>
    <contour>
      <point x="214" y="744" type="curve"/>
      <point x="122" y="744" type="line"/>
      <point x="122" y="744"/>
      <point x="125" y="721"/>
      <point x="125" y="582" type="curve"/>
      <point x="125" y="-44" type="line"/>
      <point x="125" y="-181"/>
      <point x="120" y="-213"/>
      <point x="120" y="-213" type="curve"/>
      <point x="214" y="-213" type="line"/>
      <point x="214" y="-213"/>
      <point x="214" y="-181"/>
      <point x="214" y="-44" type="curve"/>
      <point x="214" y="583" type="line"/>
      <point x="214" y="721"/>
      <point x="214" y="744"/>
    </contour>
    <contour>
      <point x="172" y="710" type="line"/>
      <point x="236" y="710"/>
      <point x="318" y="710"/>
      <point x="378" y="705" type="curve"/>
      <point x="378" y="747" type="line"/>
      <point x="317" y="744"/>
      <point x="235" y="744"/>
      <point x="172" y="744" type="curve"/>
      <point x="123" y="744" type="line"/>
      <point x="125" y="710" type="line"/>
    </contour>
    <contour>
      <point x="172" y="-213" type="line"/>
      <point x="235" y="-213"/>
      <point x="317" y="-213"/>
      <point x="378" y="-216" type="curve"/>
      <point x="378" y="-174" type="line"/>
      <point x="318" y="-179"/>
      <point x="236" y="-179"/>
      <point x="172" y="-179" type="curve"/>
      <point x="125" y="-179" type="line"/>
      <point x="122" y="-213" type="line"/>
    </contour>
  </outline>
</glyph>
<glyph name="backslash" format="2">
  <advance width="422"/>
  <unicode hex="005C"/>
  <outline>
    <contour>
      <point x="354" y="-224" type="qcurve"/>
      <point x="422" y="-224" type="line"/>
      <point x="412" y="-204"/>
      <point x="395" y="-163"/>
      <point x="384" y="-133" type="qcurve" smooth="yes"/>
      <point x="191" y="393"/>
      <point x="288" y="130"/>
      <point x="95" y="656" type="curve" smooth="yes"/>
      <point x="84" y="686"/>
      <point x="72" y="724"/>
      <point x="69" y="744" type="qcurve"/>
      <point x="0" y="744" type="line"/>
      <point x="10" y="724"/>
      <point x="26" y="686"/>
      <point x="37" y="656" type="qcurve" smooth="yes"/>
      <point x="326" y="-133" type="line" smooth="yes"/>
      <point x="337" y="-163"/>
      <point x="350" y="-204"/>
    </contour>
  </outline>
</glyph>
<glyph name="asciicircum" format="2">
  <advance width="398"/>
  <unicode hex="005E"/>
  <outline>
    <contour>
      <point x="302" y="503" type="line"/>
      <point x="257" y="503" type="line"/>
      <point x="186" y="654" type="line"/>
      <point x="116" y="503" type="line"/>
      <point x="71" y="503" type="line"/>
      <point x="163" y="700" type="line"/>
      <point x="209" y="700" type="line"/>
    </contour>
  </outline>
</glyph>
<glyph name="underscore" format="2">
  <advance width="512"/>
  <unicode hex="005F"/>
  <outline>
    <contour>
      <point x="40" y="-30" type="line"/>
      <point x="40" y="-76" type="line"/>
      <point x="472" y="-76" type="line"/>
      <point x="472" y="-30" type="line"/>
    </contour>
  </outline>
</glyph>
<glyph name="a" format="2">
  <advance width="547"/>
  <unicode hex="0061"/>
  <anchor x="239" y="0" name="bottom"/>
  <anchor x="444" y="10" name="ogonek"/>
  <anchor x="268" y="508" name="top"/>
  <outline>
    <contour>
      <point x="497" y="32" type="line"/>
      <point x="497" y="34" type="line"/>
      <point x="489" y="38"/>
      <point x="470" y="58"/>
      <point x="470" y="159" type="curve" smooth="yes"/>
      <point x="470" y="346" type="line" smooth="yes"/>
      <point x="470" y="455"/>
      <point x="389" y="520"/>
      <point x="277" y="520" type="curve" smooth="yes"/>
      <point x="191" y="520"/>
      <point x="142" y="500"/>
      <point x="81" y="458" type="curve"/>
      <point x="99" y="343" type="line"/>
      <point x="101" y="343" type="line"/>
      <point x="127" y="410"/>
      <point x="194" y="461"/>
      <point x="261" y="461" type="curve" smooth="yes"/>
      <point x="347" y="461"/>
      <point x="389" y="424"/>
      <point x="389" y="331" type="curve" smooth="yes"/>
      <point x="389" y="281" type="line"/>
      <point x="337" y="288"/>
      <point x="283" y="289"/>
      <point x="234" y="284" type="curve" smooth="yes"/>
      <point x="126" y="272"/>
      <point x="40" y="225"/>
      <point x="40" y="126" type="curve" smooth="yes"/>
      <point x="40" y="37"/>
      <point x="102" y="-12"/>
      <point x="187" y="-12" type="curve" smooth="yes"/>
      <point x="271" y="-12"/>
      <point x="338" y="36"/>
      <point x="388" y="110" type="curve"/>
      <point x="387" y="0"/>
      <point x="386" y="-10"/>
      <point x="386" y="-10" type="curve"/>
    </contour>
    <contour>
      <point x="123" y="150" type="curve" smooth="yes"/>
      <point x="123" y="198"/>
      <point x="163" y="265"/>
      <point x="389" y="254" type="curve"/>
      <point x="389" y="155" type="line"/>
      <point x="343" y="96"/>
      <point x="294" y="59"/>
      <point x="224" y="59" type="curve" smooth="yes"/>
      <point x="159" y="59"/>
      <point x="123" y="91"/>
    </contour>
  </outline>
</glyph>
<glyph name="b" format="2">
  <advance width="567"/>
  <unicode hex="0062"/>
  <outline>
    <contour>
      <point x="53" y="-9" type="line"/>
      <point x="115" y="15" type="line"/>
      <point x="148" y="0"/>
      <point x="195" y="-12"/>
      <point x="245" y="-12" type="curve" smooth="yes"/>
      <point x="413" y="-12"/>
      <point x="527" y="121"/>
      <point x="527" y="284" type="curve" smooth="yes"/>
      <point x="527" y="423"/>
      <point x="434" y="520"/>
      <point x="323" y="520" type="curve" smooth="yes"/>
      <point x="260" y="520"/>
      <point x="198" y="489"/>
      <point x="152" y="447" type="curve"/>
      <point x="152" y="744" type="line"/>
      <point x="45" y="684" type="line"/>
      <point x="56" y="671"/>
      <point x="70" y="643"/>
      <point x="70" y="571" type="curve" smooth="yes"/>
      <point x="70" y="222" type="line" smooth="yes"/>
      <point x="70" y="99"/>
      <point x="67" y="34"/>
      <point x="51" y="-8" type="curve"/>
      <point x="51" y="-8"/>
      <point x="50" y="-9"/>
      <point x="50" y="-10" type="curve"/>
    </contour>
    <contour>
      <point x="152" y="88" type="curve"/>
      <point x="152" y="403" type="line"/>
      <point x="187" y="432"/>
      <point x="231" y="452"/>
      <point x="278" y="452" type="curve" smooth="yes"/>
      <point x="379" y="452"/>
      <point x="436" y="364"/>
      <point x="436" y="234" type="curve" smooth="yes"/>
      <point x="436" y="107"/>
      <point x="372" y="36"/>
      <point x="277" y="36" type="curve" smooth="yes"/>
      <point x="233" y="36"/>
      <point x="186" y="52"/>
    </contour>
  </outline>
</glyph>
<glyph name="c" format="2">
  <advance width="527"/>
  <unicode hex="0063"/>
  <anchor x="282" y="0" name="bottom"/>
  <anchor x="271" y="508" name="top"/>
  <outline>
    <contour>
      <point x="450" y="337" type="curve"/>
      <point x="453" y="337" type="line"/>
      <point x="479" y="451" type="line"/>
      <point x="427" y="501"/>
      <point x="374" y="520"/>
      <point x="288" y="520" type="curve" smooth="yes"/>
      <point x="146" y="520"/>
      <point x="40" y="391"/>
      <point x="40" y="248" type="curve" smooth="yes"/>
      <point x="40" y="88"/>
      <point x="142" y="-12"/>
      <point x="291" y="-12" type="curve" smooth="yes"/>
      <point x="359" y="-12"/>
      <point x="438" y="12"/>
      <point x="492" y="125" type="curve"/>
      <point x="489" y="127" type="line"/>
      <point x="435" y="70"/>
      <point x="387" y="49"/>
      <point x="326" y="49" type="curve" smooth="yes"/>
      <point x="194" y="49"/>
      <point x="132" y="150"/>
      <point x="132" y="278" type="curve" smooth="yes"/>
      <point x="132" y="415"/>
      <point x="209" y="470"/>
      <point x="286" y="470" type="curve" smooth="yes"/>
      <point x="353" y="470"/>
      <point x="408" y="439"/>
    </contour>
  </outline>
</glyph>
<glyph name="d" format="2">
  <advance width="568"/>
  <unicode hex="0064"/>
  <anchor x="555" y="488" name="topright"/>
  <outline>
    <contour>
      <point x="499" y="756" type="line"/>
      <point x="391" y="703" type="line"/>
      <point x="407" y="678"/>
      <point x="417" y="651"/>
      <point x="417" y="590" type="curve" smooth="yes"/>
      <point x="417" y="499" type="line"/>
      <point x="382" y="514"/>
      <point x="340" y="520"/>
      <point x="303" y="520" type="curve" smooth="yes"/>
      <point x="174" y="520"/>
      <point x="40" y="407"/>
      <point x="40" y="244" type="curve" smooth="yes"/>
      <point x="40" y="87"/>
      <point x="134" y="-12"/>
      <point x="248" y="-12" type="curve" smooth="yes"/>
      <point x="319" y="-12"/>
      <point x="376" y="21"/>
      <point x="416" y="62" type="curve"/>
      <point x="416" y="-18" type="line"/>
      <point x="523" y="42" type="line"/>
      <point x="519" y="50"/>
      <point x="497" y="89"/>
      <point x="497" y="161" type="curve" smooth="yes"/>
    </contour>
    <contour>
      <point x="128" y="264" type="curve" smooth="yes"/>
      <point x="128" y="400"/>
      <point x="199" y="472"/>
      <point x="283" y="472" type="curve" smooth="yes"/>
      <point x="324" y="472"/>
      <point x="379" y="457"/>
      <point x="417" y="419" type="curve"/>
      <point x="416" y="107" type="line"/>
      <point x="385" y="77"/>
      <point x="341" y="56"/>
      <point x="283" y="56" type="curve" smooth="yes"/>
      <point x="199" y="56"/>
      <point x="128" y="134"/>
    </contour>
  </outline>
</glyph>
<glyph name="e" format="2">
  <advance width="538"/>
  <unicode hex="0065"/>
  <anchor x="265" y="0" name="bottom"/>
  <anchor x="414" y="20" name="ogonek"/>
  <anchor x="281" y="508" name="top"/>
  <outline>
    <contour>
      <point x="276" y="470" type="curve" smooth="yes"/>
      <point x="335" y="470"/>
      <point x="394" y="437"/>
      <point x="407" y="318" type="curve"/>
      <point x="132" y="304" type="line"/>
      <point x="138" y="416"/>
      <point x="189" y="470"/>
    </contour>
    <contour>
      <point x="40" y="248" type="curve" smooth="yes"/>
      <point x="40" y="90"/>
      <point x="142" y="-12"/>
      <point x="291" y="-12" type="curve" smooth="yes"/>
      <point x="364" y="-12"/>
      <point x="449" y="12"/>
      <point x="503" y="125" type="curve"/>
      <point x="500" y="127" type="line"/>
      <point x="446" y="70"/>
      <point x="387" y="49"/>
      <point x="326" y="49" type="curve" smooth="yes"/>
      <point x="199" y="49"/>
      <point x="137" y="142"/>
      <point x="132" y="265" type="curve"/>
      <point x="502" y="265" type="line"/>
      <point x="502" y="434"/>
      <point x="416" y="520"/>
      <point x="288" y="520" type="curve" smooth="yes"/>
      <point x="155" y="520"/>
      <point x="40" y="407"/>
    </contour>
  </outline>
</glyph>
<glyph name="f" format="2">
  <advance width="348"/>
  <unicode hex="0066"/>
  <outline>
    <contour>
      <point x="20" y="493" type="line"/>
      <point x="20" y="462" type="line"/>
      <point x="89" y="460" type="line"/>
      <point x="89" y="231" type="line" smooth="yes"/>
      <point x="89" y="57"/>
      <point x="81" y="25"/>
      <point x="74" y="0" type="curve"/>
      <point x="188" y="0" type="line"/>
      <point x="183" y="25"/>
      <point x="173" y="51"/>
      <point x="173" y="231" type="curve" smooth="yes"/>
      <point x="173" y="456" type="line"/>
      <point x="325" y="451" type="line"/>
      <point x="332" y="512" type="line"/>
      <point x="173" y="502" type="line"/>
      <point x="173" y="580" type="line" smooth="yes"/>
      <point x="173" y="647"/>
      <point x="203" y="675"/>
      <point x="252" y="675" type="curve" smooth="yes"/>
      <point x="283" y="675"/>
      <point x="332" y="665"/>
      <point x="377" y="615" type="curve"/>
      <point x="381" y="617" type="line"/>
      <point x="362" y="713" type="line"/>
      <point x="319" y="721"/>
      <point x="290" y="722"/>
      <point x="262" y="722" type="curve" smooth="yes"/>
      <point x="159" y="722"/>
      <point x="89" y="659"/>
      <point x="89" y="556" type="curve" smooth="yes"/>
      <point x="89" y="497" type="line"/>
    </contour>
  </outline>
</glyph>
<glyph name="g" format="2">
  <advance width="571"/>
  <unicode hex="0067"/>
  <anchor x="301" y="-231" name="bottom"/>
  <anchor x="270" y="506" name="top"/>
  <outline>
    <contour>
      <point x="269" y="153" type="curve"/>
      <point x="409" y="153"/>
      <point x="488" y="232"/>
      <point x="488" y="339" type="curve" smooth="yes"/>
      <point x="488" y="431"/>
      <point x="407" y="520"/>
      <point x="286" y="520" type="curve" smooth="yes"/>
      <point x="146" y="520"/>
      <point x="65" y="436"/>
      <point x="65" y="332" type="curve" smooth="yes"/>
      <point x="65" y="243"/>
      <point x="144" y="153"/>
    </contour>
    <contour>
      <point x="294" y="196" type="curve" smooth="yes"/>
      <point x="207" y="196"/>
      <point x="150" y="265"/>
      <point x="150" y="348" type="curve" smooth="yes"/>
      <point x="150" y="437"/>
      <point x="198" y="482"/>
      <point x="269" y="482" type="curve" smooth="yes"/>
      <point x="340" y="482"/>
      <point x="403" y="419"/>
      <point x="403" y="321" type="curve" smooth="yes"/>
      <point x="403" y="234"/>
      <point x="359" y="196"/>
    </contour>
    <contour>
      <point x="342" y="489" type="line"/>
      <point x="351" y="452" type="line"/>
      <point x="540" y="445" type="line"/>
      <point x="551" y="502" type="line"/>
    </contour>
    <contour>
      <point x="40" y="-110" type="curve" smooth="yes"/>
      <point x="40" y="-204"/>
      <point x="137" y="-258"/>
      <point x="286" y="-258" type="curve" smooth="yes"/>
      <point x="436" y="-258"/>
      <point x="550" y="-165"/>
      <point x="550" y="-73" type="curve" smooth="yes"/>
      <point x="550" y="12"/>
      <point x="496" y="59"/>
      <point x="393" y="67" type="curve" smooth="yes"/>
      <point x="278" y="76" type="line" smooth="yes"/>
      <point x="212" y="81"/>
      <point x="201" y="87"/>
      <point x="177" y="100" type="curve"/>
      <point x="289" y="183" type="line"/>
      <point x="247" y="188" type="line"/>
      <point x="79" y="73" type="line"/>
      <point x="100" y="45"/>
      <point x="122" y="29"/>
      <point x="162" y="17" type="curve"/>
      <point x="103" y="4"/>
      <point x="40" y="-48"/>
    </contour>
    <contour>
      <point x="120" y="-90" type="curve" smooth="yes"/>
      <point x="120" y="-31"/>
      <point x="159" y="-4"/>
      <point x="199" y="12" type="curve"/>
      <point x="211" y="12"/>
      <point x="224" y="8"/>
      <point x="240" y="7" type="curve" smooth="yes"/>
      <point x="366" y="-1" type="line" smooth="yes"/>
      <point x="426" y="-5"/>
      <point x="471" y="-31"/>
      <point x="471" y="-90" type="curve" smooth="yes"/>
      <point x="471" y="-158"/>
      <point x="409" y="-218"/>
      <point x="300" y="-218" type="curve" smooth="yes"/>
      <point x="179" y="-218"/>
      <point x="120" y="-158"/>
    </contour>
  </outline>
</glyph>
<glyph name="h" format="2">
  <advance width="576"/>
  <unicode hex="0068"/>
  <outline>
    <contour>
      <point x="430" y="231" type="line" smooth="yes"/>
      <point x="430" y="51"/>
      <point x="420" y="25"/>
      <point x="415" y="0" type="curve"/>
      <point x="526" y="0" type="line"/>
      <point x="519" y="25"/>
      <point x="511" y="57"/>
      <point x="511" y="231" type="curve" smooth="yes"/>
      <point x="511" y="299" type="line" smooth="yes"/>
      <point x="511" y="471"/>
      <point x="435" y="520"/>
      <point x="348" y="520" type="curve" smooth="yes"/>
      <point x="263" y="520"/>
      <point x="194" y="466"/>
      <point x="151" y="405" type="curve"/>
      <point x="152" y="756" type="line"/>
      <point x="45" y="696" type="line"/>
      <point x="48" y="694"/>
      <point x="71" y="655"/>
      <point x="71" y="583" type="curve" smooth="yes"/>
      <point x="70" y="231" type="line" smooth="yes"/>
      <point x="68" y="57"/>
      <point x="62" y="25"/>
      <point x="55" y="0" type="curve"/>
      <point x="166" y="0" type="line"/>
      <point x="161" y="25"/>
      <point x="151" y="51"/>
      <point x="151" y="231" type="curve" smooth="yes"/>
      <point x="151" y="357" type="line"/>
      <point x="189" y="413"/>
      <point x="250" y="447"/>
      <point x="313" y="446" type="curve" smooth="yes"/>
      <point x="391" y="445"/>
      <point x="430" y="394"/>
      <point x="430" y="292" type="curve" smooth="yes"/>
    </contour>
  </outline>
</glyph>
<glyph name="k" format="2">
  <advance width="579"/>
  <unicode hex="006B"/>
  <anchor x="252" y="0" name="bottom"/>
  <outline>
    <component base="l"/>
    <contour>
      <point x="524" y="505" type="curve"/>
      <point x="524" y="508" type="line"/>
      <point x="410" y="508" type="line"/>
      <point x="399" y="488"/>
      <point x="384" y="470"/>
      <point x="363" y="449" type="curve"/>
      <point x="136" y="246" type="line"/>
      <point x="140" y="183" type="line"/>
      <point x="396" y="410" type="line"/>
      <point x="396" y="410"/>
      <point x="481" y="485"/>
    </contour>
    <contour>
      <point x="561" y="0" type="line"/>
      <point x="561" y="3" type="line"/>
      <point x="511" y="40"/>
      <point x="482" y="73"/>
      <point x="452" y="117" type="curve" smooth="yes"/>
      <point x="296" y="347" type="line"/>
      <point x="237" y="289" type="line"/>
      <point x="378" y="80" type="line" smooth="yes"/>
      <point x="403" y="43"/>
      <point x="412" y="23"/>
      <point x="420" y="-1" type="curve"/>
    </contour>
  </outline>
</glyph>
<glyph name="l" format="2">
  <advance width="211"/>
  <unicode hex="006C"/>
  <anchor x="106" y="0" name="bottom"/>
  <anchor x="182" y="10" name="ogonek"/>
  <anchor x="118" y="716" name="top"/>
  <anchor x="207" y="508" name="topright"/>
  <outline>
    <contour>
      <point x="55" y="0" type="curve"/>
      <point x="166" y="0" type="line"/>
      <point x="161" y="25"/>
      <point x="151" y="51"/>
      <point x="151" y="231" type="curve" smooth="yes"/>
      <point x="152" y="745" type="line"/>
      <point x="45" y="685" type="line"/>
      <point x="48" y="683"/>
      <point x="71" y="644"/>
      <point x="71" y="572" type="curve" smooth="yes"/>
      <point x="70" y="231" type="line" smooth="yes"/>
      <point x="69" y="57"/>
      <point x="62" y="25"/>
    </contour>
  </outline>
</glyph>
<glyph name="m" format="2">
  <advance width="916"/>
  <unicode hex="006D"/>
  <outline>
    <contour>
      <point x="55" y="0" type="curve"/>
      <point x="166" y="0" type="line"/>
      <point x="161" y="25"/>
      <point x="150" y="51"/>
      <point x="151" y="231" type="curve" smooth="yes"/>
      <point x="151" y="363" type="line"/>
      <point x="190" y="413"/>
      <point x="247" y="447"/>
      <point x="303" y="446" type="curve" smooth="yes"/>
      <point x="381" y="445"/>
      <point x="420" y="407"/>
      <point x="420" y="292" type="curve" smooth="yes"/>
      <point x="420" y="231" type="line" smooth="yes"/>
      <point x="420" y="51"/>
      <point x="410" y="25"/>
      <point x="405" y="0" type="curve"/>
      <point x="516" y="0" type="line"/>
      <point x="509" y="25"/>
      <point x="501" y="57"/>
      <point x="501" y="231" type="curve" smooth="yes"/>
      <point x="501" y="299" type="line" smooth="yes"/>
      <point x="501" y="321"/>
      <point x="500" y="340"/>
      <point x="498" y="359" type="curve"/>
      <point x="536" y="411"/>
      <point x="595" y="447"/>
      <point x="653" y="446" type="curve" smooth="yes"/>
      <point x="731" y="445"/>
      <point x="770" y="407"/>
      <point x="770" y="292" type="curve" smooth="yes"/>
      <point x="770" y="231" type="line" smooth="yes"/>
      <point x="770" y="51"/>
      <point x="760" y="25"/>
      <point x="755" y="0" type="curve"/>
      <point x="866" y="0" type="line"/>
      <point x="859" y="25"/>
      <point x="851" y="57"/>
      <point x="851" y="231" type="curve" smooth="yes"/>
      <point x="851" y="299" type="line" smooth="yes"/>
      <point x="851" y="460"/>
      <point x="792" y="520"/>
      <point x="679" y="520" type="curve" smooth="yes"/>
      <point x="601" y="520"/>
      <point x="532" y="464"/>
      <point x="490" y="403" type="curve"/>
      <point x="467" y="487"/>
      <point x="413" y="520"/>
      <point x="329" y="520" type="curve" smooth="yes"/>
      <point x="258" y="520"/>
      <point x="194" y="474"/>
      <point x="152" y="419" type="curve"/>
      <point x="152" y="521" type="line"/>
      <point x="45" y="461" type="line"/>
      <point x="48" y="459"/>
      <point x="72" y="414"/>
      <point x="71" y="342" type="curve" smooth="yes"/>
      <point x="70" y="231" type="line" smooth="yes"/>
      <point x="68" y="57"/>
      <point x="62" y="25"/>
    </contour>
  </outline>
</glyph>
<glyph name="n" format="2">
  <advance width="576"/>
  <unicode hex="006E"/>
  <anchor x="288" y="0" name="bottom"/>
  <anchor x="291" y="508" name="top"/>
  <outline>
    <contour>
      <point x="55" y="0" type="curve"/>
      <point x="166" y="0" type="line"/>
      <point x="161" y="25"/>
      <point x="151" y="51"/>
      <point x="151" y="231" type="curve" smooth="yes"/>
      <point x="151" y="349" type="line"/>
      <point x="189" y="407"/>
      <point x="252" y="448"/>
      <point x="313" y="447" type="curve" smooth="yes"/>
      <point x="391" y="446"/>
      <point x="430" y="407"/>
      <point x="430" y="292" type="curve" smooth="yes"/>
      <point x="430" y="231" type="line" smooth="yes"/>
      <point x="430" y="51"/>
      <point x="420" y="25"/>
      <point x="415" y="0" type="curve"/>
      <point x="526" y="0" type="line"/>
      <point x="519" y="25"/>
      <point x="511" y="57"/>
      <point x="511" y="231" type="curve" smooth="yes"/>
      <point x="511" y="299" type="line" smooth="yes"/>
      <point x="511" y="460"/>
      <point x="452" y="521"/>
      <point x="339" y="521" type="curve" smooth="yes"/>
      <point x="262" y="521"/>
      <point x="194" y="466"/>
      <point x="152" y="406" type="curve"/>
      <point x="152" y="520" type="line"/>
      <point x="45" y="460" type="line"/>
      <point x="48" y="458"/>
      <point x="72" y="414"/>
      <point x="71" y="342" type="curve" smooth="yes"/>
      <point x="70" y="231" type="line" smooth="yes"/>
      <point x="68" y="57"/>
      <point x="62" y="25"/>
    </contour>
  </outline>
</glyph>
<glyph name="o" format="2">
  <advance width="588"/>
  <unicode hex="006F"/>
  <anchor x="281" y="508" name="top"/>
  <outline>
    <contour>
      <point x="280" y="-11" type="curve" smooth="yes"/>
      <point x="432" y="-11"/>
      <point x="548" y="112"/>
      <point x="548" y="274" type="curve" smooth="yes"/>
      <point x="548" y="421"/>
      <point x="456" y="519"/>
      <point x="310" y="519" type="curve" smooth="yes"/>
      <point x="159" y="519"/>
      <point x="40" y="395"/>
      <point x="40" y="234" type="curve" smooth="yes"/>
      <point x="40" y="96"/>
      <point x="140" y="-11"/>
    </contour>
    <contour>
      <point x="313" y="39" type="curve" smooth="yes"/>
      <point x="209" y="39"/>
      <point x="128" y="143"/>
      <point x="128" y="277" type="curve" smooth="yes"/>
      <point x="128" y="393"/>
      <point x="187" y="468"/>
      <point x="278" y="468" type="curve" smooth="yes"/>
      <point x="384" y="468"/>
      <point x="458" y="370"/>
      <point x="458" y="229" type="curve" smooth="yes"/>
      <point x="458" y="113"/>
      <point x="401" y="39"/>
    </contour>
  </outline>
</glyph>
<glyph name="p" format="2">
  <advance width="568"/>
  <unicode hex="0070"/>
  <outline>
    <contour>
      <point x="56" y="-256" type="curve"/>
      <point x="167" y="-256" type="line"/>
      <point x="162" y="-230"/>
      <point x="152" y="-204"/>
      <point x="152" y="-25" type="curve" smooth="yes"/>
      <point x="152" y="3" type="line"/>
      <point x="179" y="-6"/>
      <point x="212" y="-12"/>
      <point x="246" y="-12" type="curve" smooth="yes"/>
      <point x="414" y="-12"/>
      <point x="528" y="121"/>
      <point x="528" y="284" type="curve" smooth="yes"/>
      <point x="528" y="423"/>
      <point x="435" y="520"/>
      <point x="324" y="520" type="curve" smooth="yes"/>
      <point x="260" y="520"/>
      <point x="199" y="488"/>
      <point x="152" y="446" type="curve"/>
      <point x="152" y="520" type="line"/>
      <point x="45" y="460" type="line"/>
      <point x="56" y="447"/>
      <point x="70" y="419"/>
      <point x="70" y="347" type="curve" smooth="yes"/>
      <point x="70" y="-25" type="line" smooth="yes"/>
      <point x="70" y="-199"/>
      <point x="63" y="-231"/>
    </contour>
    <contour>
      <point x="152" y="89" type="curve"/>
      <point x="152" y="402" type="line"/>
      <point x="187" y="432"/>
      <point x="231" y="452"/>
      <point x="279" y="452" type="curve" smooth="yes"/>
      <point x="380" y="452"/>
      <point x="437" y="364"/>
      <point x="437" y="234" type="curve" smooth="yes"/>
      <point x="437" y="107"/>
      <point x="373" y="36"/>
      <point x="278" y="36" type="curve" smooth="yes"/>
      <point x="234" y="36"/>
      <point x="186" y="52"/>
    </contour>
  </outline>
</glyph>
<glyph name="q" format="2">
  <advance width="568"/>
  <unicode hex="0071"/>
  <outline>
    <contour>
      <point x="518" y="519" type="curve"/>
      <point x="516" y="520" type="line"/>
      <point x="437" y="489" type="line"/>
      <point x="400" y="512"/>
      <point x="348" y="520"/>
      <point x="303" y="520" type="curve" smooth="yes"/>
      <point x="174" y="520"/>
      <point x="40" y="407"/>
      <point x="40" y="244" type="curve" smooth="yes"/>
      <point x="40" y="87"/>
      <point x="134" y="-12"/>
      <point x="248" y="-12" type="curve" smooth="yes"/>
      <point x="320" y="-12"/>
      <point x="377" y="22"/>
      <point x="417" y="63" type="curve"/>
      <point x="417" y="-25" type="line" smooth="yes"/>
      <point x="417" y="-199"/>
      <point x="410" y="-231"/>
      <point x="403" y="-256" type="curve"/>
      <point x="514" y="-256" type="line"/>
      <point x="509" y="-230"/>
      <point x="499" y="-204"/>
      <point x="499" y="-25" type="curve" smooth="yes"/>
      <point x="499" y="289" type="line" smooth="yes"/>
      <point x="499" y="412"/>
      <point x="502" y="477"/>
    </contour>
    <contour>
      <point x="128" y="264" type="curve" smooth="yes"/>
      <point x="128" y="400"/>
      <point x="200" y="472"/>
      <point x="283" y="472" type="curve" smooth="yes"/>
      <point x="324" y="472"/>
      <point x="380" y="457"/>
      <point x="417" y="419" type="curve"/>
      <point x="417" y="108" type="line"/>
      <point x="386" y="77"/>
      <point x="342" y="56"/>
      <point x="283" y="56" type="curve" smooth="yes"/>
      <point x="199" y="56"/>
      <point x="128" y="134"/>
    </contour>
  </outline>
</glyph>
<glyph name="r" format="2">
  <advance width="390"/>
  <unicode hex="0072"/>
  <anchor x="115" y="0" name="bottom"/>
  <anchor x="193" y="508" name="top"/>
  <outline>
    <contour>
      <point x="55" y="0" type="curve"/>
      <point x="166" y="0" type="line"/>
      <point x="161" y="25"/>
      <point x="151" y="51"/>
      <point x="151" y="231" type="curve" smooth="yes"/>
      <point x="151" y="333" type="line"/>
      <point x="188" y="404"/>
      <point x="256" y="431"/>
      <point x="295" y="436" type="curve" smooth="yes"/>
      <point x="333" y="440"/>
      <point x="349" y="439"/>
      <point x="376" y="432" type="curve"/>
      <point x="362" y="519" type="line"/>
      <point x="354" y="520"/>
      <point x="346" y="520"/>
      <point x="339" y="520" type="curve" smooth="yes"/>
      <point x="273" y="520"/>
      <point x="193" y="465"/>
      <point x="152" y="390" type="curve"/>
      <point x="152" y="520" type="line"/>
      <point x="45" y="460" type="line"/>
      <point x="48" y="458"/>
      <point x="72" y="414"/>
      <point x="71" y="342" type="curve" smooth="yes"/>
      <point x="70" y="231" type="line" smooth="yes"/>
      <point x="68" y="57"/>
      <point x="62" y="25"/>
    </contour>
  </outline>
</glyph>
<glyph name="s" format="2">
  <advance width="489"/>
  <unicode hex="0073"/>
  <anchor x="253" y="0" name="bottom"/>
  <anchor x="236" y="508" name="top"/>
  <outline>
    <contour>
      <point x="232" y="-12" type="curve" smooth="yes"/>
      <point x="362" y="-12"/>
      <point x="448" y="64"/>
      <point x="448" y="152" type="curve" smooth="yes"/>
      <point x="448" y="229"/>
      <point x="383" y="273"/>
      <point x="296" y="296" type="curve" smooth="yes"/>
      <point x="228" y="314" type="line" smooth="yes"/>
      <point x="141" y="337"/>
      <point x="121" y="359"/>
      <point x="121" y="396" type="curve" smooth="yes"/>
      <point x="121" y="434"/>
      <point x="148" y="476"/>
      <point x="225" y="476" type="curve" smooth="yes"/>
      <point x="280" y="476"/>
      <point x="350" y="435"/>
      <point x="397" y="375" type="curve"/>
      <point x="402" y="375" type="line"/>
      <point x="391" y="486" type="line"/>
      <point x="351" y="508"/>
      <point x="298" y="520"/>
      <point x="245" y="520" type="curve" smooth="yes"/>
      <point x="122" y="520"/>
      <point x="47" y="446"/>
      <point x="47" y="375" type="curve" smooth="yes"/>
      <point x="47" y="299"/>
      <point x="93" y="264"/>
      <point x="205" y="235" type="curve" smooth="yes"/>
      <point x="264" y="220" type="line" smooth="yes"/>
      <point x="339" y="201"/>
      <point x="373" y="172"/>
      <point x="373" y="132" type="curve" smooth="yes"/>
      <point x="373" y="79"/>
      <point x="334" y="42"/>
      <point x="262" y="42" type="curve" smooth="yes"/>
      <point x="165" y="42"/>
      <point x="81" y="100"/>
      <point x="37" y="172" type="curve"/>
      <point x="32" y="171" type="line"/>
      <point x="54" y="35" type="line"/>
      <point x="85" y="20"/>
      <point x="161" y="-12"/>
    </contour>
  </outline>
</glyph>
<glyph name="t" format="2">
  <advance width="424"/>
  <unicode hex="0074"/>
  <anchor x="234" y="0" name="bottom"/>
  <anchor x="106" y="254" name="center"/>
  <anchor x="237" y="508" name="topright"/>
  <outline>
    <contour>
      <point x="10" y="492" type="curve"/>
      <point x="10" y="463" type="line"/>
      <point x="96" y="460" type="line"/>
      <point x="96" y="155" type="line" smooth="yes"/>
      <point x="96" y="51"/>
      <point x="152" y="-12"/>
      <point x="241" y="-12" type="curve" smooth="yes"/>
      <point x="358" y="-12"/>
      <point x="396" y="74"/>
      <point x="414" y="115" type="curve"/>
      <point x="411" y="116" type="line"/>
      <point x="391" y="94"/>
      <point x="349" y="48"/>
      <point x="285" y="48" type="curve" smooth="yes"/>
      <point x="206" y="48"/>
      <point x="177" y="95"/>
      <point x="177" y="205" type="curve" smooth="yes"/>
      <point x="177" y="457" type="line"/>
      <point x="363" y="450" type="line"/>
      <point x="372" y="514" type="line"/>
      <point x="177" y="502" type="line"/>
      <point x="177" y="632" type="line"/>
      <point x="172" y="632" type="line"/>
      <point x="139" y="556"/>
      <point x="80" y="498"/>
    </contour>
  </outline>
</glyph>
<glyph name="u" format="2">
  <advance width="572"/>
  <unicode hex="0075"/>
  <anchor x="459" y="11" name="ogonek"/>
  <anchor x="291" y="508" name="top"/>
  <anchor x="493" y="508" name="topright"/>
  <outline>
    <contour>
      <point x="503" y="520" type="line"/>
      <point x="395" y="467" type="line"/>
      <point x="411" y="442"/>
      <point x="421" y="415"/>
      <point x="421" y="354" type="curve" smooth="yes"/>
      <point x="420" y="132" type="line"/>
      <point x="383" y="89"/>
      <point x="330" y="61"/>
      <point x="272" y="62" type="curve" smooth="yes"/>
      <point x="193" y="63"/>
      <point x="152" y="110"/>
      <point x="152" y="206" type="curve" smooth="yes"/>
      <point x="153" y="520" type="line"/>
      <point x="45" y="467" type="line"/>
      <point x="61" y="442"/>
      <point x="71" y="415"/>
      <point x="71" y="354" type="curve" smooth="yes"/>
      <point x="71" y="199" type="line" smooth="yes"/>
      <point x="71" y="34"/>
      <point x="145" y="-12"/>
      <point x="237" y="-12" type="curve" smooth="yes"/>
      <point x="311" y="-12"/>
      <point x="376" y="28"/>
      <point x="420" y="92" type="curve"/>
      <point x="420" y="-12" type="line"/>
      <point x="527" y="48" type="line"/>
      <point x="523" y="56"/>
      <point x="501" y="89"/>
      <point x="501" y="161" type="curve" smooth="yes"/>
    </contour>
  </outline>
</glyph>
<glyph name="v" format="2">
  <advance width="519"/>
  <unicode hex="0076"/>
  <outline>
    <contour>
      <point x="284" y="-2" type="line"/>
      <point x="448" y="376" type="line" smooth="yes"/>
      <point x="467" y="420"/>
      <point x="486" y="464"/>
      <point x="509" y="508" type="curve"/>
      <point x="421" y="508" type="line"/>
      <point x="416" y="462"/>
      <point x="413" y="435"/>
      <point x="392" y="375" type="curve"/>
      <point x="282" y="112" type="line"/>
      <point x="158" y="404" type="line"/>
      <point x="139" y="455"/>
      <point x="134" y="485"/>
      <point x="132" y="508" type="curve"/>
      <point x="10" y="508" type="line"/>
      <point x="29" y="473"/>
      <point x="48" y="437"/>
      <point x="64" y="402" type="curve" smooth="yes"/>
      <point x="246" y="-7" type="line"/>
    </contour>
  </outline>
</glyph>
<glyph name="w" format="2">
  <advance width="771"/>
  <unicode hex="0077"/>
  <outline>
    <contour>
      <point x="521" y="-4" type="line"/>
      <point x="559" y="-2" type="line"/>
      <point x="700" y="376" type="line" smooth="yes"/>
      <point x="716" y="420"/>
      <point x="738" y="464"/>
      <point x="761" y="508" type="curve"/>
      <point x="673" y="508" type="line"/>
      <point x="668" y="462"/>
      <point x="664" y="435"/>
      <point x="644" y="375" type="curve" smooth="yes"/>
      <point x="557" y="112" type="line"/>
      <point x="460" y="404" type="line" smooth="yes"/>
      <point x="444" y="452"/>
      <point x="440" y="479"/>
      <point x="441" y="508" type="curve"/>
      <point x="322" y="508" type="line"/>
      <point x="333" y="486"/>
      <point x="343" y="463"/>
      <point x="351" y="441" type="curve"/>
      <point x="347" y="423"/>
      <point x="341" y="402"/>
      <point x="332" y="375" type="curve" smooth="yes"/>
      <point x="245" y="112" type="line"/>
      <point x="148" y="404" type="line" smooth="yes"/>
      <point x="131" y="455"/>
      <point x="131" y="482"/>
      <point x="132" y="508" type="curve"/>
      <point x="10" y="508" type="line"/>
      <point x="28" y="473"/>
      <point x="41" y="437"/>
      <point x="54" y="402" type="curve" smooth="yes"/>
      <point x="209" y="-4" type="line"/>
      <point x="247" y="-2" type="line"/>
      <point x="382" y="360" type="line"/>
    </contour>
  </outline>
</glyph>
<glyph name="x" format="2">
  <advance width="602"/>
  <unicode hex="0078"/>
  <outline>
    <contour>
      <point x="185" y="508" type="curve"/>
      <point x="54" y="508" type="line"/>
      <point x="89" y="475"/>
      <point x="138" y="411"/>
      <point x="154" y="390" type="curve" smooth="yes"/>
      <point x="252" y="259" type="line"/>
      <point x="124" y="92" type="line" smooth="yes"/>
      <point x="99" y="60"/>
      <point x="75" y="28"/>
      <point x="45" y="0" type="curve"/>
      <point x="147" y="0" type="line"/>
      <point x="147" y="23"/>
      <point x="165" y="62"/>
      <point x="204" y="114" type="curve" smooth="yes"/>
      <point x="282" y="218" type="line"/>
      <point x="360" y="112" type="line" smooth="yes"/>
      <point x="380" y="84"/>
      <point x="416" y="35"/>
      <point x="419" y="0" type="curve"/>
      <point x="557" y="0" type="line"/>
      <point x="514" y="44"/>
      <point x="481" y="88"/>
      <point x="448" y="132" type="curve" smooth="yes"/>
      <point x="341" y="275" type="line"/>
      <point x="433" y="390" type="line" smooth="yes"/>
      <point x="468" y="434"/>
      <point x="500" y="475"/>
      <point x="535" y="508" type="curve"/>
      <point x="440" y="508" type="line"/>
      <point x="432" y="485"/>
      <point x="413" y="447"/>
      <point x="374" y="396" type="curve" smooth="yes"/>
      <point x="312" y="316" type="line"/>
      <point x="258" y="386" type="line" smooth="yes"/>
      <point x="224" y="431"/>
      <point x="194" y="477"/>
    </contour>
  </outline>
</glyph>
<glyph name="y" format="2">
  <advance width="519"/>
  <unicode hex="0079"/>
  <anchor x="226" y="0" name="bottom"/>
  <anchor x="281" y="508" name="top"/>
  <outline>
    <contour>
      <point x="294" y="-2" type="curve"/>
      <point x="448" y="376" type="line" smooth="yes"/>
      <point x="466" y="420"/>
      <point x="486" y="464"/>
      <point x="509" y="508" type="curve"/>
      <point x="421" y="508" type="line"/>
      <point x="416" y="462"/>
      <point x="415" y="434"/>
      <point x="392" y="375" type="curve" smooth="yes"/>
      <point x="292" y="112" type="line"/>
      <point x="158" y="404" type="line"/>
      <point x="139" y="455"/>
      <point x="134" y="485"/>
      <point x="132" y="508" type="curve"/>
      <point x="10" y="508" type="line"/>
      <point x="29" y="473"/>
      <point x="48" y="437"/>
      <point x="64" y="402" type="curve" smooth="yes"/>
      <point x="249" y="9" type="line"/>
      <point x="232" y="-29" type="line" smooth="yes"/>
      <point x="215" y="-67"/>
      <point x="186" y="-118"/>
      <point x="133" y="-118" type="curve" smooth="yes"/>
      <point x="101" y="-118"/>
      <point x="72" y="-107"/>
      <point x="53" y="-94" type="curve"/>
      <point x="76" y="-184" type="line"/>
      <point x="90" y="-193"/>
      <point x="111" y="-199"/>
      <point x="133" y="-199" type="curve" smooth="yes"/>
      <point x="181" y="-199"/>
      <point x="222" y="-161"/>
    </contour>
  </outline>
</glyph>
<glyph name="z" format="2">
  <advance width="551"/>
  <unicode hex="007A"/>
  <anchor x="277" y="0" name="bottom"/>
  <anchor x="277" y="254" name="center"/>
  <anchor x="277" y="508" name="top"/>
  <outline>
    <contour>
      <point x="85" y="509" type="line"/>
      <point x="73" y="425" type="line"/>
      <point x="156" y="460"/>
      <point x="230" y="470"/>
      <point x="324" y="470" type="curve" smooth="yes"/>
      <point x="385" y="470" type="line"/>
      <point x="372" y="451"/>
      <point x="356" y="432"/>
      <point x="334" y="403" type="curve"/>
      <point x="31" y="4" type="line"/>
      <point x="30" y="0" type="line"/>
      <point x="167" y="0" type="line"/>
      <point x="496" y="-3" type="line"/>
      <point x="511" y="81" type="line"/>
      <point x="509" y="82" type="line"/>
      <point x="455" y="67"/>
      <point x="387" y="47"/>
      <point x="240" y="42" type="curve" smooth="yes"/>
      <point x="153" y="39" type="line"/>
      <point x="170" y="61"/>
      <point x="193" y="93"/>
      <point x="227" y="138" type="curve" smooth="yes"/>
      <point x="506" y="508" type="line"/>
      <point x="394" y="508" type="line"/>
    </contour>
  </outline>
</glyph>
<glyph name="braceleft" format="2">
  <advance width="348"/>
  <unicode hex="007B"/>
  <outline>
    <contour>
      <point x="132" y="566" type="curve" smooth="yes"/>
      <point x="132" y="496"/>
      <point x="164" y="438"/>
      <point x="164" y="394" type="curve" smooth="yes"/>
      <point x="164" y="330"/>
      <point x="131" y="303"/>
      <point x="45" y="280" type="curve"/>
      <point x="45" y="260" type="line"/>
      <point x="108" y="260" type="line"/>
      <point x="152" y="274"/>
      <point x="251" y="324"/>
      <point x="251" y="403" type="curve" smooth="yes"/>
      <point x="251" y="467"/>
      <point x="222" y="513"/>
      <point x="222" y="603" type="curve" smooth="yes"/>
      <point x="222" y="672"/>
      <point x="239" y="710"/>
      <point x="349" y="710" type="curve"/>
      <point x="347" y="744" type="line"/>
      <point x="208" y="744"/>
      <point x="132" y="671"/>
    </contour>
    <contour>
      <point x="132" y="-46" type="curve" smooth="yes"/>
      <point x="132" y="-151"/>
      <point x="208" y="-224"/>
      <point x="347" y="-224" type="curve"/>
      <point x="349" y="-188" type="line"/>
      <point x="239" y="-188"/>
      <point x="222" y="-152"/>
      <point x="222" y="-83" type="curve" smooth="yes"/>
      <point x="222" y="7"/>
      <point x="251" y="53"/>
      <point x="251" y="117" type="curve" smooth="yes"/>
      <point x="251" y="196"/>
      <point x="152" y="246"/>
      <point x="108" y="260" type="curve"/>
      <point x="45" y="260" type="line"/>
      <point x="45" y="240" type="line"/>
      <point x="131" y="217"/>
      <point x="164" y="190"/>
      <point x="164" y="126" type="curve" smooth="yes"/>
      <point x="164" y="82"/>
      <point x="132" y="24"/>
    </contour>
  </outline>
</glyph>
<glyph name="asciitilde" format="2">
  <advance width="600"/>
  <unicode hex="007E"/>
  <outline>
    <contour>
      <point x="100" y="219" type="curve"/>
      <point x="102" y="213" type="line"/>
      <point x="112" y="239"/>
      <point x="143" y="257"/>
      <point x="183" y="257" type="curve" smooth="yes"/>
      <point x="242" y="257"/>
      <point x="318" y="213"/>
      <point x="389" y="213" type="curve" smooth="yes"/>
      <point x="447" y="213"/>
      <point x="486" y="244"/>
      <point x="496" y="309" type="curve"/>
      <point x="494" y="315" type="line"/>
      <point x="484" y="289"/>
      <point x="453" y="271"/>
      <point x="419" y="271" type="curve" smooth="yes"/>
      <point x="337" y="271"/>
      <point x="278" y="315"/>
      <point x="205" y="315" type="curve" smooth="yes"/>
      <point x="145" y="315"/>
      <point x="110" y="274"/>
    </contour>
  </outline>
</glyph>
<glyph name="sterling" format="2">
  <advance width="592"/>
  <unicode hex="00A3"/>
  <outline>
    <contour>
      <point x="171" y="305" type="line"/>
      <point x="192" y="206"/>
      <point x="154" y="131"/>
      <point x="51" y="13" type="curve" smooth="yes"/>
      <point x="40" y="0" type="line"/>
      <point x="507" y="-4" type="line"/>
      <point x="551" y="139" type="line"/>
      <point x="544" y="143" type="line"/>
      <point x="462" y="54"/>
      <point x="261" y="51"/>
      <point x="141" y="54" type="curve"/>
      <point x="183" y="102"/>
      <point x="298" y="192"/>
      <point x="267" y="338" type="curve" smooth="yes"/>
      <point x="265" y="349" type="line"/>
      <point x="453" y="349" type="line"/>
      <point x="453" y="395" type="line"/>
      <point x="254" y="395" type="line"/>
      <point x="241" y="446"/>
      <point x="231" y="481"/>
      <point x="231" y="555" type="curve" smooth="yes"/>
      <point x="231" y="626"/>
      <point x="290" y="676"/>
      <point x="362" y="676" type="curve" smooth="yes"/>
      <point x="403" y="676"/>
      <point x="478" y="666"/>
      <point x="523" y="509" type="curve"/>
      <point x="552" y="649" type="line"/>
      <point x="490" y="706"/>
      <point x="428" y="720"/>
      <point x="352" y="720" type="curve" smooth="yes"/>
      <point x="214" y="720"/>
      <point x="132" y="616"/>
      <point x="132" y="528" type="curve" smooth="yes"/>
      <point x="132" y="477"/>
      <point x="136" y="439"/>
      <point x="146" y="395" type="curve"/>
      <point x="61" y="395" type="line"/>
      <point x="61" y="349" type="line"/>
      <point x="158" y="349" type="line"/>
    </contour>
  </outline>
</glyph>
<glyph name="currency" format="2">
  <advance width="600"/>
  <unicode hex="00A4"/>
  <outline>
    <contour>
      <point x="300" y="84" type="curve" smooth="yes"/>
      <point x="381" y="84"/>
      <point x="478" y="167"/>
      <point x="478" y="268" type="curve" smooth="yes"/>
      <point x="478" y="389"/>
      <point x="400" y="448"/>
      <point x="300" y="448" type="curve" smooth="yes"/>
      <point x="214" y="448"/>
      <point x="117" y="367"/>
      <point x="117" y="268" type="curve" smooth="yes"/>
      <point x="117" y="146"/>
      <point x="197" y="84"/>
    </contour>
    <contour>
      <point x="322" y="143" type="curve" smooth="yes"/>
      <point x="241" y="143"/>
      <point x="181" y="202"/>
      <point x="181" y="285" type="curve" smooth="yes"/>
      <point x="181" y="348"/>
      <point x="209" y="392"/>
      <point x="277" y="392" type="curve" smooth="yes"/>
      <point x="355" y="392"/>
      <point x="414" y="329"/>
      <point x="414" y="249" type="curve" smooth="yes"/>
      <point x="414" y="184"/>
      <point x="388" y="143"/>
    </contour>
    <contour>
      <point x="391" y="394" type="line"/>
      <point x="426" y="365" type="line"/>
      <point x="489" y="428" type="line"/>
      <point x="457" y="460" type="line"/>
    </contour>
    <contour>
      <point x="175" y="362" type="line"/>
      <point x="205" y="396" type="line"/>
      <point x="141" y="460" type="line"/>
      <point x="109" y="428" type="line"/>
    </contour>
    <contour>
      <point x="421" y="180" type="line"/>
      <point x="396" y="141" type="line"/>
      <point x="457" y="80" type="line"/>
      <point x="489" y="112" type="line"/>
    </contour>
    <contour>
      <point x="207" y="146" type="line"/>
      <point x="171" y="174" type="line"/>
      <point x="109" y="112" type="line"/>
      <point x="141" y="80" type="line"/>
    </contour>
  </outline>
</glyph>
<glyph name="yen" format="2">
  <advance width="624"/>
  <unicode hex="00A5"/>
  <outline>
    <component base="Y"/>
    <contour>
      <point x="536" y="330" type="line"/>
      <point x="76" y="330" type="line"/>
      <point x="76" y="284" type="line"/>
      <point x="536" y="284" type="line"/>
    </contour>
    <contour>
      <point x="536" y="205" type="line"/>
      <point x="76" y="205" type="line"/>
      <point x="76" y="159" type="line"/>
      <point x="536" y="159" type="line"/>
    </contour>
  </outline>
</glyph>
<glyph name="brokenbar" format="2">
  <advance width="247"/>
  <unicode hex="00A6"/>
  <outline>
    <contour>
      <point x="157" y="310" type="line"/>
      <point x="156" y="324"/>
      <point x="154" y="373"/>
      <point x="153" y="425"/>
      <point x="153" y="474"/>
      <point x="153" y="519" type="qcurve" smooth="yes"/>
      <point x="153" y="531" type="line" smooth="yes"/>
      <point x="153" y="586"/>
      <point x="153" y="635"/>
      <point x="154" y="687"/>
      <point x="156" y="736"/>
      <point x="157" y="750" type="qcurve"/>
      <point x="90" y="750" type="line"/>
      <point x="91" y="736"/>
      <point x="93" y="687"/>
      <point x="95" y="635"/>
      <point x="95" y="586"/>
      <point x="95" y="531" type="qcurve" smooth="yes"/>
      <point x="95" y="519" type="line" smooth="yes"/>
      <point x="95" y="474"/>
      <point x="95" y="425"/>
      <point x="93" y="373"/>
      <point x="91" y="324"/>
      <point x="90" y="310" type="qcurve"/>
    </contour>
    <contour>
      <point x="157" y="-230" type="line"/>
      <point x="156" y="-216"/>
      <point x="154" y="-167"/>
      <point x="153" y="-115"/>
      <point x="153" y="-66"/>
      <point x="153" y="-21" type="qcurve" smooth="yes"/>
      <point x="153" y="-9" type="line" smooth="yes"/>
      <point x="153" y="46"/>
      <point x="153" y="95"/>
      <point x="154" y="147"/>
      <point x="156" y="196"/>
      <point x="157" y="210" type="qcurve"/>
      <point x="90" y="210" type="line"/>
      <point x="91" y="196"/>
      <point x="93" y="147"/>
      <point x="95" y="95"/>
      <point x="95" y="46"/>
      <point x="95" y="-9" type="qcurve" smooth="yes"/>
      <point x="95" y="-21" type="line" smooth="yes"/>
      <point x="95" y="-66"/>
      <point x="95" y="-115"/>
      <point x="93" y="-167"/>
      <point x="91" y="-216"/>
      <point x="90" y="-230" type="qcurve"/>
    </contour>
  </outline>
</glyph>
<glyph name="section" format="2">
  <advance width="605"/>
  <unicode hex="00A7"/>
  <outline>
    <contour>
      <point x="82" y="534" type="curve" smooth="yes"/>
      <point x="82" y="485"/>
      <point x="112" y="438"/>
      <point x="176" y="401" type="curve"/>
      <point x="117" y="363"/>
      <point x="82" y="305"/>
      <point x="82" y="234" type="curve" smooth="yes"/>
      <point x="82" y="157"/>
      <point x="138" y="94"/>
      <point x="258" y="56" type="curve" smooth="yes"/>
      <point x="344" y="29" type="line" smooth="yes"/>
      <point x="451" y="-5"/>
      <point x="473" y="-43"/>
      <point x="473" y="-89" type="curve" smooth="yes"/>
      <point x="473" y="-156"/>
      <point x="421" y="-202"/>
      <point x="339" y="-202" type="curve" smooth="yes"/>
      <point x="239" y="-202"/>
      <point x="120" y="-131"/>
      <point x="62" y="-18" type="curve"/>
      <point x="60" y="-20" type="line"/>
      <point x="87" y="-187" type="line"/>
      <point x="155" y="-225"/>
      <point x="240" y="-249"/>
      <point x="314" y="-249" type="curve" smooth="yes"/>
      <point x="439" y="-249"/>
      <point x="559" y="-167"/>
      <point x="559" y="-59" type="curve" smooth="yes"/>
      <point x="559" y="2"/>
      <point x="524" y="47"/>
      <point x="460" y="80" type="curve"/>
      <point x="514" y="118"/>
      <point x="559" y="167"/>
      <point x="559" y="242" type="curve" smooth="yes"/>
      <point x="559" y="333"/>
      <point x="496" y="386"/>
      <point x="383" y="421" type="curve" smooth="yes"/>
      <point x="306" y="445" type="line" smooth="yes"/>
      <point x="206" y="476"/>
      <point x="155" y="515"/>
      <point x="155" y="565" type="curve" smooth="yes"/>
      <point x="155" y="614"/>
      <point x="185" y="665"/>
      <point x="281" y="665" type="curve" smooth="yes"/>
      <point x="326" y="665"/>
      <point x="436" y="641"/>
      <point x="511" y="520" type="curve"/>
      <point x="513" y="522" type="line"/>
      <point x="495" y="671" type="line"/>
      <point x="434" y="695"/>
      <point x="373" y="710"/>
      <point x="298" y="710" type="curve" smooth="yes"/>
      <point x="138" y="710"/>
      <point x="82" y="603"/>
    </contour>
    <contour>
      <point x="155" y="275" type="curve" smooth="yes"/>
      <point x="155" y="314.996"/>
      <point x="169" y="355"/>
      <point x="207" y="385" type="curve"/>
      <point x="223" y="378"/>
      <point x="240" y="372"/>
      <point x="258" y="366" type="curve" smooth="yes"/>
      <point x="344" y="339" type="line" smooth="yes"/>
      <point x="451" y="305"/>
      <point x="473" y="267"/>
      <point x="473" y="212" type="curve" smooth="yes"/>
      <point x="473" y="180"/>
      <point x="473" y="138"/>
      <point x="424" y="97" type="curve"/>
      <point x="411" y="102"/>
      <point x="398" y="106"/>
      <point x="383" y="111" type="curve" smooth="yes"/>
      <point x="306" y="135" type="line" smooth="yes"/>
      <point x="206" y="166"/>
      <point x="155" y="205"/>
    </contour>
  </outline>
</glyph>
<glyph name="copyright" format="2">
  <advance width="784"/>
  <unicode hex="00A9"/>
  <outline>
    <contour>
      <point x="392" y="-32" type="curve" smooth="yes"/>
      <point x="219" y="-32"/>
      <point x="80" y="107"/>
      <point x="80" y="280" type="curve" smooth="yes"/>
      <point x="80" y="452"/>
      <point x="219" y="591"/>
      <point x="392" y="591" type="curve" smooth="yes"/>
      <point x="564" y="591"/>
      <point x="704" y="451"/>
      <point x="704" y="280" type="curve" smooth="yes"/>
      <point x="704" y="107"/>
      <point x="565" y="-32"/>
    </contour>
    <contour>
      <point x="392" y="-62" type="curve" smooth="yes"/>
      <point x="581" y="-62"/>
      <point x="734" y="91"/>
      <point x="734" y="280" type="curve" smooth="yes"/>
      <point x="734" y="468"/>
      <point x="581" y="621"/>
      <point x="392" y="621" type="curve" smooth="yes"/>
      <point x="203" y="621"/>
      <point x="50" y="468"/>
      <point x="50" y="280" type="curve" smooth="yes"/>
      <point x="50" y="91"/>
      <point x="203" y="-62"/>
    </contour>
    <component base="c" xScale="0.68" yScale="0.68" xOffset="204" yOffset="101"/>
  </outline>
</glyph>
<glyph name="ordfeminine" format="2">
  <advance width="293"/>
  <unicode hex="00AA"/>
  <outline>
    <contour>
      <point x="283" y="451" type="line"/>
      <point x="283" y="453" type="line"/>
      <point x="279" y="455"/>
      <point x="269" y="465"/>
      <point x="269" y="519" type="curve" smooth="yes"/>
      <point x="269" y="599" type="line" smooth="yes"/>
      <point x="269" y="667"/>
      <point x="223" y="712"/>
      <point x="153" y="712" type="curve" smooth="yes"/>
      <point x="102" y="712"/>
      <point x="76" y="701"/>
      <point x="43" y="679" type="curve"/>
      <point x="55" y="603" type="line"/>
      <point x="56" y="603" type="line"/>
      <point x="70" y="638"/>
      <point x="104" y="678"/>
      <point x="143" y="678" type="curve" smooth="yes"/>
      <point x="177" y="678"/>
      <point x="208" y="656"/>
      <point x="208" y="611" type="curve" smooth="yes"/>
      <point x="208" y="584" type="line"/>
      <point x="180" y="588"/>
      <point x="151" y="593"/>
      <point x="125" y="591" type="curve" smooth="yes"/>
      <point x="59" y="585"/>
      <point x="16" y="555"/>
      <point x="16" y="502" type="curve" smooth="yes"/>
      <point x="16" y="454"/>
      <point x="55" y="428"/>
      <point x="100" y="428" type="curve" smooth="yes"/>
      <point x="145" y="428"/>
      <point x="181" y="454"/>
      <point x="207" y="493" type="curve"/>
      <point x="207" y="434"/>
      <point x="206" y="429"/>
      <point x="206" y="429" type="curve"/>
    </contour>
    <contour>
      <point x="81" y="514" type="curve" smooth="yes"/>
      <point x="81" y="540"/>
      <point x="109" y="574"/>
      <point x="208" y="562" type="curve"/>
      <point x="208" y="527" type="line"/>
      <point x="182" y="496"/>
      <point x="156" y="474"/>
      <point x="127" y="474" type="curve" smooth="yes"/>
      <point x="104" y="474"/>
      <point x="81" y="493"/>
    </contour>
  </outline>
</glyph>
<glyph name="guillemetleft" format="2">
  <advance width="490"/>
  <unicode hex="00AB"/>
  <outline>
    <contour>
      <point x="211" y="260" type="line"/>
      <point x="440" y="483" type="line"/>
      <point x="307" y="260" type="line"/>
      <point x="440" y="38" type="line"/>
    </contour>
    <contour>
      <point x="45" y="260" type="line"/>
      <point x="273" y="483" type="line"/>
      <point x="141" y="260" type="line"/>
      <point x="273" y="38" type="line"/>
    </contour>
  </outline>
</glyph>
<glyph name="logicalnot" format="2">
  <advance width="600"/>
  <unicode hex="00AC"/>
  <outline>
    <contour>
      <point x="578" y="288" type="line"/>
      <point x="20" y="288" type="line"/>
      <point x="20" y="242" type="line"/>
      <point x="532" y="242" type="line"/>
      <point x="532" y="76" type="line"/>
      <point x="578" y="76" type="line"/>
    </contour>
  </outline>
</glyph>
<glyph name="registered" format="2">
  <advance width="469"/>
  <unicode hex="00AE"/>
  <outline>
    <contour>
      <point x="235" y="397" type="curve" smooth="yes"/>
      <point x="144" y="397"/>
      <point x="71" y="470"/>
      <point x="71" y="561" type="curve" smooth="yes"/>
      <point x="71" y="651"/>
      <point x="144" y="724"/>
      <point x="235" y="724" type="curve" smooth="yes"/>
      <point x="325" y="724"/>
      <point x="398" y="651"/>
      <point x="398" y="561" type="curve" smooth="yes"/>
      <point x="398" y="470"/>
      <point x="325" y="397"/>
    </contour>
    <contour>
      <point x="235" y="376" type="curve" smooth="yes"/>
      <point x="337" y="376"/>
      <point x="419" y="458"/>
      <point x="419" y="561" type="curve" smooth="yes"/>
      <point x="419" y="662"/>
      <point x="337" y="745"/>
      <point x="235" y="745" type="curve" smooth="yes"/>
      <point x="133" y="745"/>
      <point x="50" y="662"/>
      <point x="50" y="561" type="curve" smooth="yes"/>
      <point x="50" y="458"/>
      <point x="133" y="376"/>
    </contour>
    <component base="R" xScale="0.2881" yScale="0.2881" xOffset="139" yOffset="468"/>
  </outline>
</glyph>
<glyph name="degree" format="2">
  <advance width="321"/>
  <unicode hex="00B0"/>
  <outline>
    <contour>
      <point x="162" y="410" type="curve" smooth="yes"/>
      <point x="214" y="410"/>
      <point x="276" y="463"/>
      <point x="276" y="528" type="curve" smooth="yes"/>
      <point x="276" y="605"/>
      <point x="226" y="643"/>
      <point x="162" y="643" type="curve" smooth="yes"/>
      <point x="107" y="643"/>
      <point x="45" y="591"/>
      <point x="45" y="528" type="curve" smooth="yes"/>
      <point x="45" y="450"/>
      <point x="96" y="410"/>
    </contour>
    <contour>
      <point x="176" y="448" type="curve" smooth="yes"/>
      <point x="124" y="448"/>
      <point x="86" y="486"/>
      <point x="86" y="539" type="curve" smooth="yes"/>
      <point x="86" y="579"/>
      <point x="104" y="607"/>
      <point x="147" y="607" type="curve" smooth="yes"/>
      <point x="197" y="607"/>
      <point x="235" y="567"/>
      <point x="235" y="516" type="curve" smooth="yes"/>
      <point x="235" y="474"/>
      <point x="218" y="448"/>
    </contour>
  </outline>
</glyph>
<glyph name="plusminus" format="2">
  <advance width="600"/>
  <unicode hex="00B1"/>
  <outline>
    <contour>
      <point x="293" y="566" type="line"/>
      <point x="293" y="194" type="line"/>
      <point x="339" y="194" type="line"/>
      <point x="339" y="566" type="line"/>
    </contour>
    <contour>
      <point x="562" y="403" type="line"/>
      <point x="70" y="403" type="line"/>
      <point x="70" y="357" type="line"/>
      <point x="562" y="357" type="line"/>
    </contour>
    <contour>
      <point x="562" y="133" type="line"/>
      <point x="70" y="133" type="line"/>
      <point x="70" y="87" type="line"/>
      <point x="562" y="87" type="line"/>
    </contour>
  </outline>
</glyph>
<glyph name="twosuperior" format="2">
  <advance width="265"/>
  <unicode hex="00B2"/>
  <outline>
    <contour>
      <point x="20" y="424" type="curve"/>
      <point x="229" y="424" type="line"/>
      <point x="250" y="505" type="line"/>
      <point x="245" y="506" type="line"/>
      <point x="214" y="470"/>
      <point x="144" y="468"/>
      <point x="95" y="469" type="curve"/>
      <point x="103" y="482"/>
      <point x="109" y="489"/>
      <point x="140" y="523" type="curve" smooth="yes"/>
      <point x="171" y="558"/>
      <point x="230" y="591"/>
      <point x="230" y="644" type="curve" smooth="yes"/>
      <point x="230" y="685"/>
      <point x="192" y="712"/>
      <point x="130" y="712" type="curve" smooth="yes"/>
      <point x="86" y="712"/>
      <point x="55" y="700"/>
      <point x="25" y="678" type="curve"/>
      <point x="38" y="602" type="line"/>
      <point x="45" y="602" type="line"/>
      <point x="55" y="653"/>
      <point x="77" y="687"/>
      <point x="114" y="687" type="curve" smooth="yes"/>
      <point x="141" y="687"/>
      <point x="157" y="668"/>
      <point x="157" y="635" type="curve" smooth="yes"/>
      <point x="157" y="582"/>
      <point x="99" y="531"/>
    </contour>
  </outline>
</glyph>
<glyph name="threesuperior" format="2">
  <advance width="279"/>
  <unicode hex="00B3"/>
  <outline>
    <contour>
      <point x="42" y="631" type="line"/>
      <point x="47" y="630" type="line"/>
      <point x="71" y="662"/>
      <point x="117" y="670"/>
      <point x="166" y="665" type="curve"/>
      <point x="99" y="579" type="line"/>
      <point x="101" y="575" type="line"/>
      <point x="143" y="581"/>
      <point x="184" y="557"/>
      <point x="184" y="512" type="curve" smooth="yes"/>
      <point x="184" y="470"/>
      <point x="158" y="448"/>
      <point x="124" y="448" type="curve" smooth="yes"/>
      <point x="80" y="448"/>
      <point x="51" y="492"/>
      <point x="46" y="534" type="curve"/>
      <point x="41" y="534" type="line"/>
      <point x="30" y="451" type="line"/>
      <point x="47" y="441"/>
      <point x="90" y="423"/>
      <point x="131" y="423" type="curve" smooth="yes"/>
      <point x="183" y="423"/>
      <point x="249" y="455"/>
      <point x="249" y="517" type="curve" smooth="yes"/>
      <point x="249" y="571"/>
      <point x="197" y="597"/>
      <point x="143" y="597" type="curve"/>
      <point x="240" y="710" type="line"/>
      <point x="61" y="712" type="line"/>
    </contour>
  </outline>
</glyph>
<glyph name="micro" format="2">
  <advance width="582"/>
  <unicode hex="00B5"/>
  <outline>
    <contour>
      <point x="513" y="520" type="line"/>
      <point x="405" y="467" type="line"/>
      <point x="421" y="442"/>
      <point x="431" y="415"/>
      <point x="431" y="354" type="curve" smooth="yes"/>
      <point x="430" y="132" type="line"/>
      <point x="393" y="89"/>
      <point x="340" y="61"/>
      <point x="278" y="62" type="curve" smooth="yes"/>
      <point x="203" y="63"/>
      <point x="159" y="101"/>
      <point x="153" y="179" type="curve"/>
      <point x="153" y="520" type="line"/>
      <point x="45" y="467" type="line"/>
      <point x="46" y="465"/>
      <point x="71" y="419"/>
      <point x="71" y="347" type="curve" smooth="yes"/>
      <point x="71" y="-25" type="line" smooth="yes"/>
      <point x="71" y="-199"/>
      <point x="64" y="-231"/>
      <point x="57" y="-256" type="curve"/>
      <point x="168" y="-256" type="line"/>
      <point x="163" y="-230"/>
      <point x="153" y="-204"/>
      <point x="153" y="-25" type="curve" smooth="yes"/>
      <point x="153" y="48" type="line"/>
      <point x="173" y="0"/>
      <point x="216" y="-12"/>
      <point x="262" y="-12" type="curve" smooth="yes"/>
      <point x="321" y="-12"/>
      <point x="386" y="28"/>
      <point x="430" y="92" type="curve"/>
      <point x="430" y="-12" type="line"/>
      <point x="537" y="48" type="line"/>
      <point x="533" y="56"/>
      <point x="511" y="89"/>
      <point x="511" y="161" type="curve" smooth="yes"/>
    </contour>
  </outline>
</glyph>
<glyph name="paragraph" format="2">
  <advance width="717"/>
  <unicode hex="00B6"/>
  <outline>
    <contour>
      <point x="363" y="580" type="line"/>
      <point x="363" y="580"/>
      <point x="374" y="542"/>
      <point x="374" y="410" type="curve" smooth="yes"/>
      <point x="374" y="-83" type="line" smooth="yes"/>
      <point x="374" y="-214"/>
      <point x="363" y="-252"/>
      <point x="363" y="-252" type="curve"/>
      <point x="471" y="-252" type="line"/>
      <point x="471" y="-252"/>
      <point x="460" y="-214"/>
      <point x="460" y="-83" type="curve" smooth="yes"/>
      <point x="460" y="410" type="line" smooth="yes"/>
      <point x="460" y="542"/>
      <point x="471" y="580"/>
      <point x="471" y="580" type="curve"/>
    </contour>
    <contour>
      <point x="542" y="580" type="line"/>
      <point x="542" y="580"/>
      <point x="553" y="542"/>
      <point x="553" y="410" type="curve" smooth="yes"/>
      <point x="553" y="-83" type="line" smooth="yes"/>
      <point x="553" y="-214"/>
      <point x="542" y="-252"/>
      <point x="542" y="-252" type="curve"/>
      <point x="621" y="-252" type="line"/>
      <point x="621" y="-252"/>
      <point x="610" y="-214"/>
      <point x="610" y="-83" type="curve" smooth="yes"/>
      <point x="610" y="410" type="line" smooth="yes"/>
      <point x="610" y="542"/>
      <point x="621" y="580"/>
      <point x="621" y="580" type="curve"/>
    </contour>
    <contour>
      <point x="304" y="103" type="curve"/>
      <point x="430" y="103" type="line"/>
      <point x="419" y="580" type="line"/>
      <point x="304" y="580" type="line"/>
      <point x="172" y="580"/>
      <point x="65" y="474"/>
      <point x="65" y="342" type="curve" smooth="yes"/>
      <point x="65" y="209"/>
      <point x="172" y="103"/>
    </contour>
    <contour>
      <point x="446" y="580" type="line"/>
      <point x="446" y="534" type="line"/>
      <point x="667" y="534" type="line"/>
      <point x="667" y="580" type="line"/>
    </contour>
  </outline>
</glyph>
<glyph name="onesuperior" format="2">
  <advance width="161"/>
  <unicode hex="00B9"/>
  <outline>
    <contour>
      <point x="48" y="424" type="curve"/>
      <point x="131" y="424" type="line"/>
      <point x="131" y="424"/>
      <point x="120" y="438"/>
      <point x="120" y="491" type="curve"/>
      <point x="119" y="622" type="line" smooth="yes"/>
      <point x="119" y="672"/>
      <point x="121" y="692"/>
      <point x="124" y="712" type="curve"/>
      <point x="109" y="712" type="line"/>
      <point x="89" y="687"/>
      <point x="39" y="643"/>
      <point x="10" y="625" type="curve"/>
      <point x="13" y="617" type="line"/>
      <point x="18" y="618"/>
      <point x="46" y="632"/>
      <point x="62" y="641" type="curve"/>
      <point x="61" y="631" type="line"/>
      <point x="60" y="491" type="line"/>
      <point x="60" y="438"/>
      <point x="48" y="424"/>
    </contour>
  </outline>
</glyph>
<glyph name="ordmasculine" format="2">
  <advance width="315"/>
  <unicode hex="00BA"/>
  <outline>
    <contour>
      <point x="153" y="429" type="curve" smooth="yes"/>
      <point x="231" y="429"/>
      <point x="293" y="493"/>
      <point x="293" y="579" type="curve" smooth="yes"/>
      <point x="293" y="655"/>
      <point x="239" y="712"/>
      <point x="167" y="712" type="curve" smooth="yes"/>
      <point x="85" y="712"/>
      <point x="23" y="646"/>
      <point x="23" y="560" type="curve" smooth="yes"/>
      <point x="23" y="486"/>
      <point x="76" y="429"/>
    </contour>
    <contour>
      <point x="164" y="463" type="curve" smooth="yes"/>
      <point x="119" y="463"/>
      <point x="88" y="512"/>
      <point x="88" y="578" type="curve" smooth="yes"/>
      <point x="88" y="640"/>
      <point x="116" y="679"/>
      <point x="153" y="679" type="curve" smooth="yes"/>
      <point x="197" y="679"/>
      <point x="228" y="631"/>
      <point x="228" y="561" type="curve" smooth="yes"/>
      <point x="228" y="501"/>
      <point x="200" y="463"/>
    </contour>
  </outline>
</glyph>
<glyph name="guillemetright" format="2">
  <advance width="490"/>
  <unicode hex="00BB"/>
  <outline>
    <contour>
      <point x="279" y="260" type="line"/>
      <point x="50" y="38" type="line"/>
      <point x="183" y="260" type="line"/>
      <point x="50" y="483" type="line"/>
    </contour>
    <contour>
      <point x="445" y="260" type="line"/>
      <point x="217" y="38" type="line"/>
      <point x="349" y="260" type="line"/>
      <point x="217" y="483" type="line"/>
    </contour>
  </outline>
</glyph>
<glyph name="onequarter" format="2">
  <advance width="639"/>
  <unicode hex="00BC"/>
  <outline>
    <contour>
      <point x="156" y="0" type="line"/>
      <point x="168" y="26"/>
      <point x="189" y="67"/>
      <point x="206" y="97" type="qcurve" smooth="yes"/>
      <point x="473" y="574" type="line" smooth="yes"/>
      <point x="490" y="604"/>
      <point x="518" y="650"/>
      <point x="534" y="676" type="qcurve"/>
      <point x="470" y="676" type="line"/>
      <point x="459" y="650"/>
      <point x="434" y="604"/>
      <point x="417" y="574" type="qcurve" smooth="yes"/>
      <point x="150" y="97" type="line" smooth="yes"/>
      <point x="133" y="67"/>
      <point x="108" y="26"/>
      <point x="91" y="0" type="qcurve"/>
    </contour>
    <component base="onesuperior" xOffset="-5" yOffset="-39"/>
    <component base="foursuperior" xOffset="380" yOffset="-375"/>
  </outline>
</glyph>
<glyph name="onehalf" format="2">
  <advance width="640"/>
  <unicode hex="00BD"/>
  <outline>
    <component base="onesuperior" xOffset="-5" yOffset="-39"/>
    <component base="twosuperior" xOffset="378" yOffset="-377"/>
    <contour>
      <point x="136" y="0" type="line"/>
      <point x="148" y="26"/>
      <point x="169" y="67"/>
      <point x="186" y="97" type="qcurve" smooth="yes"/>
      <point x="453" y="574" type="line" smooth="yes"/>
      <point x="470" y="604"/>
      <point x="498" y="650"/>
      <point x="514" y="676" type="qcurve"/>
      <point x="450" y="676" type="line"/>
      <point x="439" y="650"/>
      <point x="414" y="604"/>
      <point x="397" y="574" type="qcurve" smooth="yes"/>
      <point x="130" y="97" type="line" smooth="yes"/>
      <point x="113" y="67"/>
      <point x="88" y="26"/>
      <point x="71" y="0" type="qcurve"/>
    </contour>
  </outline>
</glyph>
<glyph name="threequarters" format="2">
  <advance width="671"/>
  <unicode hex="00BE"/>
  <outline>
    <component base="threesuperior" xOffset="-9" yOffset="-48"/>
    <component base="foursuperior" xOffset="380" yOffset="-375"/>
    <contour>
      <point x="186" y="0" type="line"/>
      <point x="198" y="26"/>
      <point x="219" y="67"/>
      <point x="236" y="97" type="qcurve" smooth="yes"/>
      <point x="503" y="574" type="line" smooth="yes"/>
      <point x="520" y="604"/>
      <point x="548" y="650"/>
      <point x="564" y="676" type="qcurve"/>
      <point x="500" y="676" type="line"/>
      <point x="489" y="650"/>
      <point x="464" y="604"/>
      <point x="447" y="574" type="qcurve" smooth="yes"/>
      <point x="180" y="97" type="line" smooth="yes"/>
      <point x="163" y="67"/>
      <point x="138" y="26"/>
      <point x="121" y="0" type="qcurve"/>
    </contour>
  </outline>
</glyph>
<glyph name="AE" format="2">
  <advance width="1037"/>
  <unicode hex="00C6"/>
  <outline>
    <contour>
      <point x="10" y="0" type="curve"/>
      <point x="114" y="0" type="line"/>
      <point x="114" y="31"/>
      <point x="134" y="76"/>
      <point x="152" y="110" type="curve" smooth="yes"/>
      <point x="211" y="214" type="line"/>
      <point x="259" y="216"/>
      <point x="371" y="217"/>
      <point x="413" y="217" type="curve" smooth="yes"/>
      <point x="438" y="217"/>
      <point x="452" y="217"/>
      <point x="464" y="216" type="curve"/>
      <point x="464" y="169" type="line" smooth="yes"/>
      <point x="464" y="38"/>
      <point x="443" y="0"/>
      <point x="443" y="0" type="curve"/>
      <point x="953" y="-4" type="line"/>
      <point x="997" y="139" type="line"/>
      <point x="990" y="143" type="line"/>
      <point x="907" y="55"/>
      <point x="686" y="52"/>
      <point x="567" y="54" type="curve"/>
      <point x="563" y="80"/>
      <point x="560" y="120"/>
      <point x="560" y="169" type="curve" smooth="yes"/>
      <point x="560" y="334" type="line"/>
      <point x="720" y="334" type="line" smooth="yes"/>
      <point x="783" y="334"/>
      <point x="844" y="334"/>
      <point x="905" y="324" type="curve"/>
      <point x="905" y="391" type="line"/>
      <point x="844" y="381"/>
      <point x="783" y="381"/>
      <point x="720" y="381" type="curve" smooth="yes"/>
      <point x="560" y="381" type="line"/>
      <point x="560" y="530" type="line" smooth="yes"/>
      <point x="560" y="587"/>
      <point x="564" y="626"/>
      <point x="568" y="652" type="curve"/>
      <point x="679" y="659"/>
      <point x="873" y="666"/>
      <point x="950" y="551" type="curve"/>
      <point x="957" y="555" type="line"/>
      <point x="923" y="703" type="line"/>
      <point x="321" y="700" type="line"/>
      <point x="321" y="698" type="line"/>
      <point x="359" y="674"/>
      <point x="370" y="664"/>
      <point x="398" y="640" type="curve"/>
      <point x="110" y="140" type="line" smooth="yes"/>
      <point x="74" y="79"/>
      <point x="53" y="52"/>
    </contour>
    <contour>
      <point x="243" y="268" type="curve"/>
      <point x="458" y="639" type="line"/>
      <point x="461" y="613"/>
      <point x="464" y="578"/>
      <point x="464" y="530" type="curve" smooth="yes"/>
      <point x="464" y="266" type="line"/>
      <point x="455" y="266"/>
      <point x="452" y="266"/>
      <point x="428" y="266" type="curve" smooth="yes"/>
      <point x="381" y="266"/>
      <point x="286" y="267"/>
    </contour>
  </outline>
</glyph>
<glyph name="Eth" format="2">
  <advance width="713"/>
  <unicode hex="00D0"/>
  <outline>
    <component base="D" xOffset="10"/>
    <contour>
      <point x="26" y="390" type="curve"/>
      <point x="26" y="330" type="line"/>
      <point x="66" y="332"/>
      <point x="129" y="334"/>
      <point x="169" y="334" type="curve" smooth="yes"/>
      <point x="209" y="334"/>
      <point x="272" y="332"/>
      <point x="312" y="330" type="curve"/>
      <point x="312" y="390" type="line"/>
      <point x="272" y="388"/>
      <point x="209" y="386"/>
      <point x="169" y="386" type="curve"/>
      <point x="129" y="386"/>
      <point x="66" y="388"/>
    </contour>
  </outline>
</glyph>
<glyph name="multiply" format="2">
  <advance width="540"/>
  <unicode hex="00D7"/>
  <outline>
    <contour>
      <point x="112" y="90" type="line"/>
      <point x="460" y="438" type="line"/>
      <point x="428" y="470" type="line"/>
      <point x="80" y="122" type="line"/>
    </contour>
    <contour>
      <point x="80" y="438" type="line"/>
      <point x="428" y="90" type="line"/>
      <point x="460" y="122" type="line"/>
      <point x="112" y="470" type="line"/>
    </contour>
  </outline>
</glyph>
<glyph name="Oslash" format="2">
  <advance width="860"/>
  <unicode hex="00D8"/>
  <outline>
    <component base="O"/>
    <contour>
      <point x="680" y="737" type="line"/>
      <point x="672" y="720"/>
      <point x="659" y="702"/>
      <point x="646" y="685" type="curve"/>
      <point x="140" y="-4"/>
      <point x="123" y="-26"/>
      <point x="103" y="-48" type="curve"/>
      <point x="165" y="-48" type="line"/>
      <point x="171" y="-31"/>
      <point x="184" y="-13"/>
      <point x="197" y="4" type="curve"/>
      <point x="699" y="686" type="line"/>
      <point x="711" y="703"/>
      <point x="724" y="720"/>
      <point x="740" y="737" type="curve"/>
    </contour>
  </outline>
</glyph>
<glyph name="Thorn" format="2">
  <advance width="625"/>
  <unicode hex="00DE"/>
  <outline>
    <component base="I"/>
    <contour>
      <point x="159" y="570" type="curve"/>
      <point x="159" y="516" type="line"/>
      <point x="194" y="528"/>
      <point x="244" y="533"/>
      <point x="306" y="533" type="curve" smooth="yes"/>
      <point x="406" y="533"/>
      <point x="484" y="469"/>
      <point x="484" y="373" type="curve" smooth="yes"/>
      <point x="484" y="264"/>
      <point x="414" y="229"/>
      <point x="316" y="229" type="curve" smooth="yes"/>
      <point x="248" y="229"/>
      <point x="208" y="236"/>
      <point x="159" y="250" type="curve"/>
      <point x="131" y="196" type="line"/>
      <point x="193" y="183"/>
      <point x="257" y="183"/>
      <point x="310" y="183" type="curve" smooth="yes"/>
      <point x="411" y="183"/>
      <point x="580" y="230"/>
      <point x="580" y="382" type="curve" smooth="yes"/>
      <point x="580" y="510"/>
      <point x="488" y="570"/>
      <point x="339" y="570" type="curve" smooth="yes"/>
      <point x="286" y="570"/>
      <point x="231" y="570"/>
    </contour>
  </outline>
</glyph>
<glyph name="germandbls" format="2">
  <advance width="594"/>
  <unicode hex="00DF"/>
  <outline>
    <contour>
      <point x="45" y="0" type="curve"/>
      <point x="156" y="0" type="line"/>
      <point x="151" y="25"/>
      <point x="141" y="51"/>
      <point x="141" y="231" type="curve" smooth="yes"/>
      <point x="142" y="593" type="line" smooth="yes"/>
      <point x="142" y="680"/>
      <point x="185" y="729"/>
      <point x="246" y="729" type="curve" smooth="yes"/>
      <point x="307" y="729"/>
      <point x="352" y="693"/>
      <point x="352" y="583" type="curve" smooth="yes"/>
      <point x="352" y="478"/>
      <point x="254" y="388"/>
      <point x="244" y="372" type="curve"/>
      <point x="244" y="312"/>
      <point x="298" y="287"/>
      <point x="354" y="260" type="curve" smooth="yes"/>
      <point x="383" y="245" type="line" smooth="yes"/>
      <point x="430" y="220"/>
      <point x="470" y="188"/>
      <point x="470" y="126" type="curve" smooth="yes"/>
      <point x="470" y="60"/>
      <point x="435" y="29"/>
      <point x="376" y="29" type="curve" smooth="yes"/>
      <point x="316" y="29"/>
      <point x="269" y="60"/>
      <point x="222" y="151" type="curve"/>
      <point x="241" y="18" type="line"/>
      <point x="271" y="0"/>
      <point x="302" y="-12"/>
      <point x="366" y="-12" type="curve" smooth="yes"/>
      <point x="454" y="-12"/>
      <point x="553" y="48"/>
      <point x="553" y="137" type="curve" smooth="yes"/>
      <point x="553" y="228"/>
      <point x="479" y="269"/>
      <point x="413" y="302" type="curve" smooth="yes"/>
      <point x="384" y="317" type="line" smooth="yes"/>
      <point x="344" y="337"/>
      <point x="314" y="357"/>
      <point x="314" y="387" type="curve"/>
      <point x="323" y="403"/>
      <point x="448" y="462"/>
      <point x="448" y="579" type="curve" smooth="yes"/>
      <point x="448" y="689"/>
      <point x="371" y="755"/>
      <point x="258" y="755" type="curve" smooth="yes"/>
      <point x="158" y="755"/>
      <point x="61" y="702"/>
      <point x="61" y="556" type="curve" smooth="yes"/>
      <point x="60" y="231" type="line" smooth="yes"/>
      <point x="59" y="57"/>
      <point x="52" y="25"/>
    </contour>
  </outline>
</glyph>
<glyph name="ae" format="2">
  <advance width="893"/>
  <unicode hex="00E6"/>
  <outline>
    <contour>
      <point x="40" y="119" type="curve" smooth="yes"/>
      <point x="40" y="37"/>
      <point x="102" y="-12"/>
      <point x="187" y="-12" type="curve" smooth="yes"/>
      <point x="280" y="-12"/>
      <point x="352" y="48"/>
      <point x="405" y="135" type="curve"/>
      <point x="469" y="159" type="line"/>
      <point x="469" y="346" type="line" smooth="yes"/>
      <point x="469" y="455"/>
      <point x="388" y="520"/>
      <point x="276" y="520" type="curve" smooth="yes"/>
      <point x="190" y="520"/>
      <point x="141" y="500"/>
      <point x="80" y="458" type="curve"/>
      <point x="98" y="343" type="line"/>
      <point x="100" y="343" type="line"/>
      <point x="126" y="410"/>
      <point x="193" y="461"/>
      <point x="260" y="461" type="curve" smooth="yes"/>
      <point x="346" y="461"/>
      <point x="386" y="424"/>
      <point x="388" y="331" type="curve" smooth="yes"/>
      <point x="389" y="281" type="line"/>
      <point x="346" y="287"/>
      <point x="301" y="289"/>
      <point x="259" y="286" type="curve" smooth="yes"/>
      <point x="140" y="278"/>
      <point x="40" y="233"/>
    </contour>
    <contour>
      <point x="123" y="144" type="curve" smooth="yes"/>
      <point x="123" y="211"/>
      <point x="183" y="255"/>
      <point x="389" y="256" type="curve"/>
      <point x="389" y="156" type="line"/>
      <point x="343" y="97"/>
      <point x="296" y="59"/>
      <point x="226" y="59" type="curve" smooth="yes"/>
      <point x="161" y="59"/>
      <point x="123" y="91"/>
    </contour>
    <component base="e" xOffset="350"/>
  </outline>
</glyph>
<glyph name="divide" format="2">
  <advance width="598"/>
  <unicode hex="00F7"/>
  <outline>
    <contour>
      <point x="578" y="288" type="line"/>
      <point x="578" y="242" type="line"/>
      <point x="20" y="242" type="line"/>
      <point x="20" y="288" type="line"/>
    </contour>
    <component base="dotaccent" xOffset="-1" yOffset="-599"/>
    <component base="dotaccent" xOffset="-1" yOffset="-171"/>
  </outline>
</glyph>
<glyph name="oslash" format="2">
  <advance width="618"/>
  <unicode hex="00F8"/>
  <outline>
    <component base="o"/>
    <contour>
      <point x="479" y="536" type="line"/>
      <point x="471" y="519"/>
      <point x="458" y="501"/>
      <point x="445" y="484" type="curve"/>
      <point x="442" y="480" type="line"/>
      <point x="115" y="35" type="line"/>
      <point x="99" y="13"/>
      <point x="82" y="-9"/>
      <point x="62" y="-31" type="curve"/>
      <point x="112" y="-31" type="line"/>
      <point x="118" y="-14"/>
      <point x="131" y="4"/>
      <point x="144" y="21" type="curve"/>
      <point x="486" y="485" type="line"/>
      <point x="498" y="502"/>
      <point x="511" y="519"/>
      <point x="527" y="536" type="curve"/>
    </contour>
  </outline>
</glyph>
<glyph name="thorn" format="2">
  <advance width="567"/>
  <unicode hex="00FE"/>
  <outline>
    <contour>
      <point x="55" y="-256" type="curve"/>
      <point x="166" y="-256" type="line"/>
      <point x="161" y="-230"/>
      <point x="151" y="-204"/>
      <point x="151" y="-25" type="curve" smooth="yes"/>
      <point x="151" y="3" type="line"/>
      <point x="178" y="-6"/>
      <point x="211" y="-12"/>
      <point x="245" y="-12" type="curve" smooth="yes"/>
      <point x="413" y="-12"/>
      <point x="527" y="121"/>
      <point x="527" y="284" type="curve" smooth="yes"/>
      <point x="527" y="423"/>
      <point x="434" y="520"/>
      <point x="323" y="520" type="curve" smooth="yes"/>
      <point x="259" y="520"/>
      <point x="198" y="489"/>
      <point x="151" y="447" type="curve"/>
      <point x="152" y="745" type="line"/>
      <point x="45" y="685" type="line"/>
      <point x="48" y="683"/>
      <point x="71" y="644"/>
      <point x="71" y="572" type="curve"/>
      <point x="69" y="-25" type="line"/>
      <point x="69" y="-199"/>
      <point x="62" y="-231"/>
    </contour>
    <contour>
      <point x="151" y="89" type="curve"/>
      <point x="151" y="402" type="line"/>
      <point x="186" y="432"/>
      <point x="230" y="452"/>
      <point x="278" y="452" type="curve" smooth="yes"/>
      <point x="379" y="452"/>
      <point x="436" y="364"/>
      <point x="436" y="234" type="curve" smooth="yes"/>
      <point x="436" y="107"/>
      <point x="372" y="36"/>
      <point x="277" y="36" type="curve" smooth="yes"/>
      <point x="233" y="36"/>
      <point x="185" y="52"/>
    </contour>
  </outline>
</glyph>
<glyph name="Dcroat" format="2">
  <advance width="703"/>
  <unicode hex="0110"/>
  <outline>
    <contour>
      <point x="26" y="390" type="curve"/>
      <point x="26" y="330" type="line"/>
      <point x="66" y="332"/>
      <point x="129" y="334"/>
      <point x="169" y="334" type="curve" smooth="yes"/>
      <point x="209" y="334"/>
      <point x="272" y="332"/>
      <point x="312" y="330" type="curve"/>
      <point x="312" y="390" type="line"/>
      <point x="272" y="388"/>
      <point x="209" y="386"/>
      <point x="169" y="386" type="curve"/>
      <point x="129" y="386"/>
      <point x="66" y="388"/>
    </contour>
    <component base="D"/>
  </outline>
</glyph>
<glyph name="dcroat" format="2">
  <advance width="600"/>
  <unicode hex="0111"/>
  <outline>
    <contour>
      <point x="320" y="625" type="curve"/>
      <point x="320" y="581" type="line"/>
      <point x="360" y="583"/>
      <point x="423" y="585"/>
      <point x="443" y="585" type="curve" smooth="yes"/>
      <point x="483" y="585"/>
      <point x="546" y="583"/>
      <point x="586" y="581" type="curve"/>
      <point x="586" y="625" type="line"/>
      <point x="546" y="623"/>
      <point x="483" y="621"/>
      <point x="443" y="621" type="curve" smooth="yes"/>
      <point x="423" y="621"/>
      <point x="360" y="623"/>
    </contour>
    <component base="d"/>
  </outline>
</glyph>
<glyph name="Hbar" format="2">
  <advance width="796"/>
  <unicode hex="0126"/>
  <outline>
    <component base="H" xOffset="-9"/>
    <contour>
      <point x="166" y="570" type="curve" smooth="yes"/>
      <point x="50" y="574" type="line"/>
      <point x="50" y="517" type="line"/>
      <point x="166" y="520" type="line" smooth="yes"/>
      <point x="240" y="524"/>
      <point x="314" y="525"/>
      <point x="378" y="525" type="curve" smooth="yes"/>
      <point x="469" y="525"/>
      <point x="549" y="523"/>
      <point x="630" y="520" type="curve" smooth="yes"/>
      <point x="746" y="517" type="line"/>
      <point x="746" y="574" type="line"/>
      <point x="630" y="570" type="line" smooth="yes"/>
      <point x="549" y="567"/>
      <point x="467" y="565"/>
      <point x="398" y="565" type="curve" smooth="yes"/>
      <point x="314" y="565"/>
      <point x="240" y="567"/>
    </contour>
  </outline>
</glyph>
<glyph name="hbar" format="2">
  <advance width="612"/>
  <unicode hex="0127"/>
  <outline>
    <component base="h" xOffset="-4"/>
    <contour>
      <point x="20" y="625" type="curve"/>
      <point x="20" y="581" type="line"/>
      <point x="60" y="583"/>
      <point x="119" y="585"/>
      <point x="143" y="585" type="curve" smooth="yes"/>
      <point x="183" y="585"/>
      <point x="246" y="583"/>
      <point x="286" y="581" type="curve"/>
      <point x="286" y="625" type="line"/>
      <point x="246" y="623"/>
      <point x="183" y="621"/>
      <point x="143" y="621" type="curve" smooth="yes"/>
      <point x="123" y="621"/>
      <point x="60" y="623"/>
    </contour>
  </outline>
</glyph>
<glyph name="idotless" format="2">
  <advance width="216"/>
  <unicode hex="0131"/>
  <anchor x="106" y="0" name="bottom"/>
  <anchor x="154" y="-1" name="ogonek"/>
  <anchor x="106" y="508" name="top"/>
  <outline>
    <contour>
      <point x="55" y="0" type="curve"/>
      <point x="166" y="0" type="line"/>
      <point x="161" y="25"/>
      <point x="150" y="51"/>
      <point x="151" y="231" type="curve" smooth="yes"/>
      <point x="152" y="520" type="line"/>
      <point x="45" y="460" type="line"/>
      <point x="48" y="458"/>
      <point x="72" y="414"/>
      <point x="71" y="342" type="curve" smooth="yes"/>
      <point x="70" y="231" type="line" smooth="yes"/>
      <point x="68" y="57"/>
      <point x="62" y="25"/>
    </contour>
  </outline>
</glyph>
<glyph name="Lslash" format="2">
  <advance width="576"/>
  <unicode hex="0141"/>
  <outline>
    <contour>
      <point x="80" y="350" type="line"/>
      <point x="59" y="340"/>
      <point x="19" y="322"/>
      <point x="-3" y="313" type="qcurve"/>
      <point x="-3" y="246" type="line"/>
      <point x="18" y="259"/>
      <point x="58" y="282"/>
      <point x="80" y="293" type="qcurve"/>
      <point x="223" y="364" type="line"/>
      <point x="249" y="377"/>
      <point x="293" y="398"/>
      <point x="318" y="408" type="qcurve"/>
      <point x="318" y="474" type="line"/>
      <point x="293" y="460"/>
      <point x="247" y="434"/>
      <point x="222" y="421" type="qcurve"/>
    </contour>
    <component base="L"/>
  </outline>
</glyph>
<glyph name="lslash" format="2">
  <advance width="256"/>
  <unicode hex="0142"/>
  <outline>
    <component base="l" xOffset="1"/>
    <contour>
      <point x="80" y="350" type="line" smooth="yes"/>
      <point x="59" y="340"/>
      <point x="19" y="322"/>
      <point x="-3" y="313" type="qcurve"/>
      <point x="-3" y="246" type="line"/>
      <point x="18" y="259"/>
      <point x="58" y="282"/>
      <point x="80" y="293" type="qcurve" smooth="yes"/>
      <point x="187" y="346" type="line" smooth="yes"/>
      <point x="213" y="359"/>
      <point x="257" y="380"/>
      <point x="282" y="390" type="qcurve"/>
      <point x="282" y="456" type="line"/>
      <point x="257" y="442"/>
      <point x="211" y="416"/>
      <point x="186" y="403" type="qcurve" smooth="yes"/>
    </contour>
  </outline>
</glyph>
<glyph name="OE" format="2">
  <advance width="1059"/>
  <unicode hex="0152"/>
  <outline>
    <component base="E" xOffset="416"/>
    <contour>
      <point x="151" y="373" type="curve" smooth="yes"/>
      <point x="151" y="540"/>
      <point x="240" y="648"/>
      <point x="377" y="648" type="curve" smooth="yes"/>
      <point x="434" y="648"/>
      <point x="485" y="640"/>
      <point x="526" y="608" type="curve"/>
      <point x="565" y="677" type="line"/>
      <point x="522" y="699"/>
      <point x="475" y="712"/>
      <point x="418" y="712" type="curve" smooth="yes"/>
      <point x="209" y="712"/>
      <point x="50" y="544"/>
      <point x="50" y="324" type="curve" smooth="yes"/>
      <point x="50" y="133"/>
      <point x="186" y="-12"/>
      <point x="381" y="-12" type="curve" smooth="yes"/>
      <point x="445" y="-12"/>
      <point x="513" y="-3"/>
      <point x="565" y="27" type="curve"/>
      <point x="545" y="75" type="line"/>
      <point x="503" y="54"/>
      <point x="466" y="54"/>
      <point x="415" y="54" type="curve" smooth="yes"/>
      <point x="256" y="54"/>
      <point x="151" y="189"/>
    </contour>
  </outline>
</glyph>
<glyph name="Schwa" format="2">
  <advance width="698"/>
  <unicode hex="018F"/>
  <outline>
    <contour>
      <point x="343" y="53" type="curve" smooth="yes"/>
      <point x="266" y="53"/>
      <point x="170" y="96"/>
      <point x="166" y="250" type="curve"/>
      <point x="549" y="268" type="line"/>
      <point x="541" y="123"/>
      <point x="455" y="53"/>
    </contour>
    <contour>
      <point x="648" y="341" type="curve" smooth="yes"/>
      <point x="648" y="546"/>
      <point x="526" y="712"/>
      <point x="333" y="712" type="curve" smooth="yes"/>
      <point x="239" y="712"/>
      <point x="128" y="681"/>
      <point x="58" y="534" type="curve"/>
      <point x="62" y="532" type="line"/>
      <point x="132" y="605"/>
      <point x="209" y="638"/>
      <point x="294" y="638" type="curve" smooth="yes"/>
      <point x="472" y="638"/>
      <point x="543" y="478"/>
      <point x="549" y="319" type="curve"/>
      <point x="50" y="319" type="line"/>
      <point x="50" y="100"/>
      <point x="161" y="-12"/>
      <point x="327" y="-12" type="curve" smooth="yes"/>
      <point x="499" y="-12"/>
      <point x="648" y="135"/>
    </contour>
  </outline>
</glyph>
<glyph name="florin" format="2">
  <advance width="371"/>
  <unicode hex="0192"/>
  <outline>
    <contour>
      <point x="53" y="493" type="line"/>
      <point x="53" y="462" type="line"/>
      <point x="117" y="460" type="line"/>
      <point x="87" y="0" type="line" smooth="yes"/>
      <point x="76" y="-170"/>
      <point x="15" y="-196"/>
      <point x="-26" y="-196" type="curve" smooth="yes"/>
      <point x="-69" y="-196"/>
      <point x="-117" y="-171"/>
      <point x="-156" y="-106" type="curve"/>
      <point x="-129" y="-204" type="line"/>
      <point x="-112" y="-223"/>
      <point x="-67" y="-243"/>
      <point x="-23" y="-243" type="curve" smooth="yes"/>
      <point x="46" y="-243"/>
      <point x="160" y="-181"/>
      <point x="170" y="-20" type="curve" smooth="yes"/>
      <point x="201" y="457" type="line"/>
      <point x="358" y="451" type="line"/>
      <point x="365" y="512" type="line"/>
      <point x="204" y="502" type="line"/>
      <point x="210" y="580" type="line" smooth="yes"/>
      <point x="216" y="649"/>
      <point x="239" y="675"/>
      <point x="282" y="675" type="curve" smooth="yes"/>
      <point x="316" y="675"/>
      <point x="356" y="665"/>
      <point x="399" y="622" type="curve"/>
      <point x="395" y="713" type="line"/>
      <point x="352" y="721"/>
      <point x="323" y="722"/>
      <point x="295" y="722" type="curve" smooth="yes"/>
      <point x="192" y="722"/>
      <point x="130" y="659"/>
      <point x="123" y="556" type="curve" smooth="yes"/>
      <point x="119" y="497" type="line"/>
    </contour>
  </outline>
</glyph>
<glyph name="jdotless" format="2">
  <advance width="220"/>
  <unicode hex="0237"/>
  <anchor x="159" y="-186" name="bottom"/>
  <anchor x="119" y="508" name="top"/>
  <outline>
    <contour>
      <point x="89" y="342" type="curve" smooth="yes"/>
      <point x="89" y="-1" type="line" smooth="yes"/>
      <point x="89" y="-158"/>
      <point x="57" y="-196"/>
      <point x="-25" y="-231" type="curve"/>
      <point x="-23" y="-235" type="line"/>
      <point x="105" y="-217"/>
      <point x="169" y="-162"/>
      <point x="169" y="-40" type="curve" smooth="yes"/>
      <point x="169" y="231" type="line"/>
      <point x="170" y="520" type="line"/>
      <point x="59" y="460" type="line"/>
      <point x="62" y="458"/>
      <point x="89" y="414"/>
    </contour>
  </outline>
</glyph>
<glyph name="schwa" format="2">
  <advance width="600"/>
  <unicode hex="0259"/>
  <outline>
    <contour>
      <point x="262" y="38" type="curve" smooth="yes"/>
      <point x="203" y="38"/>
      <point x="144" y="71"/>
      <point x="131" y="190" type="curve"/>
      <point x="406" y="204" type="line"/>
      <point x="400" y="92"/>
      <point x="349" y="38"/>
    </contour>
    <contour>
      <point x="498" y="260" type="curve" smooth="yes"/>
      <point x="498" y="418"/>
      <point x="396" y="520"/>
      <point x="247" y="520" type="curve" smooth="yes"/>
      <point x="174" y="520"/>
      <point x="89" y="496"/>
      <point x="35" y="383" type="curve"/>
      <point x="38" y="381" type="line"/>
      <point x="92" y="438"/>
      <point x="151" y="459"/>
      <point x="212" y="459" type="curve" smooth="yes"/>
      <point x="339" y="459"/>
      <point x="401" y="366"/>
      <point x="406" y="243" type="curve"/>
      <point x="36" y="243" type="line"/>
      <point x="36" y="74"/>
      <point x="122" y="-12"/>
      <point x="250" y="-12" type="curve" smooth="yes"/>
      <point x="383" y="-12"/>
      <point x="498" y="101"/>
    </contour>
  </outline>
</glyph>
<glyph name="gravecomb" format="2">
  <advance width="600"/>
  <unicode hex="0300"/>
  <anchor x="300" y="508" name="_top"/>
  <outline>
    <contour>
      <point x="356" y="594" type="line"/>
      <point x="322" y="641"/>
      <point x="290" y="689"/>
      <point x="260" y="736" type="curve"/>
      <point x="160" y="709" type="line"/>
      <point x="214" y="666"/>
      <point x="263" y="630"/>
      <point x="334" y="587" type="curve"/>
    </contour>
  </outline>
</glyph>
<glyph name="acutecomb" format="2">
  <advance width="600"/>
  <unicode hex="0301"/>
  <anchor x="300" y="508" name="_top"/>
  <outline>
    <contour>
      <point x="225" y="594" type="curve"/>
      <point x="247" y="587" type="line"/>
      <point x="318" y="630"/>
      <point x="367" y="666"/>
      <point x="421" y="709" type="curve"/>
      <point x="321" y="736" type="line"/>
      <point x="291" y="689"/>
      <point x="259" y="641"/>
    </contour>
  </outline>
</glyph>
<glyph name="circumflexcomb" format="2">
  <advance width="600"/>
  <unicode hex="0302"/>
  <anchor x="300" y="508" name="_top"/>
  <outline>
    <contour>
      <point x="154" y="564" type="line"/>
      <point x="300" y="660" type="line"/>
      <point x="446" y="564" type="line"/>
      <point x="452" y="566" type="line"/>
      <point x="410" y="631"/>
      <point x="338" y="707"/>
      <point x="300" y="739" type="curve"/>
      <point x="262" y="706"/>
      <point x="192" y="631"/>
      <point x="150" y="566" type="curve"/>
    </contour>
  </outline>
</glyph>
<glyph name="tildecomb" format="2">
  <advance width="600"/>
  <unicode hex="0303"/>
  <anchor x="292" y="508" name="_top"/>
  <outline>
    <contour>
      <point x="150" y="609" type="curve"/>
      <point x="152" y="603" type="line"/>
      <point x="162" y="629"/>
      <point x="193" y="647"/>
      <point x="227" y="647" type="curve"/>
      <point x="273" y="647"/>
      <point x="294" y="603"/>
      <point x="351" y="603" type="curve"/>
      <point x="391" y="603"/>
      <point x="426" y="634"/>
      <point x="436" y="699" type="curve"/>
      <point x="434" y="705" type="line"/>
      <point x="424" y="679"/>
      <point x="393" y="661"/>
      <point x="359" y="661" type="curve"/>
      <point x="313" y="661"/>
      <point x="292" y="705"/>
      <point x="235" y="705" type="curve"/>
      <point x="195" y="705"/>
      <point x="160" y="664"/>
    </contour>
  </outline>
</glyph>
<glyph name="macroncomb" format="2">
  <advance width="600"/>
  <unicode hex="0304"/>
  <anchor x="300" y="508" name="_top"/>
  <outline>
    <contour>
      <point x="176" y="697" type="curve"/>
      <point x="176" y="637" type="line"/>
      <point x="216" y="639"/>
      <point x="259" y="641"/>
      <point x="289" y="641" type="curve" smooth="yes"/>
      <point x="339" y="641"/>
      <point x="382" y="639"/>
      <point x="422" y="637" type="curve"/>
      <point x="422" y="697" type="line"/>
      <point x="382" y="695"/>
      <point x="339" y="693"/>
      <point x="309" y="693" type="curve" smooth="yes"/>
      <point x="259" y="693"/>
      <point x="216" y="695"/>
    </contour>
  </outline>
</glyph>
<glyph name="brevecomb" format="2">
  <advance width="600"/>
  <unicode hex="0306"/>
  <anchor x="297" y="508" name="_top"/>
  <outline>
    <contour>
      <point x="298" y="644" type="curve" smooth="yes"/>
      <point x="242" y="644"/>
      <point x="187" y="665"/>
      <point x="168" y="693" type="curve"/>
      <point x="163" y="690" type="line"/>
      <point x="174" y="654"/>
      <point x="205" y="591"/>
      <point x="297" y="590" type="curve" smooth="yes"/>
      <point x="388" y="589"/>
      <point x="418" y="654"/>
      <point x="433" y="690" type="curve"/>
      <point x="428" y="693" type="line"/>
      <point x="408" y="665"/>
      <point x="354" y="644"/>
    </contour>
  </outline>
</glyph>
<glyph name="dotaccentcomb" format="2">
  <advance width="600"/>
  <unicode hex="0307"/>
  <anchor x="300" y="508" name="_top"/>
  <outline>
    <contour>
      <point x="300" y="597" type="curve" smooth="yes"/>
      <point x="330" y="597"/>
      <point x="354" y="621"/>
      <point x="354" y="651" type="curve" smooth="yes"/>
      <point x="354" y="681"/>
      <point x="330" y="705"/>
      <point x="300" y="705" type="curve" smooth="yes"/>
      <point x="270" y="705"/>
      <point x="246" y="681"/>
      <point x="246" y="651" type="curve" smooth="yes"/>
      <point x="246" y="621"/>
      <point x="270" y="597"/>
    </contour>
  </outline>
</glyph>
<glyph name="ringcomb" format="2">
  <advance width="600"/>
  <unicode hex="030A"/>
  <anchor x="300" y="508" name="_top"/>
  <outline>
    <contour>
      <point x="303" y="554" type="curve" smooth="yes"/>
      <point x="356" y="554"/>
      <point x="405" y="596"/>
      <point x="405" y="651" type="curve" smooth="yes"/>
      <point x="405" y="715"/>
      <point x="357" y="748"/>
      <point x="303" y="748" type="curve" smooth="yes"/>
      <point x="250" y="748"/>
      <point x="200" y="706"/>
      <point x="200" y="651" type="curve" smooth="yes"/>
      <point x="200" y="587"/>
      <point x="248" y="554"/>
    </contour>
    <contour>
      <point x="315" y="588" type="curve" smooth="yes"/>
      <point x="271" y="588"/>
      <point x="238" y="615"/>
      <point x="238" y="661" type="curve" smooth="yes"/>
      <point x="238" y="695"/>
      <point x="260" y="716"/>
      <point x="291" y="716" type="curve" smooth="yes"/>
      <point x="334" y="716"/>
      <point x="367" y="687"/>
      <point x="367" y="642" type="curve" smooth="yes"/>
      <point x="367" y="607"/>
      <point x="345" y="588"/>
    </contour>
  </outline>
</glyph>
<glyph name="hungarumlautcomb" format="2">
  <advance width="600"/>
  <unicode hex="030B"/>
  <anchor x="217" y="508" name="_top"/>
  <outline>
    <contour>
      <point x="114" y="587" type="curve"/>
      <point x="124" y="584" type="line"/>
      <point x="187" y="638"/>
      <point x="236" y="680"/>
      <point x="264" y="716" type="curve"/>
      <point x="178" y="741" type="line"/>
      <point x="157" y="690"/>
      <point x="140" y="639"/>
    </contour>
    <contour>
      <point x="240" y="590" type="curve"/>
      <point x="250" y="587" type="line"/>
      <point x="315" y="637"/>
      <point x="366" y="677"/>
      <point x="396" y="711" type="curve"/>
      <point x="312" y="741" type="line"/>
      <point x="288" y="691"/>
      <point x="268" y="641"/>
    </contour>
  </outline>
</glyph>
<glyph name="caroncomb" format="2">
  <advance width="600"/>
  <unicode hex="030C"/>
  <anchor x="300" y="508" name="_top"/>
  <outline>
    <contour>
      <point x="154" y="729" type="line"/>
      <point x="150" y="727" type="line"/>
      <point x="192" y="662"/>
      <point x="262" y="587"/>
      <point x="300" y="554" type="curve"/>
      <point x="338" y="586"/>
      <point x="410" y="662"/>
      <point x="452" y="727" type="curve"/>
      <point x="446" y="729" type="line"/>
      <point x="300" y="633" type="line"/>
    </contour>
  </outline>
</glyph>
<glyph name="commaturnedabovecomb" format="2">
  <advance width="600"/>
  <unicode hex="0312"/>
  <anchor x="300" y="508" name="_top"/>
  <outline>
    <contour>
      <point x="364" y="760" type="curve"/>
      <point x="360" y="765" type="line"/>
      <point x="310" y="737"/>
      <point x="246" y="682"/>
      <point x="246" y="623" type="curve" smooth="yes"/>
      <point x="246" y="597"/>
      <point x="264" y="567"/>
      <point x="281" y="551" type="curve"/>
      <point x="351" y="599" type="line"/>
      <point x="322" y="623"/>
      <point x="317" y="658"/>
      <point x="317" y="673" type="curve" smooth="yes"/>
      <point x="317" y="701"/>
      <point x="336" y="734"/>
    </contour>
  </outline>
</glyph>
<glyph name="commaaccentcomb" format="2">
  <advance width="600"/>
  <unicode hex="0326"/>
  <anchor x="300" y="0" name="_bottom"/>
  <outline>
    <contour>
      <point x="236" y="-251" type="curve"/>
      <point x="240" y="-256" type="line"/>
      <point x="290" y="-228"/>
      <point x="354" y="-173"/>
      <point x="354" y="-114" type="curve" smooth="yes"/>
      <point x="354" y="-88"/>
      <point x="336" y="-58"/>
      <point x="319" y="-42" type="curve"/>
      <point x="249" y="-90" type="line"/>
      <point x="278" y="-114"/>
      <point x="283" y="-149"/>
      <point x="283" y="-164" type="curve" smooth="yes"/>
      <point x="283" y="-192"/>
      <point x="264" y="-225"/>
    </contour>
  </outline>
</glyph>
<glyph name="cedillacomb" format="2">
  <advance width="600"/>
  <unicode hex="0327"/>
  <anchor x="283" y="0" name="_bottom"/>
  <outline>
    <contour>
      <point x="276" y="8" type="line"/>
      <point x="214" y="-95" type="line"/>
      <point x="264" y="-95"/>
      <point x="322" y="-101"/>
      <point x="323" y="-130" type="curve"/>
      <point x="323" y="-163"/>
      <point x="265" y="-185"/>
      <point x="219" y="-196" type="curve"/>
      <point x="220" y="-207" type="line"/>
      <point x="274" y="-199"/>
      <point x="387" y="-170"/>
      <point x="387" y="-107" type="curve"/>
      <point x="387" y="-67"/>
      <point x="342" y="-46"/>
      <point x="271" y="-46" type="curve"/>
      <point x="301" y="1" type="line"/>
    </contour>
  </outline>
</glyph>
<glyph name="ogonekcomb" format="2">
  <advance width="600"/>
  <unicode hex="0328"/>
  <anchor x="213" y="-3" name="_ogonek"/>
  <outline>
    <contour>
      <point x="206" y="12" type="line"/>
      <point x="145" y="-15"/>
      <point x="84" y="-59"/>
      <point x="84" y="-124" type="curve" smooth="yes"/>
      <point x="84" y="-182"/>
      <point x="130" y="-221"/>
      <point x="182" y="-221" type="curve" smooth="yes"/>
      <point x="249" y="-221"/>
      <point x="283" y="-173"/>
      <point x="295" y="-143" type="curve"/>
      <point x="292" y="-141" type="line"/>
      <point x="270" y="-166"/>
      <point x="244" y="-181"/>
      <point x="220" y="-181" type="curve" smooth="yes"/>
      <point x="169" y="-181"/>
      <point x="147" y="-146"/>
      <point x="147" y="-102" type="curve" smooth="yes"/>
      <point x="147" y="-63"/>
      <point x="172" y="-25"/>
      <point x="213" y="1" type="curve"/>
    </contour>
  </outline>
</glyph>
<glyph name="endash" format="2">
  <advance width="609"/>
  <unicode hex="2013"/>
  <outline>
    <contour>
      <point x="45" y="311" type="line"/>
      <point x="45" y="265" type="line"/>
      <point x="564" y="265" type="line"/>
      <point x="564" y="311" type="line"/>
    </contour>
  </outline>
</glyph>
<glyph name="emdash" format="2">
  <advance width="994"/>
  <unicode hex="2014"/>
  <outline>
    <contour>
      <point x="45" y="311" type="line"/>
      <point x="45" y="265" type="line"/>
      <point x="949" y="265" type="line"/>
      <point x="949" y="311" type="line"/>
    </contour>
  </outline>
</glyph>
<glyph name="quoteleft" format="2">
  <advance width="183"/>
  <unicode hex="2018"/>
  <outline>
    <contour>
      <point x="155" y="732" type="curve"/>
      <point x="154" y="734" type="line"/>
      <point x="99" y="703"/>
      <point x="40" y="664"/>
      <point x="40" y="579" type="curve" smooth="yes"/>
      <point x="40" y="526"/>
      <point x="76" y="481"/>
      <point x="95" y="464" type="curve"/>
      <point x="156" y="526" type="line"/>
      <point x="124" y="553"/>
      <point x="106" y="592"/>
      <point x="106" y="627" type="curve" smooth="yes"/>
      <point x="106" y="665"/>
      <point x="124" y="703"/>
    </contour>
  </outline>
</glyph>
<glyph name="quoteright" format="2">
  <advance width="183"/>
  <unicode hex="2019"/>
  <outline>
    <contour>
      <point x="28" y="466" type="curve"/>
      <point x="29" y="464" type="line"/>
      <point x="84" y="495"/>
      <point x="143" y="534"/>
      <point x="143" y="619" type="curve" smooth="yes"/>
      <point x="143" y="672"/>
      <point x="107" y="717"/>
      <point x="88" y="734" type="curve"/>
      <point x="27" y="672" type="line"/>
      <point x="59" y="645"/>
      <point x="77" y="606"/>
      <point x="77" y="571" type="curve" smooth="yes"/>
      <point x="77" y="533"/>
      <point x="59" y="495"/>
    </contour>
  </outline>
</glyph>
<glyph name="daggerdbl" format="2">
  <advance width="600"/>
  <unicode hex="2021"/>
  <outline>
    <contour>
      <point x="334" y="-230" type="line"/>
      <point x="333" y="-216"/>
      <point x="331" y="-167"/>
      <point x="330" y="-115"/>
      <point x="330" y="-66"/>
      <point x="330" y="-21" type="qcurve" smooth="yes"/>
      <point x="330" y="531" type="line" smooth="yes"/>
      <point x="330" y="586"/>
      <point x="330" y="635"/>
      <point x="331" y="687"/>
      <point x="333" y="736"/>
      <point x="334" y="750" type="qcurve"/>
      <point x="267" y="750" type="line"/>
      <point x="268" y="736"/>
      <point x="270" y="687"/>
      <point x="272" y="635"/>
      <point x="272" y="586"/>
      <point x="272" y="531" type="qcurve" smooth="yes"/>
      <point x="272" y="-21" type="line" smooth="yes"/>
      <point x="272" y="-66"/>
      <point x="272" y="-115"/>
      <point x="270" y="-167"/>
      <point x="268" y="-216"/>
      <point x="267" y="-230" type="qcurve"/>
    </contour>
    <contour>
      <point x="70" y="452" type="line"/>
      <point x="84" y="453"/>
      <point x="133" y="455"/>
      <point x="185" y="456"/>
      <point x="234" y="456"/>
      <point x="279" y="456" type="qcurve" smooth="yes"/>
      <point x="322" y="456" type="line" smooth="yes"/>
      <point x="382" y="456"/>
      <point x="426" y="456"/>
      <point x="478" y="455"/>
      <point x="527" y="453"/>
      <point x="541" y="452" type="qcurve"/>
      <point x="541" y="519" type="line"/>
      <point x="527" y="518"/>
      <point x="478" y="516"/>
      <point x="426" y="514"/>
      <point x="382" y="514"/>
      <point x="322" y="514" type="qcurve" smooth="yes"/>
      <point x="279" y="514" type="line" smooth="yes"/>
      <point x="234" y="514"/>
      <point x="185" y="514"/>
      <point x="133" y="516"/>
      <point x="84" y="518"/>
      <point x="70" y="519" type="qcurve"/>
    </contour>
    <contour>
      <point x="70" y="252" type="line"/>
      <point x="84" y="253"/>
      <point x="133" y="255"/>
      <point x="185" y="256"/>
      <point x="234" y="256"/>
      <point x="279" y="256" type="qcurve" smooth="yes"/>
      <point x="322" y="256" type="line" smooth="yes"/>
      <point x="382" y="256"/>
      <point x="426" y="256"/>
      <point x="478" y="255"/>
      <point x="527" y="253"/>
      <point x="541" y="252" type="qcurve"/>
      <point x="541" y="319" type="line"/>
      <point x="527" y="318"/>
      <point x="478" y="316"/>
      <point x="426" y="314"/>
      <point x="382" y="314"/>
      <point x="322" y="314" type="qcurve" smooth="yes"/>
      <point x="279" y="314" type="line" smooth="yes"/>
      <point x="234" y="314"/>
      <point x="185" y="314"/>
      <point x="133" y="316"/>
      <point x="84" y="318"/>
      <point x="70" y="319" type="qcurve"/>
    </contour>
  </outline>
</glyph>
<glyph name="bullet" format="2">
  <advance width="388"/>
  <unicode hex="2022"/>
  <outline>
    <contour>
      <point x="194" y="211" type="curve" smooth="yes"/>
      <point x="270" y="211"/>
      <point x="331" y="272"/>
      <point x="331" y="348" type="curve" smooth="yes"/>
      <point x="331" y="424"/>
      <point x="270" y="485"/>
      <point x="194" y="485" type="curve" smooth="yes"/>
      <point x="118" y="485"/>
      <point x="57" y="424"/>
      <point x="57" y="348" type="curve" smooth="yes"/>
      <point x="57" y="272"/>
      <point x="118" y="211"/>
    </contour>
  </outline>
</glyph>
<glyph name="guilsinglleft" format="2">
  <advance width="324"/>
  <unicode hex="2039"/>
  <outline>
    <contour>
      <point x="45" y="260" type="line"/>
      <point x="274" y="483" type="line"/>
      <point x="141" y="260" type="line"/>
      <point x="274" y="38" type="line"/>
    </contour>
  </outline>
</glyph>
<glyph name="guilsinglright" format="2">
  <advance width="324"/>
  <unicode hex="203A"/>
  <outline>
    <contour>
      <point x="279" y="260" type="line"/>
      <point x="50" y="38" type="line"/>
      <point x="183" y="260" type="line"/>
      <point x="50" y="483" type="line"/>
    </contour>
  </outline>
</glyph>
<glyph name="fraction" format="2">
  <advance width="423"/>
  <unicode hex="2044"/>
  <outline>
    <contour>
      <point x="50" y="0" type="line"/>
      <point x="62" y="26"/>
      <point x="83" y="67"/>
      <point x="100" y="97" type="qcurve" smooth="yes"/>
      <point x="367" y="574" type="line" smooth="yes"/>
      <point x="384" y="604"/>
      <point x="412" y="650"/>
      <point x="428" y="676" type="qcurve"/>
      <point x="364" y="676" type="line"/>
      <point x="353" y="650"/>
      <point x="328" y="604"/>
      <point x="311" y="574" type="qcurve" smooth="yes"/>
      <point x="44" y="97" type="line" smooth="yes"/>
      <point x="27" y="67"/>
      <point x="2" y="26"/>
      <point x="-15" y="0" type="qcurve"/>
    </contour>
  </outline>
</glyph>
<glyph name="zerosuperior" format="2">
  <advance width="306"/>
  <unicode hex="2070"/>
  <outline>
    <contour>
      <point x="147" y="423" type="curve" smooth="yes"/>
      <point x="217" y="423"/>
      <point x="289" y="485"/>
      <point x="289" y="572" type="curve" smooth="yes"/>
      <point x="289" y="659"/>
      <point x="219" y="712"/>
      <point x="159" y="712" type="curve" smooth="yes"/>
      <point x="90" y="712"/>
      <point x="17" y="659"/>
      <point x="17" y="563" type="curve" smooth="yes"/>
      <point x="17" y="471"/>
      <point x="90" y="423"/>
    </contour>
    <contour>
      <point x="159" y="453" type="curve" smooth="yes"/>
      <point x="121" y="453"/>
      <point x="85" y="491"/>
      <point x="85" y="583" type="curve" smooth="yes"/>
      <point x="85" y="667"/>
      <point x="119" y="687"/>
      <point x="147" y="687" type="curve" smooth="yes"/>
      <point x="187" y="687"/>
      <point x="221" y="640"/>
      <point x="221" y="552" type="curve" smooth="yes"/>
      <point x="221" y="477"/>
      <point x="196" y="453"/>
    </contour>
  </outline>
</glyph>
<glyph name="foursuperior" format="2">
  <advance width="316"/>
  <unicode hex="2074"/>
  <outline>
    <contour>
      <point x="168" y="709" type="line"/>
      <point x="30" y="499" type="line"/>
      <point x="174" y="499" type="line"/>
      <point x="174" y="492" type="line" smooth="yes"/>
      <point x="174" y="439"/>
      <point x="163" y="424"/>
      <point x="163" y="424" type="curve"/>
      <point x="247" y="424" type="line"/>
      <point x="246" y="424"/>
      <point x="234" y="439"/>
      <point x="234" y="492" type="curve" smooth="yes"/>
      <point x="234" y="498" type="line"/>
      <point x="246" y="498"/>
      <point x="259" y="497"/>
      <point x="271" y="495" type="curve"/>
      <point x="271" y="532" type="line"/>
      <point x="259" y="530"/>
      <point x="246" y="529"/>
      <point x="234" y="529" type="curve"/>
      <point x="234" y="637" type="line" smooth="yes"/>
      <point x="234" y="663"/>
      <point x="234" y="688"/>
      <point x="238" y="714" type="curve"/>
    </contour>
    <contour>
      <point x="83" y="527" type="line"/>
      <point x="173" y="679" type="line"/>
      <point x="174" y="665"/>
      <point x="174" y="649"/>
      <point x="174" y="635" type="curve" smooth="yes"/>
      <point x="174" y="527" type="line"/>
    </contour>
  </outline>
</glyph>
<glyph name="euro" format="2">
  <advance width="618"/>
  <unicode hex="20AC"/>
  <outline>
    <contour>
      <point x="598" y="66" type="curve"/>
      <point x="598" y="97" type="line"/>
      <point x="549" y="62"/>
      <point x="495" y="51"/>
      <point x="433" y="51" type="curve" smooth="yes"/>
      <point x="292" y="51"/>
      <point x="187" y="187"/>
      <point x="187" y="359" type="curve" smooth="yes"/>
      <point x="187" y="563"/>
      <point x="276" y="648"/>
      <point x="410" y="648" type="curve" smooth="yes"/>
      <point x="465" y="648"/>
      <point x="532" y="627"/>
      <point x="582" y="585" type="curve"/>
      <point x="582" y="693" type="line"/>
      <point x="544" y="705"/>
      <point x="503" y="712"/>
      <point x="453" y="712" type="curve" smooth="yes"/>
      <point x="274" y="712"/>
      <point x="85" y="569"/>
      <point x="85" y="319" type="curve" smooth="yes"/>
      <point x="85" y="118"/>
      <point x="238" y="-15"/>
      <point x="400" y="-15" type="curve" smooth="yes"/>
      <point x="490" y="-15"/>
      <point x="553" y="16"/>
    </contour>
    <contour>
      <point x="466" y="420" type="line"/>
      <point x="6" y="420" type="line"/>
      <point x="6" y="374" type="line"/>
      <point x="466" y="374" type="line"/>
    </contour>
    <contour>
      <point x="466" y="295" type="line"/>
      <point x="6" y="295" type="line"/>
      <point x="6" y="249" type="line"/>
      <point x="466" y="249" type="line"/>
    </contour>
  </outline>
</glyph>
<glyph name="trademark" format="2">
  <advance width="737"/>
  <unicode hex="2122"/>
  <outline>
    <contour>
      <point x="193" y="702" type="curve" smooth="yes"/>
      <point x="145" y="702"/>
      <point x="110" y="701"/>
      <point x="70" y="704" type="curve"/>
      <point x="60" y="650" type="line"/>
      <point x="63" y="648" type="line"/>
      <point x="77" y="676"/>
      <point x="123" y="683"/>
      <point x="170" y="685" type="curve"/>
      <point x="172" y="675"/>
      <point x="174" y="660"/>
      <point x="174" y="637" type="curve" smooth="yes"/>
      <point x="174" y="497" type="line" smooth="yes"/>
      <point x="174" y="446"/>
      <point x="166" y="431"/>
      <point x="166" y="431" type="curve"/>
      <point x="219" y="431" type="line"/>
      <point x="219" y="431"/>
      <point x="211" y="446"/>
      <point x="211" y="497" type="curve" smooth="yes"/>
      <point x="211" y="637" type="line" smooth="yes"/>
      <point x="211" y="660"/>
      <point x="212" y="675"/>
      <point x="214" y="685" type="curve"/>
      <point x="262" y="683"/>
      <point x="308" y="676"/>
      <point x="322" y="648" type="curve"/>
      <point x="325" y="650" type="line"/>
      <point x="315" y="704" type="line"/>
      <point x="275" y="701"/>
      <point x="241" y="702"/>
    </contour>
    <contour>
      <point x="342" y="431" type="curve"/>
      <point x="376" y="431" type="line"/>
      <point x="374" y="445"/>
      <point x="377" y="471"/>
      <point x="378" y="485" type="curve" smooth="yes"/>
      <point x="403" y="661" type="line"/>
      <point x="499" y="431" type="line"/>
      <point x="511" y="431" type="line"/>
      <point x="595" y="667" type="line"/>
      <point x="596" y="662"/>
      <point x="597" y="656"/>
      <point x="599" y="649" type="curve" smooth="yes"/>
      <point x="624" y="485" type="line"/>
      <point x="626" y="465"/>
      <point x="627" y="443"/>
      <point x="626" y="431" type="curve"/>
      <point x="677" y="431" type="line"/>
      <point x="665" y="465"/>
      <point x="660" y="494"/>
      <point x="656" y="515" type="curve" smooth="yes"/>
      <point x="645" y="585" type="line" smooth="yes"/>
      <point x="637" y="639"/>
      <point x="628" y="682"/>
      <point x="630" y="702" type="curve"/>
      <point x="584" y="702" type="line"/>
      <point x="584" y="691"/>
      <point x="584" y="686"/>
      <point x="579" y="673" type="curve" smooth="yes"/>
      <point x="512" y="492" type="line"/>
      <point x="462" y="614" type="line" smooth="yes"/>
      <point x="449" y="643"/>
      <point x="437" y="671"/>
      <point x="430" y="701" type="curve"/>
      <point x="375" y="701" type="line"/>
      <point x="380" y="695"/>
      <point x="385" y="690"/>
      <point x="389" y="685" type="curve"/>
      <point x="358" y="494" type="line" smooth="yes"/>
      <point x="356" y="479"/>
      <point x="350" y="447"/>
    </contour>
  </outline>
</glyph>
<glyph name="minus" format="2">
  <advance width="632"/>
  <unicode hex="2212"/>
  <outline>
    <contour>
      <point x="562" y="298" type="line"/>
      <point x="70" y="298" type="line"/>
      <point x="70" y="252" type="line"/>
      <point x="562" y="252" type="line"/>
    </contour>
  </outline>
</glyph>
<glyph name="approxequal" format="2">
  <advance width="536"/>
  <unicode hex="2248"/>
  <outline>
    <contour>
      <point x="70" y="309" type="curve"/>
      <point x="72" y="303" type="line"/>
      <point x="82" y="329"/>
      <point x="113" y="347"/>
      <point x="153" y="347" type="curve" smooth="yes"/>
      <point x="212" y="347"/>
      <point x="288" y="303"/>
      <point x="359" y="303" type="curve" smooth="yes"/>
      <point x="417" y="303"/>
      <point x="456" y="334"/>
      <point x="466" y="399" type="curve"/>
      <point x="464" y="405" type="line"/>
      <point x="454" y="379"/>
      <point x="423" y="361"/>
      <point x="389" y="361" type="curve" smooth="yes"/>
      <point x="307" y="361"/>
      <point x="248" y="405"/>
      <point x="175" y="405" type="curve" smooth="yes"/>
      <point x="115" y="405"/>
      <point x="80" y="364"/>
    </contour>
    <contour>
      <point x="70" y="129" type="curve"/>
      <point x="72" y="123" type="line"/>
      <point x="82" y="149"/>
      <point x="113" y="167"/>
      <point x="153" y="167" type="curve" smooth="yes"/>
      <point x="212" y="167"/>
      <point x="288" y="123"/>
      <point x="359" y="123" type="curve" smooth="yes"/>
      <point x="417" y="123"/>
      <point x="456" y="154"/>
      <point x="466" y="219" type="curve"/>
      <point x="464" y="225" type="line"/>
      <point x="454" y="199"/>
      <point x="423" y="181"/>
      <point x="389" y="181" type="curve" smooth="yes"/>
      <point x="307" y="181"/>
      <point x="248" y="225"/>
      <point x="175" y="225" type="curve" smooth="yes"/>
      <point x="115" y="225"/>
      <point x="80" y="184"/>
    </contour>
  </outline>
</glyph>
<glyph name="notequal" format="2">
  <advance width="600"/>
  <unicode hex="2260"/>
  <outline>
    <contour>
      <point x="148" y="86" type="line"/>
      <point x="508" y="466" type="line"/>
      <point x="454" y="466" type="line"/>
      <point x="94" y="86" type="line"/>
    </contour>
    <contour>
      <point x="526" y="380" type="line"/>
      <point x="76" y="380" type="line"/>
      <point x="76" y="334" type="line"/>
      <point x="526" y="334" type="line"/>
    </contour>
    <contour>
      <point x="526" y="205" type="line"/>
      <point x="76" y="205" type="line"/>
      <point x="76" y="159" type="line"/>
      <point x="526" y="159" type="line"/>
    </contour>
  </outline>
</glyph>
<glyph name="greaterequal" format="2">
  <advance width="527"/>
  <unicode hex="2265"/>
  <outline>
    <contour>
      <point x="40" y="89" type="line"/>
      <point x="487" y="89" type="line"/>
      <point x="487" y="135" type="line"/>
      <point x="40" y="135" type="line"/>
    </contour>
    <contour>
      <point x="40" y="597" type="line"/>
      <point x="40" y="643" type="line"/>
      <point x="477" y="438" type="line"/>
      <point x="477" y="392" type="line"/>
      <point x="40" y="185" type="line"/>
      <point x="40" y="231" type="line"/>
      <point x="431" y="415" type="line"/>
    </contour>
  </outline>
</glyph>
<glyph name="fl" format="2">
  <advance width="539"/>
  <unicode hex="FB02"/>
  <outline>
    <contour>
      <point x="363" y="0" type="curve"/>
      <point x="494" y="0" type="line"/>
      <point x="489" y="25"/>
      <point x="479" y="51"/>
      <point x="479" y="231" type="curve" smooth="yes"/>
      <point x="480" y="745" type="line"/>
      <point x="385" y="690" type="line"/>
      <point x="348" y="705"/>
      <point x="324" y="722"/>
      <point x="262" y="722" type="curve" smooth="yes"/>
      <point x="159" y="722"/>
      <point x="89" y="659"/>
      <point x="89" y="556" type="curve" smooth="yes"/>
      <point x="89" y="497" type="line"/>
      <point x="20" y="493" type="line"/>
      <point x="20" y="462" type="line"/>
      <point x="89" y="460" type="line"/>
      <point x="89" y="231" type="line" smooth="yes"/>
      <point x="89" y="57"/>
      <point x="81" y="25"/>
      <point x="74" y="0" type="curve"/>
      <point x="188" y="0" type="line"/>
      <point x="183" y="25"/>
      <point x="173" y="51"/>
      <point x="173" y="231" type="curve" smooth="yes"/>
      <point x="173" y="456" type="line"/>
      <point x="325" y="451" type="line"/>
      <point x="332" y="512" type="line"/>
      <point x="173" y="502" type="line"/>
      <point x="173" y="580" type="line" smooth="yes"/>
      <point x="173" y="649"/>
      <point x="203" y="675"/>
      <point x="252" y="675" type="curve" smooth="yes"/>
      <point x="298" y="675"/>
      <point x="358" y="667"/>
      <point x="399" y="583" type="curve"/>
      <point x="398" y="241" type="line"/>
      <point x="397" y="57"/>
      <point x="390" y="25"/>
    </contour>
  </outline>
</glyph>
<glyph name="acutecomb.case" format="2">
  <advance width="600"/>
  <anchor x="300" y="700" name="_top"/>
  <outline>
    <contour>
      <point x="225" y="742" type="curve"/>
      <point x="247" y="735" type="line"/>
      <point x="318" y="778"/>
      <point x="377" y="814"/>
      <point x="441" y="857" type="curve"/>
      <point x="351" y="901" type="line"/>
      <point x="311" y="854"/>
      <point x="259" y="789"/>
    </contour>
  </outline>
</glyph>
<glyph name="caroncomb.alt" format="2">
  <advance width="600"/>
  <anchor x="296" y="508" name="_topright"/>
  <outline>
    <contour>
      <point x="284" y="551" type="curve"/>
      <point x="328" y="547" type="line"/>
      <point x="346" y="615"/>
      <point x="363" y="679"/>
      <point x="376" y="728" type="curve"/>
      <point x="302" y="742" type="line"/>
      <point x="296" y="695"/>
      <point x="289" y="622"/>
    </contour>
  </outline>
</glyph>
<glyph name="caroncomb.case" format="2">
  <advance width="600"/>
  <anchor x="300" y="662" name="_top"/>
  <outline>
    <contour>
      <point x="154" y="899" type="line"/>
      <point x="150" y="897" type="line"/>
      <point x="192" y="832"/>
      <point x="262" y="757"/>
      <point x="300" y="724" type="curve"/>
      <point x="338" y="756"/>
      <point x="410" y="832"/>
      <point x="452" y="897" type="curve"/>
      <point x="446" y="899" type="line"/>
      <point x="300" y="803" type="line"/>
    </contour>
  </outline>
</glyph>
<glyph name="circumflexcomb.case" format="2">
  <advance width="600"/>
  <anchor x="300" y="700" name="_top"/>
  <outline>
    <contour>
      <point x="154" y="724" type="line"/>
      <point x="300" y="820" type="line"/>
      <point x="446" y="724" type="line"/>
      <point x="452" y="726" type="line"/>
      <point x="410" y="791"/>
      <point x="338" y="867"/>
      <point x="300" y="899" type="curve"/>
      <point x="262" y="866"/>
      <point x="192" y="791"/>
      <point x="150" y="726" type="curve"/>
    </contour>
  </outline>
</glyph>
<glyph name="dotaccentcomb.case" format="2">
  <advance width="600"/>
  <anchor x="300" y="700" name="_top"/>
  <outline>
    <contour>
      <point x="300" y="759" type="curve" smooth="yes"/>
      <point x="330" y="759"/>
      <point x="354" y="783"/>
      <point x="354" y="813" type="curve" smooth="yes"/>
      <point x="354" y="843"/>
      <point x="330" y="867"/>
      <point x="300" y="867" type="curve" smooth="yes"/>
      <point x="270" y="867"/>
      <point x="246" y="843"/>
      <point x="246" y="813" type="curve" smooth="yes"/>
      <point x="246" y="783"/>
      <point x="270" y="759"/>
    </contour>
  </outline>
</glyph>
<glyph name="eth.001" format="2">
  <advance width="557"/>
  <outline>
    <contour>
      <point x="258" y="-11" type="curve" smooth="yes"/>
      <point x="397" y="-11"/>
      <point x="507" y="101"/>
      <point x="507" y="248" type="curve" smooth="yes"/>
      <point x="507" y="372"/>
      <point x="468" y="495"/>
      <point x="357" y="592" type="curve"/>
      <point x="364" y="595" type="line"/>
      <point x="459" y="639" type="line"/>
      <point x="459" y="705" type="line"/>
      <point x="427" y="687"/>
      <point x="395" y="670"/>
      <point x="363" y="652" type="curve"/>
      <point x="312" y="626" type="line"/>
      <point x="255" y="665"/>
      <point x="186" y="696"/>
      <point x="103" y="715" type="curve"/>
      <point x="99" y="709" type="line"/>
      <point x="161" y="683"/>
      <point x="218" y="649"/>
      <point x="266" y="603" type="curve"/>
      <point x="200" y="571"/>
      <point x="160" y="553"/>
      <point x="138" y="544" type="curve"/>
      <point x="138" y="477" type="line"/>
      <point x="221" y="524" type="line"/>
      <point x="302" y="564" type="line"/>
      <point x="338" y="535"/>
      <point x="368" y="495"/>
      <point x="395" y="424" type="curve"/>
      <point x="361" y="461"/>
      <point x="317" y="470"/>
      <point x="285" y="470" type="curve" smooth="yes"/>
      <point x="149" y="470"/>
      <point x="40" y="358"/>
      <point x="40" y="212" type="curve" smooth="yes"/>
      <point x="40" y="87"/>
      <point x="131" y="-11"/>
    </contour>
    <contour>
      <point x="288" y="34" type="curve" smooth="yes"/>
      <point x="194" y="34"/>
      <point x="125" y="129"/>
      <point x="125" y="251" type="curve" smooth="yes"/>
      <point x="125" y="357"/>
      <point x="174" y="424"/>
      <point x="257" y="424" type="curve" smooth="yes"/>
      <point x="353" y="424"/>
      <point x="415" y="335"/>
      <point x="415" y="208" type="curve" smooth="yes"/>
      <point x="415" y="102"/>
      <point x="369" y="34"/>
    </contour>
  </outline>
</glyph>
